<svg xmlns="http://www.w3.org/2000/svg" width="162.608" height="141.693" viewBox="0 0 162.608 141.693"><defs><style>.a{fill:none;stroke:#050c44;stroke-width:2px;}</style></defs><g transform="translate(1.014 1)"><path class="a" d="M135.056,34.864a15.875,15.875,0,0,0,15.122-10.959,58.476,58.476,0,0,1-15.122,1.818,58.466,58.466,0,0,1-15.121-1.818A15.873,15.873,0,0,0,135.056,34.864Z" transform="translate(-54.766 -21.359)"/><path class="a" d="M160.38,40.747a3.679,3.679,0,0,0-1.913-2.1L127.851,24.51a148.056,148.056,0,0,0-19.846-5.222,3.65,3.65,0,0,0-.7-.068,3.6,3.6,0,0,0-3.513,2.824,24.08,24.08,0,0,1-47,0,3.6,3.6,0,0,0-3.513-2.824,3.65,3.65,0,0,0-.7.068A148.622,148.622,0,0,0,32.717,24.51L2.113,38.642a3.6,3.6,0,0,0-1.908,2.1A3.571,3.571,0,0,0,.4,43.582l13.291,26.23a3.608,3.608,0,0,0,4.268,1.838l14.762-4.375v88.01a3.637,3.637,0,0,0,3.635,3.629h87.875a3.632,3.632,0,0,0,3.624-3.629V67.275l14.772,4.375a3.608,3.608,0,0,0,4.268-1.838l13.3-26.23A3.642,3.642,0,0,0,160.38,40.747Z" transform="translate(0 -19.219)"/></g></svg>