<svg xmlns="http://www.w3.org/2000/svg" xmlns:xlink="http://www.w3.org/1999/xlink" width="383.965" height="415.084" viewBox="0 0 383.965 415.084"><defs><style>.a,.n,.o{fill:none;}.b{clip-path:url(#a);}.c{fill:#c1c1c1;}.d{fill:#e6e8e7;}.e{fill:#353535;}.f{fill:#00e9c5;}.g{fill:#120904;}.g,.i,.k,.q,.s{opacity:0.5;}.g,.i,.k,.n,.p,.q,.s{mix-blend-mode:multiply;}.g,.i,.k,.n,.p,.q,.s,.u{isolation:isolate;}.h,.i,.p{fill:#d09e83;}.j{fill:#040511;}.k{fill:#04ba97;}.l{fill:#f2cfaf;}.m{fill:#9b8732;}.n{stroke:#d09e83;stroke-width:3.38px;}.n,.o{stroke-miterlimit:10;}.o{stroke:#543c29;stroke-width:6.76px;}.r,.s{fill:#ddc666;}.t{fill:#543c29;}.u{fill:#919191;mix-blend-mode:hue;}.v{fill:#fff;}.w{fill:#04a5b5;}</style><clipPath id="a"><path class="a" d="M421.752,190.187a85.759,85.759,0,0,0,12.329,45.134c4.552,7.431,10.246,14.161,14.236,21.909s6.152,17.041,3.064,25.191c-2.368,6.247-7.452,10.983-12.019,15.859a131.014,131.014,0,0,0-29.093,49.889c-6.08,19.217-2.645,37.371-12.248,55.849-8.055,15.5-22.012,27.088-37.579,34.6-15.694,7.572-35.41.6-51.829-2.095a209.293,209.293,0,0,0-79.133,2.211c-11.907,2.647-23.561,6.333-35.453,9.044-30.611,6.979-81.91,14.205-107.331-9.631-14.311-13.418-18.208-34.651-17.785-54.264.472-21.854,5.664-43.836,15.974-63.171,9-16.877,21.775-28.766,25.335-48.309,2.25-12.35,3-25.239,8.405-36.568,8.23-17.246,25.637-27.833,41.762-38.086,22.736-14.457,35.719-29.983,43.837-55.615,7.888-24.9,17.712-49.641,35.862-68.983C271.481,39.695,325.23,29.725,366.533,49.7c30.415,14.706,53.755,44.666,60.238,77.863,3.687,18.878-1.53,32.613-4.142,50.813A87.054,87.054,0,0,0,421.752,190.187Z" transform="translate(-68.881 -39.452)"/></clipPath></defs><g transform="translate(-68.881 -39.452)"><g class="b" transform="translate(68.881 39.452)"><g transform="translate(-266.14 14.384)"><path class="c" d="M-489.777,1228.333s-17.716-9.778-37.308,25.878c0,0,.391,14.544-12.491,20.262s-23.12,15.952-27.533,36.432c-1.818,8.438-5.031,38.14,18.527,41.513l13.1-21.2,51.068-65.24,6.986-25.984Z" transform="translate(568.362 -745.475)"/><path class="d" d="M-430.515,1255.141s-14.092-17.922-29.933-25.1c0,0,24.309,17.286-16.42,55.708S-518,1354.907-518,1354.907s12.091,1.968,27.867-27.184c0,0,12.227-1.688,19.724-11.041,0,0,19.313,2.854,25.087-12.926s13.787-22.58,13.787-22.58l5.893-19.267Z" transform="translate(539.033 -747.186)"/><path class="e" d="M621.961,639.388s6.679,1.8,30.039,2.028c10.977.1,21.684-8.745,40.69-12.548,0,0,12.373,17.183,17.383,20.3,0,0-29.409,14.062-44.978,19.343-14.634,4.964-40.314,13.388-62.314,12.935s8.066-43.827,8.066-43.827Z" transform="translate(-108.973 -397.087)"/><path class="c" d="M478.686,1865.15s-20.792,17.478,9.5,20.569a26.4,26.4,0,0,0,15.487-1.95c7.486-3.667,22.56,8.256,22.56,8.256s31.861,7.6,42.991,7,42.164-2.448,36.429-27.744l-42.693,4.085Z" transform="translate(-37.341 -1117.044)"/><path class="f" d="M-316.25,1282.5l-3.211-4.46a113.424,113.424,0,0,0-7.841-8.673c1.741,18.026,8.687,20.636,11.021,20.982l.593-1.941Z" transform="translate(427.979 -770.087)"/><path class="d" d="M507.3,1767.208s-8.433-7.5-16.735,19.035,1.821,34.006,13.409,34.36,37.166,5.128,52.108,11.237,47.372,8.321,56.4-9.516-16.518-15.252-16.518-15.252-20.978-14.214-28.125-15.492-12.034-17.049-12.034-17.049,2.7-7.2-5.4-7.662l-8.093-.46Z" transform="translate(-46.544 -1059.437)"/><path class="g" d="M704,638.683c-4.708,7.764-15.549,13.916-35.254,17.274-28.84,4.914-42.937-10.158-53.006.9-6.835,7.507-7.144,21.74-6.64,30.122a13.629,13.629,0,0,0,1.954.176c22,.452,47.68-7.971,62.314-12.935,15.569-5.281,44.978-19.343,44.978-19.343C714.91,652.742,708,643.97,704,638.683Z" transform="translate(-117.25 -402.803)"/><path class="h" d="M549.374,1549.108s-7.285,64.549-14.5,89.117c0,0,3.885,1.552,3.239,8.342s15.116,13.236,22.839,3.716c2.835-3.493,4.644-14.414,12.257-13.175,0,0,13.081-51.984,23.638-77.472S549.374,1549.108,549.374,1549.108Z" transform="translate(-74.115 -930.454)"/><path class="i" d="M549.373,1543.971s-7.285,64.549-14.5,89.117c0,0,3.885,1.552,3.24,8.342-.611,6.437,13.507,12.539,21.56,5.05-6.933-20.137,4.846-66.2,16.813-108.157C565.616,1530.611,549.373,1543.971,549.373,1543.971Z" transform="translate(-74.114 -925.318)"/><path class="h" d="M-239.037,1267.7s-34.075,3.189-51.071,5.94-31.305,5.938-38.252,3.429c0,0,1.866,19.61-4.227,25.974s-10,19.059-10,19.059,18.818-13.946,96.74-1.267l13.6-12.957-.5-33.639Z" transform="translate(436.878 -769.116)"/><path class="i" d="M-239.037,1267.7s-34.075,3.189-51.071,5.94-31.305,5.938-38.252,3.429c0,0,1.866,19.61-4.227,25.974s-10,19.059-10,19.059,18.818-13.946,96.74-1.267l13.6-12.957-.5-33.639Z" transform="translate(436.878 -769.116)"/><path class="j" d="M48.709,886.571S26.38,907.476,30.371,936.626c0,0-2.154,21.714-15.962,38.774s-26.616,42.1-29.334,53.147-14.766,20.122-14.766,20.122-.969.3-4.926-.8-67.83-6.9-69.527-2.119c0,0,9.875,26.889-6.807,53.135,0,0,44.969-2.336,80.358,6.18,0,0,23.173,12.964,39.782-12.834s25.585-28.467,36.114-35.495c19.84-13.242,40.639-41.2,58.263-75.561,0,0,36.2,45.884,60.232,67.72s28.955,42.405,28.955,42.405-20.617,50.428-19.48,74.517c0,0,46.959,10.859,50.167,10.921s14.68-61.967,23.271-78.037,5.319-32.691,5.319-32.691-8.281-19.735-11.145-27.556-20.333-50.2-40.278-77.345-23.789-37.427-23.789-37.427l-13.008-7.633Z" transform="translate(301.986 -547.162)"/><path class="f" d="M248.832,886.571l86.645,22.189,39.851,13.974,1.612.946s2.034,5.384,10.618,18.532c-3.667,5.918-13.72,4.655-20.191,7.338,0,0,48.439,78.979,58.413,111.86s-21.808,111.332-21.809,111.333c-4.556-1.008-9.354-2.086-13.769-3.086,6.649-16.116,30.3-77.6,17.97-109.273-14.264-36.644-63.563-106.57-63.563-106.57s-64.6-1.9-111.918-40.746A68.515,68.515,0,0,1,248.832,886.571Z" transform="translate(101.863 -547.162)"/><path class="k" d="M192.753,1091.3s-20.616,50.428-19.48,74.516c0,0,10.123,2.57,24.306,5.533,22.5-46.855,22.181-104.427,19.611-109.629-16.916-34.241-81.835-152.958-81.835-152.958h0L48.708,886.571S26.379,907.476,30.37,936.626c0,0-2.153,21.714-15.962,38.774s-26.616,42.1-29.333,53.147-14.767,20.122-14.767,20.122-.969.3-4.926-.8-67.83-6.9-69.527-2.119c0,0,9.875,26.889-6.807,53.135,0,0,44.97-2.336,80.359,6.18,0,0,19.874,11.1,36-7.754,5.315-13.213,14.5-28.766,30.082-38.646,31.536-20,58.506-73.836,59.837-78.522S90.709,961,90.709,961a183.019,183.019,0,0,0,12.857,20.172s36.2,45.884,60.232,67.72S192.753,1091.3,192.753,1091.3Z" transform="translate(301.986 -547.162)"/><path class="l" d="M846.667,601.146c19.856-3.076,24.794-18.173,29.832-20.429,6.528-2.921,8.631-10.93,7.444-12.579-.952-1.322-2.925,1.286-5.438,4.019-1.943,2.112,5.054-4.694,4.047-7.922s-2.723-10.18-5.368-12.212c-7.918-6.085-9.818-5.581-15.636-5.609s-11.288,12.873-11.288,12.873l-8.52,9.262s-4.481-4.227-1.145-7.31c2.54-2.348,7.366-4.777,5.713-7.8s-12.469,3.181-13.941,8.458-3.085,18.958-3.085,18.958S832.677,603.314,846.667,601.146Z" transform="translate(-245.567 -349.069)"/><path class="l" d="M668.893,184.644c6.276-10.318,2.768-26.9,2.768-26.9l-2.979-15.118L613.3,159.049l-25.441,42.724c-2.678,13.944-7.95,15.585-7.95,15.585l32.644,37.369c-1.535-14.828,8.217-22.222,14.93-21.813.705.043.7.42,2.566,1.184s10.725,4.005,15.1,4.623c1.628.23,10.557-1.291,8.886-10.066a6.192,6.192,0,0,1,.516-3.9c3.131-.41,2.746-2.556,2-3.167-4.19-3.44-2.276-3.619-2.276-3.619s3.739,2.447,4.765.775.973-2.14.973-2.14c-3.232-4.855,2.8-5.368,2.8-5.368C680.045,214.039,662.618,194.961,668.893,184.644Z" transform="translate(-100.341 -113.92)"/><path class="i" d="M649.4,204.088l-41.624.025-19.92,33.454c-2.678,13.944-7.95,15.585-7.95,15.585h0l32.644,37.369c-1.536-14.828,8.217-22.223,14.929-21.814.705.043.7.42,2.566,1.184s10.725,4.005,15.1,4.623c-6.451-10.223-5.147-5.811.073-24.461,3.627-12.958.5-19.6-.9-24.161S649.4,204.088,649.4,204.088Z" transform="translate(-100.341 -149.713)"/><path class="e" d="M658.076,411.106c0-.018,0-.036,0-.054l-.007-.008v.009C658.073,411.069,658.074,411.088,658.076,411.106Z" transform="translate(-145.86 -270.235)"/><path class="e" d="M658.075,411.107v0c0-.018,0-.036,0-.053v-.009h0v.01C658.073,411.069,658.074,411.088,658.075,411.107Z" transform="translate(-145.859 -270.234)"/><path class="e" d="M408.842,412.317c-2.1-12.073-12.724-35.711-12.85-51.17h0c-.006-.733,0-1.453.048-2.146,0-.018,0-.038,0-.055v-.01L363.39,321.566h0s-26.384,10.2-31.36,17.575-28.826,17.068-42.385,21.3S226.653,398.2,216.74,406.392c0,0-5.669,1.785-6.875,19.652-1.224,18.129.365,24.115-.636,49.113-.27,6.748-1.974,25-.564,29.523,0,0,13.826,9.293,24.074,10.347,0,0-6.79-22.49,3.669-54.35,9.566-29.14,9.331-33.318,9.331-33.318s32.261-17.944,59.4-20.883c0,0-18.65,76.95-29.51,104.143s-42.884,40.369-42.884,40.369-5.611,34.482,129.882,43.658c0,0,11.126-93.8,22.747-117.2S415.587,451.064,408.842,412.317Z" transform="translate(116.177 -218.127)"/><path class="f" d="M332.03,348.008c-4.977,7.379-28.826,17.068-42.385,21.3s-62.991,37.761-72.905,45.954c0,0-5.669,1.785-6.875,19.652-1.224,18.129.365,24.115-.636,49.113-.271,6.748-1.973,25-.564,29.523,0,0,.525.352,1.437.922l1.5-.14s1.454-79.3,7.533-92.367c0,0,52.388-45.461,105.75-59.991,18.144-4.94,24.068-14.592,23.994-25.179C341.861,340.207,334.439,344.437,332.03,348.008Z" transform="translate(116.177 -226.994)"/><path class="m" d="M458.982,130.046c7.725-2.637,18.371-4.136,25.019-20.982s17.644-37.811,55.324-34.9,55.757,48.6,41.64,43.55c0,0-6.949-9.558-9.721-9.473,0,0-4.683,31.238-29.974,37.042.208-11.438-4.015-17.443-11.169-15.85s-4.046,17.622-4.046,17.622l.006,0c-11.174,1.3-15.738,3.06-17.689,8.566-2.02,5.7-15.448,11.965-23.884-3.886-2.05-3.852-2.787-20.067-14.013-10.4,0,0,5.855,38.877-10.306,54.864a57.788,57.788,0,0,1-36,16.436s7.852-4.468,11.127-16.117a25.854,25.854,0,0,1-9.769.709S422.359,142.547,458.982,130.046Z" transform="translate(-9.644 -73.894)"/><path class="n" d="M668.141,249.084s2.528,15.687,9.114,11.932" transform="translate(-151.724 -175.917)"/><path class="o" d="M779.4,228.9s-4.775-7.524-12.564-2.969" transform="translate(-209.202 -161.581)"/><path class="p" d="M754.035,319.03a13.48,13.48,0,0,0,6.163.3,5.642,5.642,0,0,1-.969,2.077c-1.026,1.672-4.766-.776-4.766-.776s-1.914.18,2.276,3.62c.738.606,1.111,2.71-1.921,3.149C751.455,323.629,750.852,318.05,754.035,319.03Z" transform="translate(-200.528 -216.584)"/><g class="q" transform="translate(465.568 3.11)"><path class="r" d="M611.288,140.976s-3.859-10.211-.963-13.877-19.459,5.428-21.748,10.182-.671-11.991,2.685-16.5a16.261,16.261,0,0,0-13.882-2.259s.77-11.213,6.316-17.053c0,0-6.951-5.421-11.877-1.933a26.125,26.125,0,0,1,5.755-9.292l-7.326,4.33c-7.672,6.889-11.878,15.923-15.07,24.012-2.49,6.309-5.54,10.464-8.788,13.334l3.949,16.876c3.246,2.64,4.027,10.026,5.326,12.466,8.437,15.851,21.864,9.589,23.885,3.886,1.95-5.506,6.514-7.267,17.688-8.566l-.006,0s-3.108-16.028,4.046-17.622,11.377,4.412,11.169,15.85a32.9,32.9,0,0,0,5.943-1.985c-.42-3.57-.4-9.393,3.245-13.311C621.635,139.512,612.31,138.917,611.288,140.976Z" transform="translate(-546.39 -86.524)"/><path class="r" d="M624.369,82.528a15.558,15.558,0,0,0-3.312,2.53l6.291-3.719Q625.8,81.892,624.369,82.528Z" transform="translate(-589.873 -81.339)"/></g><path class="s" d="M424.167,288.995a57.787,57.787,0,0,0,36-16.436c16.162-15.987,10.307-54.864,10.307-54.864.057-.049.1-.076.162-.123l-7.293-12.564c-1.519.489-2.988.925-4.361,1.394-36.622,12.5-33.457,67.186-33.457,67.186a25.854,25.854,0,0,0,9.769-.709C432.019,284.526,424.167,288.995,424.167,288.995Z" transform="translate(-9.644 -150.248)"/><path class="i" d="M848.844,612.641A35.2,35.2,0,0,0,863.538,607a28.517,28.517,0,0,1-11.925-11.376c-8.032-13.656-14.386-19.588-9.424-23.6,3.606-2.913,4.212-6.168,2.637-5.853-5.068,1.014-8.06,5.277-7.462,18.552a20.192,20.192,0,0,1-4.343,13.839C835.135,605.038,839.734,614.052,848.844,612.641Z" transform="translate(-247.744 -360.563)"/><path class="f" d="M636.494,1791.828c-2.829-.506-5.293-3.291-7.25-6.463q-.42-.679-.809-1.375c-.088-.159-.175-.316-.261-.476a56.034,56.034,0,0,1-3.715-8.735s2.7-7.2-5.4-7.662l-8.093-.46-4.826.11a5.8,5.8,0,0,0-.731,2.725c-.107,3.7,3.475,10.195,7.909,15.351-2.052.631-3.522,1.47-3.78,2.6-1.058,4.615,16.147,17.528,41.9,21.257,6.331.917,10.424.16,13.01-1.5C662.7,1806.025,643.316,1793.048,636.494,1791.828Z" transform="translate(-115.193 -1059.686)"/><path class="f" d="M496.861,1783.628c15.381,9.8,20.989-9.762,20.989-9.762l-3.423-6.693-1.691.038S504.876,1760.227,496.861,1783.628Z" transform="translate(-51.978 -1059.44)"/><path class="f" d="M535.5,1853.01c1.65.135,3.453.326,5.39.572,21.111-10.823,33.918-29.634,34.506-30.512l-2.348-1.572C572.9,1821.722,558.393,1843.016,535.5,1853.01Z" transform="translate(-74.479 -1091.624)"/><path class="f" d="M605.163,1831.754l-2.525-1.265c-.106.21-9.978,19.414-30.276,29.88q2.178.391,4.416.839A78.079,78.079,0,0,0,605.163,1831.754Z" transform="translate(-95.947 -1096.859)"/><path class="f" d="M628.18,1834.059c-.069.222-6.435,20.18-25.216,31.055q1.952.465,3.88.962c17.776-11.533,23.753-30.271,24.035-31.192Z" transform="translate(-113.768 -1098.938)"/><path class="f" d="M-413.579,1402.082c-9.207,10.878-6.448-5.939-18.291,6.939s-20.668,4.6-20.189,12.957c.053.938.129,1.77.216,2.531.034-.062.067-.119.1-.181,0,0,12.226-1.688,19.724-11.041,0,0,19.313,2.854,25.087-12.927.576-1.574,1.178-3.033,1.788-4.431C-407.259,1396.324-410.055,1397.918-413.579,1402.082Z" transform="translate(500.643 -843.791)"/><ellipse class="t" cx="3.677" cy="2.125" rx="3.677" ry="2.125" transform="matrix(0.385, -0.923, 0.923, 0.385, 559.764, 75.997)"/><g transform="translate(503.772 174.11)"><path class="f" d="M645.391,491.115c-.606.391-.919,1.521-.8,2.864h0l2,22.651c.053.6-.172,1.14-.5,1.219a.34.34,0,0,1-.177-.006c-2.847-.912-5.151-5.506-5.669-11.288l-.049-.548-.016-.184c-.013-.138-.016-.273-.023-.411l-.01-.11q-.021-.532-.023-1.066v-.114q0-.231.007-.459l-.007-.078c.01-.355.026-.711.05-1.066l0-.071c.013-.167.027-.329.042-.493h0c.032-.354.072-.707.123-1.021a.083.083,0,0,1,.007-.056c.049-.331.1-.654.17-.965l0-.018c.028-.143.059-.283.092-.422l.019-.083c.031-.129.063-.257.1-.381l.012-.048c.037-.134.074-.269.115-.4l.036-.117a12.768,12.768,0,0,1,.594-1.537,5.379,5.379,0,0,1,.3-.545,2.467,2.467,0,0,0-.043-2.042c-.024-.053-.049-.1-.076-.153L641.024,493c-.317-.584-.748-.707-1-.276a12.455,12.455,0,0,0-.953,2.123h0l-.01.031c-.063.18-.123.347-.179.55h0c-.054.179-.107.35-.158.545l-.025.1q-.153.579-.279,1.2l-.023.115c-.083.41-.155.836-.219,1.275-.007.04-.012.084-.018.127-.028.2-.055.4-.079.608a.348.348,0,0,1-.007.062c-.027.223-.049.449-.071.676a1.028,1.028,0,0,1-.012.143c-.019.2-.034.407-.048.613l-.009.1c-.014.231-.026.467-.037.7a1.2,1.2,0,0,1-.006.132c-.007.2-.014.406-.019.607,0,.052,0,.1,0,.155,0,.239-.008.482-.006.737a.377.377,0,0,1,0,.1c0,.218,0,.435.009.652.006.063,0,.122,0,.18.006.247.014.493.025.736l.008.081c.02.224.024.448.038.676l.017.194.068.758h0c.787,8.709,4.369,15.08,8.527,15.221.292,0,.537.373.583.886l.5,5.659c.05.568.351.9.673.753l.931-.434a1.313,1.313,0,0,0,.5-1.253l-.472-5.427a1.279,1.279,0,0,1,.39-1.137c4.521-2.67,7.044-9.99,5.555-17.151-1.028-5.1-3.752-9.88-7.076-12.368a2.29,2.29,0,0,0-2.748-.339Zm7.722,19.68a10.271,10.271,0,0,1-3.507,6.231c-.3.23-.661-.007-.8-.534a1.717,1.717,0,0,1-.05-.287l-1.678-19.074c-.093-1.066.312-1.847.9-1.74a.907.907,0,0,1,.418.215c3.611,2.966,5.747,9.345,4.812,14.653q-.045.26-.1.515Z" transform="translate(-637.864 -490.781)"/></g><path class="f" d="M380.883,668.209l.015-.124c.078-.649.245-2.019.493-4,.006-.049.012-.1.018-.147,1.3-10.329,4.737-36.519,9.219-61.6h0C330.345,552.817,363.185,511.6,363.479,463.5c.055-9-8.018-20.512-33.867-12.219s-78.851,34.708-81.752,41.564-13.727,54.492-5.33,90.675l4.058,4.525a27.326,27.326,0,0,0,4.37.857,50.4,50.4,0,0,1-1.333-6.742l0-.032h0c-.082-.583-.162-1.192-.237-1.843h0c0-.024-.006-.045-.009-.069v0c-.084-.722-.16-1.494-.23-2.3l-.018-.2v-.006c-.063-.732-.121-1.485-.168-2.281v-.015c-.045-.766-.079-1.57-.107-2.392,0,0,0,0,0-.007-.007-.206-.013-.413-.019-.623h0c-.023-.84-.038-1.7-.038-2.595h0v-.04c0-.9.016-1.842.043-2.8h0c.006-.237.012-.472.02-.713v-.005c.033-.945.078-1.911.139-2.905v0c.012-.2.029-.4.043-.6v0q.09-1.311.217-2.676h0c.023-.244.043-.484.068-.732h0a112.391,112.391,0,0,1,1.7-11.185h0c.058-.284.12-.57.18-.857v0c.264-1.253.548-2.521.866-3.814l.01-.046h0c.705-2.861,1.544-5.817,2.543-8.86.286-.872.563-1.719.832-2.546l.191-.591c.2-.611.393-1.214.581-1.8.083-.259.163-.509.244-.763.162-.507.322-1.007.477-1.5.088-.275.173-.546.259-.816q.217-.684.424-1.344l.244-.778c.139-.443.273-.877.406-1.3.07-.226.142-.456.21-.677.145-.469.284-.922.421-1.371.051-.167.1-.34.154-.5q.555-1.824,1.028-3.429c.043-.147.084-.286.127-.431.109-.374.218-.744.321-1.1.054-.186.105-.364.157-.545.089-.309.177-.615.261-.911l.147-.519q.123-.437.24-.855c.044-.156.087-.312.129-.463.077-.278.151-.547.223-.812.039-.141.079-.285.116-.423.076-.279.148-.548.218-.812l.085-.315c.1-.362.188-.712.274-1.046.123-.477.233-.916.338-1.338q.036-.145.071-.285c.1-.4.193-.793.276-1.147.093-.4.173-.755.248-1.094.025-.113.051-.232.074-.339.182-.847.3-1.5.387-2l0-.023q.06-.365.094-.625c.019-.143.032-.259.043-.36l0-.044c.009-.09.015-.163.018-.221l0-.033c0-.05,0-.09,0-.115,0-.007,0-.012,0-.017v-.028s32.26-17.944,59.4-20.883c0,0-.1.42-.294,1.205-.038.155-.079.326-.124.51-.024.1-.048.2-.075.306-.109.444-.236.96-.378,1.538l-.057.231-.158.642c-.034.14-.069.28-.105.426l-.2.815-.068.273c-.076.308-.156.629-.237.957l-.071.286-.33,1.324-.047.188L320.9,490.3l-.074.295q-.151.6-.308,1.231l-.1.395-.325,1.3-.08.316q-.177.706-.363,1.442l-.077.306q-.444,1.758-.929,3.667c-.035.139-.071.283-.107.423-.117.461-.236.926-.356,1.4l-.2.8q-.151.591-.305,1.194l-.189.738-.361,1.408-.163.636q-.541,2.1-1.112,4.3l-.073.28q-.242.932-.489,1.879l-.175.671q-.208.8-.42,1.607-.09.346-.182.695l-.424,1.613-.2.744q-.239.908-.482,1.826l-.123.467q-.306,1.156-.616,2.325l-.2.746-.429,1.609-.247.923q-.2.745-.4,1.493l-.258.958-.378,1.4-.282,1.042-.4,1.454q-.131.48-.261.96-.249.914-.5,1.83l-.148.541-.027.1c-1.792,6.525-3.642,13.082-5.476,19.325,0,.011-.007.023-.01.034l-.017.057c-1.478,5.028-2.946,9.846-4.366,14.284l-.206.643q-.281.871-.558,1.721c-.062.19-.124.381-.186.569q-.355,1.08-.7,2.124c-.047.14-.093.274-.139.412q-.285.846-.566,1.664c-.071.208-.143.414-.214.619q-.279.807-.554,1.584c-.046.127-.091.259-.136.386q-.333.936-.659,1.824c-.061.168-.122.331-.183.5q-.246.665-.488,1.3c-.066.173-.132.347-.2.518-.208.543-.415,1.074-.618,1.584l-.014.037c-.312.783-.647,1.55-.993,2.309-.109.239-.225.474-.337.711-.247.522-.5,1.039-.761,1.549q-.2.393-.41.781-.395.739-.809,1.462c-.136.238-.27.477-.409.713q-.507.857-1.04,1.691c-.081.128-.16.26-.242.387q-.662,1.021-1.359,2.006c-.125.178-.255.35-.381.525q-.518.719-1.05,1.42c-.17.223-.342.443-.515.664q-.492.629-1,1.243c-.177.215-.352.43-.531.642-.37.441-.746.873-1.124,1.3-.141.159-.279.322-.421.48q-.779.866-1.575,1.7c-.107.112-.216.219-.323.33q-.645.666-1.3,1.311c-.186.183-.373.362-.56.543q-.549.531-1.1,1.047-.3.278-.6.552-.568.52-1.139,1.022c-.175.155-.35.312-.526.464-.544.472-1.089.937-1.633,1.387q-.913.755-1.823,1.471c-1.2.943-2.391,1.833-3.562,2.67-.293.209-.579.405-.869.608-.831.581-1.652,1.142-2.453,1.668-3.389,2.226-6.468,3.969-8.873,5.228-.793.415-1.513.778-2.147,1.088s-1.181.569-1.63.776c-.337.155-.6.271-.816.368s-.4.174-.489.213l-.092.039,0,.024v0c0,.01,0,.027,0,.041l0,.012c0,.01,0,.023,0,.036l0,.032,0,.037c0,.018,0,.035,0,.056s0,.069-.005.107c0,.017,0,.031,0,.049s0,.022,0,.032c0,.05,0,.1,0,.159,0,.023,0,.049,0,.073s0,.022,0,.032c0,.041,0,.081,0,.126s0,.071.005.107.005.09.008.137v.021c0,.043.006.086.01.13,0,.015,0,.031,0,.046q.006.069.014.14c0,.043.008.085.014.129,0,.018.005.039.008.057.01.08.02.161.033.246.009.058.02.119.03.179s.019.107.028.161c0,.021.007.039.01.06.012.062.026.127.039.192l.009.041c.013.058.025.117.038.178s.032.137.05.207.032.124.048.188l.012.046c.02.074.039.148.061.224s.051.171.078.257c.039.128.082.258.128.392q.041.12.085.243c.007.018.012.035.019.053.032.086.067.176.1.265l.033.081c.023.059.046.119.071.179.039.095.08.191.122.288s.079.179.12.269.091.2.14.3c.01.021.022.044.033.065q.053.108.107.216c.052.1.1.206.157.311.025.048.054.1.08.146.073.135.145.27.224.408.062.109.13.22.2.33s.119.2.183.3.148.234.225.352q.1.148.2.3c.081.122.165.244.251.367.072.1.148.208.224.312.09.124.178.246.272.372l.027.035c.068.089.141.181.211.271q.276.354.58.717l.026.031c.08.1.159.191.242.288.114.132.236.267.356.4.1.108.2.217.3.327q.189.2.388.412c.045.047.092.094.138.141l.183.188c.139.142.279.283.424.426.11.108.226.216.34.325q.43.41.9.826c.114.1.225.2.343.306.17.147.348.3.525.445.136.114.271.228.41.342q.274.224.558.449l.3.233.142.111c.2.152.4.3.6.458.152.114.309.228.466.343q.566.413,1.171.83l.01.007q.606.417,1.252.838c.177.116.353.231.534.347.247.157.5.315.758.472q.289.178.586.358.39.235.793.471c.209.122.424.244.639.367.277.157.552.315.838.473.177.1.361.2.543.294l.092.05q.822.444,1.694.891c.233.119.463.238.7.358.316.158.642.316.968.474l.154.074c.2.1.406.2.614.3.331.157.669.314,1.01.472.271.124.547.249.824.374.348.157.7.313,1.056.47.108.048.221.095.331.142l.537.23q1,.425,2.043.849l.248.1c.228.093.454.185.687.278.384.152.782.3,1.176.454.332.127.662.255,1,.382.408.153.824.306,1.243.459l.472.17.57.205c.428.152.857.3,1.3.456.191.066.388.132.583.2l.535.181c.441.149.879.3,1.332.446.5.163,1.009.325,1.519.486q1.064.338,2.168.673c.434.132.866.264,1.309.395.475.141.961.28,1.447.42.441.127.885.253,1.336.379l.012,0q.752.211,1.519.42c.385.1.778.209,1.171.313l.246.066c.515.136,1.027.274,1.554.409.543.14,1.1.278,1.657.417q1.288.322,2.619.639c.588.141,1.175.281,1.776.421.545.126,1.1.251,1.661.375.5.113,1.01.226,1.522.338l.173.038q.868.19,1.753.377c.581.123,1.169.245,1.76.367s1.186.244,1.79.365c.359.072.727.142,1.093.213l.9.176c.56.108,1.111.218,1.681.325h0l.038.007q1.663.313,3.384.618c.533.094,1.076.188,1.616.281q1.135.2,2.291.39c.562.094,1.126.188,1.7.281.906.147,1.827.293,2.755.437.427.066.844.134,1.276.2,1.3.2,2.618.392,3.956.583.535.077,1.08.152,1.622.228q1.4.2,2.82.386c.561.075,1.123.15,1.691.224q1.777.231,3.6.455c.309.038.611.078.923.115,1.5.182,3.028.359,4.574.533.516.058,1.04.115,1.561.172q1.719.189,3.476.371l1.6.166c1.541.156,3.1.309,4.686.457l.377.036c1.712.159,3.458.313,5.223.463.52.044,1.048.087,1.573.131q1.995.166,4.035.323c.543.042,1.083.084,1.63.125,1.85.139,3.719.275,5.624.4l.028-.233C380.876,668.265,380.879,668.239,380.883,668.209Z" transform="translate(97.958 -292.006)"/><path class="k" d="M328.263,659.849s-.565-53.184,17.092-105.041-39.71-16.659-5.282-102.065c5.712-14.169-19.839-18.432-48.11-7.828-30.627,11.488-64.854,38.3-77.016,31.3-1.77,2.05-4.318,6.913-5.081,18.217-1.224,18.129.365,24.115-.636,49.113-.271,6.748-1.973,25-.564,29.523,0,0,13.826,9.293,24.074,10.347,0,0-6.79-22.49,3.669-54.35,9.566-29.14,9.331-33.318,9.331-33.318S278,477.8,305.138,474.86c0,0-18.65,76.95-29.51,104.143s-42.884,40.37-42.884,40.37S228.134,647.719,328.263,659.849Z" transform="translate(116.177 -286.512)"/><path class="l" d="M203.514,787.208c2.036,1.863,3.743,2.937.908-3.253s-6.946-12.391-3.606-23.943c0,0,1.362.357,2.939.782,1.553.418,3.315.9,4.19,1.179,1.591.5,3.048,1.012,4.388,1.521,9.082,3.455,12.557,6.865,12.557,6.865s-.539,2.247,2.26,5.818,14.289,16.759,14.9,17.721,4.176,2.2-.726,10.658-7.18,16.581-20.161,14.362-30.393-7.884-25.765-20.735S201.477,785.345,203.514,787.208Z" transform="translate(124.026 -473.459)"/><path class="i" d="M242.049,793.9c-.61-.963-12.1-14.151-14.9-17.721s-2.261-5.818-2.261-5.818-3.475-3.41-12.556-6.865c-1.339-.51-2.8-1.02-4.388-1.521-.875-.276-2.637-.761-4.19-1.179-1.577-.425-2.939-.782-2.939-.782-3.339,11.553.772,17.753,3.606,23.943s1.128,5.116-.908,3.253-3.489-1.877-8.116,10.974,12.784,18.515,25.765,20.735,15.258-5.908,20.161-14.362S242.66,794.86,242.049,793.9Z" transform="translate(124.026 -473.459)"/><g transform="translate(391.262 240.692)"><g transform="translate(0)"><path class="j" d="M371.677,874.153a5.5,5.5,0,0,1-.365.7,7.309,7.309,0,0,0-.378.94c-.071.218-.187.577-.026.777a7.371,7.371,0,0,0,2.012.736q.333-1,.671-1.991c.148-.436.306-.635.8-.49l.809.235c.6.175.737.369.535.945q-.341.973-.678,1.947,3.33.98,6.582,1.956c.516.154.858.349.619.962q-.241.619-.481,1.238c-.206.532-.541.5-.991.362q-3.246-.986-6.58-1.978l-.2.6c-.148.44-.5.378-.858.271l-.859-.256c-.7-.208-.381-.724-.212-1.242l-.822-.243a4.051,4.051,0,0,1-2.224-1.221c-.893-1.154-.547-2.505-.142-3.785.122-.39.441-1.392.937-1.536a.9.9,0,0,1,.476.03l.148.042C370.871,873.269,371.875,873.557,371.677,874.153Zm2.013-3.9-.26.756c-.246.717-.467,1.025-1.309.785l-.74-.211c-.678-.193-.848-.522-.644-1.142q.155-.468.31-.935a.893.893,0,0,1,1.079-.577.884.884,0,0,1,.131.043l.749.211C373.6,869.35,373.9,869.631,373.69,870.251Zm11.488,3.306-.3.753c-.287.715-.525,1.022-1.337.784q-3.976-1.167-8.055-2.34c-.671-.193-.832-.522-.616-1.141l.327-.935a.907.907,0,0,1,1.085-.576.889.889,0,0,1,.129.043q4.128,1.175,8.161,2.345c.578.168.857.449.608,1.067Z" transform="translate(-368.471 -777.562)"/><path class="j" d="M400.272,854.511a21.808,21.808,0,0,1-1.3,2.8c-.329.574-.6.448-1.193.278l-.378-.108c-.469-.109-.951-.316-.739-.853a10.028,10.028,0,0,1,.538-1c.331-.659.65-1.344.928-2.041s.4-.993-.4-1.216a1.33,1.33,0,0,0-.758-.083,14.8,14.8,0,0,0-1.711,2q-.439.522-.933,1a2.665,2.665,0,0,1-2.939.733c-3.286-.929-2.52-2.991-1.623-5.442.182-.5.357-.978.586-1.46.327-.7.587-.938,1.444-.7.638.175,1.378.336,1.086,1.112-.127.339-.326.68-.474,1.013a13.506,13.506,0,0,0-.684,1.569c-.282.756-.539,1.139.409,1.405a.7.7,0,0,0,.459.017,13.412,13.412,0,0,0,1.945-2.232c1.16-1.4,2.018-1.977,3.934-1.445C401.424,850.66,401.276,852.055,400.272,854.511Z" transform="translate(-380.419 -765.583)"/><path class="j" d="M389.725,833.311q-.137.372-.274.745c-.264.718-.5,1.027-1.393.785l-.784-.212c-.718-.194-.893-.528-.672-1.144l.338-.94a.966.966,0,0,1,1.159-.552,1,1,0,0,1,.115.037l.789.212C389.642,832.392,389.951,832.694,389.725,833.311Zm12.222,3.327-.3.745c-.292.718-.541,1.026-1.414.785q-4.267-1.18-8.6-2.359c-.713-.194-.882-.527-.654-1.144l.35-.94a.976.976,0,0,1,1.163-.552.947.947,0,0,1,.114.038q4.37,1.18,8.678,2.36c.626.15.92.452.669,1.068Z" transform="translate(-378.978 -756.051)"/><path class="j" d="M415.524,814.726a15.738,15.738,0,0,1-.582,1.723c-1.572,3.91-3.32,4.15-7.483,3.025s-5.479-2.2-4.033-6.093a15.275,15.275,0,0,1,.745-1.666c.29-.584.429-1.093,1.184-.895l.05.013c.575.151,1.8.472,1.525,1.192a5.517,5.517,0,0,1-.388.758,15.255,15.255,0,0,0-.89,1.832c-.317.841-.193,1.044.627,1.457a11.949,11.949,0,0,0,2.2.765,20.616,20.616,0,0,0,2.2.5c1.045.19,1.277-.089,1.618-.957a14.028,14.028,0,0,0,.563-1.949,5.011,5.011,0,0,1,.216-.806.647.647,0,0,1,.414-.421,5.062,5.062,0,0,1,1.641.173C415.928,813.618,415.7,814.083,415.524,814.726Z" transform="translate(-388.497 -743.715)"/><path class="j" d="M424.1,790.371q-.209.561-.419,1.122c-.172.459-.566.49-1.049.364a4.908,4.908,0,0,1,0,3.265c-.756,1.96-2.32,2.544-4.515,1.964-2.5-.659-2.858-2.181-2.37-4.206a17.174,17.174,0,0,1,.753-2.595c-.93-.241-2.186-.695-2.594.426a11.966,11.966,0,0,0-.575,3.008,1.709,1.709,0,0,1-.106.5c-.26.7-1.022.368-1.6.218a.791.791,0,0,1-.765-.813,13.139,13.139,0,0,1,.745-3.4,4.181,4.181,0,0,1,2.1-2.587,6.561,6.561,0,0,1,4.047.213q2.825.73,5.643,1.461C424.077,789.482,424.33,789.767,424.1,790.371Zm-5.518.432c-.141.315-.29.651-.409.972a8.766,8.766,0,0,0-.4,1.28c-.175.879.01,1.293,1.01,1.555.553.145,1.574.322,1.826-.34a4.091,4.091,0,0,0-.147-2.987Z" transform="translate(-393.16 -730.091)"/><path class="j" d="M424.225,775.223q-.128.361-.258.723c-.259.723-.5,1.034-1.43.794q-6.986-1.8-14-3.6c-.75-.192-.914-.52-.7-1.138l.312-.9a.944.944,0,0,1,1.123-.573,1.049,1.049,0,0,1,.153.046q7.02,1.79,14.031,3.59C424.106,774.335,424.447,774.6,424.225,775.223Z" transform="translate(-391.344 -720.263)"/><path class="j" d="M437.6,753.41a14.378,14.378,0,0,1-.455,1.735c-1.3,3.933-3.114,4.182-7.461,3.07s-5.715-2.18-4.435-6.092a15.031,15.031,0,0,1,.669-1.677c.261-.583.373-1.1,1.142-.9l.051.013c.586.149,1.833.464,1.6,1.187a5.148,5.148,0,0,1-.347.761,14.926,14.926,0,0,0-.8,1.836c-.276.844-.142,1.053.718,1.458a12.854,12.854,0,0,0,2.289.757c.747.19,1.506.362,2.279.491,1.08.19,1.3-.1,1.587-.968a12.841,12.841,0,0,0,.429-1.954,4.886,4.886,0,0,1,.158-.809.585.585,0,0,1,.385-.42,5.279,5.279,0,0,1,1.675.162C437.919,752.3,437.722,752.769,437.6,753.41Z" transform="translate(-401.268 -708.031)"/><path class="j" d="M444.525,730.918c-.951,3.358-3.617,4.053-7.294,3.12s-5.557-2.751-4.573-6.12,3.5-4.026,7.193-3.094S445.471,727.526,444.525,730.918Zm-8.175-3.831c-.872.166-1.019.776-1.215,1.458s-.373,1.283.271,1.834a6.93,6.93,0,0,0,2.6,1.079,7.269,7.269,0,0,0,2.833.294c.832-.17,1.015-.8,1.2-1.462s.383-1.283-.269-1.834a7.054,7.054,0,0,0-2.612-1.047,7.591,7.591,0,0,0-2.8-.339Z" transform="translate(-405.699 -693.435)"/><path class="j" d="M451.717,701.6q-.11.559-.225,1.119c-.095.462-.469.491-.954.368a5.156,5.156,0,0,1,.493,3.255c-.446,1.961-1.917,2.555-4.153,1.989-2.544-.643-3.065-2.162-2.842-4.185a17.217,17.217,0,0,1,.394-2.591c-.923-.235-2.176-.681-2.432.438a12.16,12.16,0,0,0-.2,3,1.661,1.661,0,0,1-.047.5c-.174.7-.955.374-1.532.227a.882.882,0,0,1-.829-.807,13.355,13.355,0,0,1,.35-3.395,3.608,3.608,0,0,1,1.7-2.592c1.171-.524,2.577-.137,3.863.192q2.78.711,5.583,1.423C451.547,700.714,451.836,701,451.717,701.6Zm-5.221.441c-.092.315-.189.65-.261.971a8.419,8.419,0,0,0-.218,1.278c-.053.878.179,1.29,1.187,1.546.558.141,1.579.312,1.73-.35a4.374,4.374,0,0,0-.569-2.977Z" transform="translate(-409.766 -678.43)"/><path class="j" d="M456.72,677.753a13.158,13.158,0,0,1-.134,1.711c-.563,3.895-2.282,4.154-6.516,3.065-4.252-1.087-5.609-2.146-4.922-6.029a14.782,14.782,0,0,1,.393-1.657c.161-.581.192-1.085.919-.893l.048.013c.553.147,1.736.457,1.63,1.172a4.575,4.575,0,0,1-.21.753,14.417,14.417,0,0,0-.483,1.823c-.142.837.008,1.043.86,1.443a13.269,13.269,0,0,0,2.233.74c.722.186,1.454.354,2.193.483,1.036.185,1.2-.1,1.331-.962a12.3,12.3,0,0,0,.091-1.937,4.9,4.9,0,0,1,.016-.8.462.462,0,0,1,.286-.419,4.764,4.764,0,0,1,1.565.16C456.823,676.653,456.724,677.116,456.72,677.753Z" transform="translate(-413.026 -664.008)"/><path class="j" d="M453.01,653.19q-.019.521-.043,1.042c-.027.569-.468.594-1.027.446q-2.819-.746-5.6-1.494a5.455,5.455,0,0,0-1.705-.322c-.214.123-.211.388-.229.585a4.869,4.869,0,0,0,.763,2.677q3.255.868,6.562,1.734c.622.163.991.421.937,1.035q-.046.524-.1,1.048c-.052.535-.41.625-.949.484q-6.808-1.769-13.41-3.544c-.7-.188-.895-.508-.8-1.123q.066-.445.129-.89a.683.683,0,0,1,.89-.566.961.961,0,0,1,.142.045q1.992.542,4.006,1.083a6.725,6.725,0,0,1-.45-2.862c.184-1.834,1.235-2.761,3.287-2.2q3.286.9,6.637,1.794C452.663,652.323,453.032,652.58,453.01,653.19Z" transform="translate(-408.607 -650.203)"/></g></g><path class="u" d="M70.015,292.964c-.816-1.132-2.381.619-4.392,2.862,1.494-1.844,3.583-4.9,3-6.766-1.007-3.228-2.723-10.18-5.368-12.212-7.918-6.085-9.818-5.581-15.636-5.609s-11.288,12.873-11.288,12.873l-8.52,9.262s-4.481-4.227-1.145-7.31c2.54-2.348,7.366-4.777,5.713-7.8s-12.469,3.181-13.941,8.458-3.085,18.958-3.085,18.958c-19.006,3.8-29.713,12.652-40.69,12.548-23.36-.224-30.039-2.028-30.039-2.028h0c9.041-11.362,16.758-20.957,12.031-48.111-.1-.568-.216-1.161-.34-1.767a32.179,32.179,0,0,0-.675-7.89,25.246,25.246,0,0,0-3.854-9.3c-2.95-10.611-8.52-25.267-7.931-34.415h0a24.951,24.951,0,0,1,.983-10.528c2.6-7.779,9.069-11.591,13.94-11.295.705.043.7.42,2.566,1.184a115.4,115.4,0,0,0,12.7,4.144l.067.016c.264.063.518.12.768.174.565.122,1.094.221,1.568.288h0c1.628.23,10.557-1.291,8.886-10.066a6.192,6.192,0,0,1,.516-3.9c2.744-.359,2.787-2.051,2.255-2.876-.01-.017-.023-.03-.034-.046a1.288,1.288,0,0,0-.086-.115,1.1,1.1,0,0,0-.134-.131c-.394-.323-.734-.618-1.027-.886-2.82-2.586-1.249-2.733-1.249-2.733s3.739,2.447,4.765.775c.1-.157.18-.3.259-.436l.05-.087c.063-.112.122-.218.174-.317l.082-.159.046-.092a3.89,3.89,0,0,0,.341-.879l0-.015.006-.03a.543.543,0,0,0,.012-.124c-3.232-4.855,2.8-5.368,2.8-5.368,17.233,2.8-.2-16.274,6.08-26.591s2.768-26.9,2.768-26.9h0C17.075,122.772-1,77.08-38.682,74.167c-36.54-2.825-47.986,16.8-54.708,33.358l-.022.054q-.3.729-.58,1.449l-.015.037c-.139.352-.281.7-.423,1.034-.034.082-.069.164-.1.245q-.43,1.007-.879,1.939l-.106.217q-.454.928-.925,1.781l-.1.187q-.478.854-.973,1.638l-.1.151q-.5.788-1.021,1.509l-.081.113q-.528.727-1.069,1.387l-.066.08q-.551.667-1.113,1.27l-.052.055q-.57.608-1.151,1.156l-.04.038q-.292.274-.585.534h0a31.544,31.544,0,0,1-11.869,6.254h0c-.835.269-1.653.522-2.451.773q-.41.129-.811.258l-.1.033q-.5.162-.991.328l-.008,0c-36.622,12.5-33.457,67.186-33.457,67.186h0c.624.075,1.233.122,1.823.149l.261.011c.427.015.844.019,1.249.014h.04a24.86,24.86,0,0,0,6.4-.882c-3.275,11.648-11.127,16.117-11.127,16.117h0s.725-.017,2.008-.155q-.713.27-1.417.531c-.344.128-.686.253-1.026.377s-.682.248-1.02.369c-2.6.934-5.058,1.76-7.247,2.442-12.288,3.833-54.038,31.731-69.137,43.027-1.562,1.169-2.839,2.16-3.768,2.928,0,0-.022.007-.064.024l-.077.035-.049.024c-.035.018-.074.038-.118.063a3.893,3.893,0,0,0-.4.26c-.062.046-.128.1-.2.152l-.106.088c-.072.061-.146.128-.223.2-.039.036-.078.074-.118.113-.1.1-.2.206-.309.324s-.217.246-.33.386c-.045.056-.09.114-.136.173-.072.094-.145.193-.218.3-.133.185-.269.387-.406.6-.078.123-.155.25-.234.384-.067.114-.134.235-.2.357s-.126.233-.189.354q-.066.128-.132.262-.135.273-.27.569l-.026.058q-.078.173-.156.354l-.026.061q-.178.417-.353.88l-.032.086q-.068.184-.137.375c-.015.043-.031.086-.046.13q-.065.185-.129.378l-.04.119c-.056.169-.111.341-.165.518v0c-.053.17-.1.346-.157.524l-.048.168q-.055.194-.11.394l-.052.194c-.037.14-.074.284-.111.428l-.041.162q-.074.3-.146.607c-.01.043-.02.088-.029.131-.038.166-.076.335-.112.506-.016.074-.032.15-.048.226-.031.149-.062.3-.093.452l-.046.235q-.051.261-.1.531l-.031.17q-.063.354-.124.721c-.01.061-.02.124-.03.185q-.045.282-.089.572l-.039.262q-.039.271-.078.549c-.011.085-.023.17-.035.255q-.046.353-.091.716c0,.035-.009.069-.013.1-.034.28-.066.565-.1.855-.008.076-.015.153-.023.229q-.034.329-.066.666-.013.141-.026.283-.031.335-.059.679l-.021.257c-.025.315-.048.634-.071.96-.4,5.948-.5,10.589-.487,15.024,0,.845.009,1.682.019,2.519.091,8.163.442,16.337-.168,31.57-.194,4.85-1.129,15.645-1.116,23.011,0,.641.009,1.255.026,1.838.034,1.2.1,2.253.217,3.125a9.487,9.487,0,0,0,.309,1.549h0c-3.339,11.552.772,17.753,3.606,23.943,1.662,3.63,1.762,4.76,1.15,4.7a5.646,5.646,0,0,1-2.058-1.447,2.585,2.585,0,0,0-1.663-.888c-1.442.035-3.127,2.625-6.453,11.862-4.628,12.851,12.784,18.515,25.765,20.735.064.011.124.018.188.028-6.33,8.236-15.726,24.21-13.02,43.977,0,0-2.153,21.714-15.962,38.774-9.493,11.729-18.513,27.228-24.107,39.36-.436.945-.846,1.865-1.239,2.766q-.187.428-.366.848a70.289,70.289,0,0,0-3.621,10.173,25.862,25.862,0,0,1-2.79,6.7A51.493,51.493,0,0,1-296.068,575.4s-.968.3-4.926-.8c-.548-.153-2.25-.4-4.777-.689l-.748-.085c-1.323-.149-2.837-.309-4.508-.475l-.53-.052-1.05-.1-.151-.015c-18.574-1.782-52.717-4.069-57.288-1.214a1.4,1.4,0,0,0-.352.3.761.761,0,0,0-.091.143.721.721,0,0,0-.034.073s-34.076,3.189-51.072,5.94-31.3,5.938-38.251,3.43h0l-.091-.113c-1.222-1.527-14.737-18.142-29.843-24.983a13.973,13.973,0,0,1,2.066,1.951l-2.066-1.951s-17.716-9.778-37.308,25.878c0,0,.391,14.544-12.491,20.262s-23.12,15.952-27.533,36.432c-1.818,8.438-5.031,38.14,18.527,41.513l1.6-2.589a27.834,27.834,0,0,0-.348,3.367s12.085,1.966,27.853-27.159l.014-.025a35.876,35.876,0,0,0,13.277-5.239q.69-.455,1.375-.962a27.229,27.229,0,0,0,5.072-4.84,30.8,30.8,0,0,0,13.549-1.479l.077-.029q.791-.3,1.578-.657.4-.186.8-.392c.119-.061.237-.124.355-.187a19.64,19.64,0,0,0,1.691-1.024,18.375,18.375,0,0,0,7.037-9.158c.148-.4.3-.8.449-1.191.411-1.061.832-2.071,1.258-3.052,5.013-2.612,28.176-11.581,95.615-.607h0s.892-.046,2.524-.1q.538-.018,1.18-.038l.679-.02c3.736-.1,9.644-.2,16.871-.078q1.355.023,2.77.056t2.884.078c1.892.058,3.849.132,5.858.224,14.626.67,32.034,2.316,47.592,6.06,0,0,23.173,12.964,39.782-12.834s25.585-28.467,36.114-35.5c19.84-13.242,40.639-41.2,58.263-75.56.007.008,12.888,16.332,28.38,34.138,10.481,12.047,22.157,24.771,31.852,33.582a112.853,112.853,0,0,1,22.523,27.647c5.014,8.847,6.432,14.758,6.432,14.758s-2.3,5.639-5.329,14.04a329.882,329.882,0,0,0-11.5,38.284c-1.823,8.258-2.939,16.075-2.651,22.192,0,0-7.285,64.548-14.5,89.117-.014-.013-8.439-7.478-16.734,19.036-2.894,9.249-3.547,16.18-2.682,21.3-.127.107-20.7,17.485,9.506,20.566a26.4,26.4,0,0,0,15.487-1.95c7.486-3.667,22.56,8.256,22.56,8.256s31.861,7.6,42.991,7S5.688,853.422-.046,828.125l-.66.063c-2.082-8.294-18.229-6.661-18.229-6.661l-.172-.116h0c-1.463-.985-15.237-10.208-23.706-13.926l-.032-.014-.444-.192-.056-.024-.4-.167-.085-.035-.361-.144-.106-.041c-.112-.043-.223-.085-.332-.125l-.115-.043-.307-.109-.125-.043c-.1-.033-.19-.064-.283-.094l-.13-.043c-.089-.028-.176-.054-.262-.08l-.133-.04c-.086-.025-.169-.047-.251-.069l-.125-.034c-.086-.022-.169-.042-.252-.061l-.105-.025q-.174-.038-.338-.068c-.159-.028-.316-.066-.472-.109l-.1-.027c-.155-.045-.309-.1-.462-.153l-.043-.017q-.231-.09-.458-.2l-.031-.015c-2.179-1.054-4.1-3.372-5.687-5.945q-.42-.679-.809-1.375c-.088-.159-.175-.317-.261-.476a56.031,56.031,0,0,1-3.715-8.735s.051-.138.117-.372c.033-.114.068-.252.1-.41a8.592,8.592,0,0,0,.149-.847,7.571,7.571,0,0,0,.06-1,5.507,5.507,0,0,0-.339-1.9,4.323,4.323,0,0,0-.28-.6c-.733-1.291-2.246-2.364-5.208-2.533l-4.749-.27-.626-.036-.511-.029-2.207-.125h-.06a6.292,6.292,0,0,1,3.376-.319s13.081-51.984,23.638-77.472l.008-.02a24.16,24.16,0,0,0,2.686.414c3.208.062,14.68-61.967,23.271-78.037s5.319-32.691,5.319-32.691-8.281-19.735-11.145-27.556-20.333-50.2-40.278-77.345c-5.552-7.556-9.854-13.8-13.175-18.889l0-.006c-8.266-12.661-10.457-18.12-10.609-18.507l-.01-.025h0l.028-.233c0-.026.006-.052.01-.082l.015-.124c.078-.649.245-2.019.493-4,.006-.049.012-.1.018-.147,1.3-10.329,4.737-36.519,9.219-61.6h0c1.621-9.074,3.378-18,5.22-25.976h0c13.21.272,27.743-2.657,40.419-6.116,8.435-2.3,16.048-4.836,21.9-6.82,15.569-5.281,44.978-19.343,44.978-19.343.556-.086,1.1-.185,1.629-.289l.334-.066q.771-.158,1.511-.339l.245-.063q.675-.171,1.324-.361l.231-.067c.467-.14.923-.288,1.371-.441l.3-.1c.451-.16.9-.323,1.328-.5l.019-.008c.428-.172.844-.352,1.254-.535l.269-.121q.6-.274,1.169-.563c.07-.035.137-.071.206-.107q.516-.266,1.011-.542l.191-.106q.539-.306,1.053-.625l.239-.15c.345-.217.685-.436,1.014-.66h0c8.256-5.611,11.674-13.236,15.138-14.787C69.1,302.621,71.2,294.613,70.015,292.964ZM-98.851,139.248l.006.026c2.9,2.356,3.831,8.489,4.922,11.517.012.034.024.068.036.1s.033.086.049.128.039.1.059.151l.045.108c.023.054.046.106.069.157.013.028.025.057.038.084.034.072.068.142.1.208l.006.012c3.272,6.147,7.295,8.967,11.111,9.785a11.9,11.9,0,0,0,1.208.194q.177.019.353.033c-2.678,13.938-7.949,15.579-7.949,15.579h0s-13.969,5.4-23.495,11.182l-.01.006-.11.067c9.251-18.2,4.879-47.248,4.879-47.248h0c.056-.048.1-.075.16-.122l0-.008C-103.36,137.809-100.7,137.753-98.851,139.248Zm-120.6,231.545h0a50.484,50.484,0,0,1-1.333-6.742l0-.032h0c-.082-.583-.162-1.192-.237-1.843h0c0-.024-.006-.045-.009-.069v0c-.084-.722-.16-1.494-.23-2.3l-.018-.2V359.6c-.063-.732-.121-1.485-.168-2.281h0V357.3c-.045-.766-.079-1.57-.107-2.392,0,0,0,0,0-.007-.007-.206-.013-.413-.019-.623h0c-.023-.84-.038-1.7-.038-2.595h0v-.04c0-.9.016-1.842.043-2.8h0c.006-.237.012-.472.02-.713v-.005c.033-.945.078-1.911.139-2.905v0c.012-.2.029-.4.043-.6v0q.09-1.312.217-2.676h0c.023-.244.043-.485.068-.732h0a112.392,112.392,0,0,1,1.7-11.185h0c.058-.284.12-.57.18-.857v0c.264-1.253.548-2.521.866-3.814l.01-.046h0q.257-1.043.539-2.1l.037-.139q.546-2.046,1.189-4.153.063-.209.129-.419c.21-.678.424-1.359.65-2.046,5.078-15.468,7.394-23.9,8.449-28.412l0-.011,0-.01a27.391,27.391,0,0,0,.877-4.839h0v0c0-.028,0-.042,0-.042s21.874-12.166,44.75-18.1l.679-.175q.934-.237,1.869-.459a98.609,98.609,0,0,1,12.1-2.147l-.2.839-.09.366-.028.113c-.063.258-.135.553-.215.881l-.219.889q-.065.263-.134.546l-.038.155-.158.642c-.034.14-.069.28-.105.426l-.131.53-.112.453c-.009.035-.017.069-.026.1-.076.308-.156.629-.237.957l-.05.2-.046.187-.175.7-.211.848-.276,1.1-.074.295-.3,1.2-.017.067c-.03.118-.06.237-.089.356l-.325,1.3-.08.316-.338,1.344c-.03.119-.061.239-.091.359l-.011.044q-.444,1.758-.929,3.667c-.035.139-.071.283-.107.423-.117.461-.236.926-.356,1.4l-.2.8q-.151.591-.305,1.194l-.189.738-.361,1.408-.163.636q-.541,2.1-1.112,4.3l-.073.28q-.242.932-.489,1.879l-.175.671q-.208.8-.42,1.607-.09.346-.182.695l-.423,1.613-.2.744q-.239.908-.482,1.826l-.123.467q-.3,1.128-.6,2.268l-.053.2-.161.6-.429,1.609-.247.923q-.2.745-.4,1.493l-.258.958-.378,1.4q-.141.519-.281,1.039v0l-.4,1.453c-.087.32-.174.639-.261.96q-.249.914-.5,1.83l-.115.422-.057.209,0,.007q-.335,1.218-.672,2.438l-.006.023q-.335,1.21-.672,2.42l-.007.025c-.9,3.243-1.817,6.473-2.731,9.647l-.021.073q-.334,1.16-.669,2.31l-.016.056q-.341,1.173-.682,2.333v.005l-.018.063-.007.023q-.553,1.881-1.1,3.719l-.005.016c-1.1,3.682-2.193,7.223-3.258,10.549l-.206.643q-.281.871-.558,1.722c-.062.19-.124.381-.186.569q-.355,1.08-.7,2.124c-.047.139-.093.274-.139.412q-.285.846-.566,1.664c-.071.208-.143.414-.214.619q-.279.807-.554,1.584c-.046.127-.091.259-.136.386q-.333.936-.659,1.824c-.061.168-.122.331-.183.5q-.246.665-.488,1.3c-.066.173-.132.347-.2.518-.208.543-.415,1.074-.618,1.584l-.007.019-.008.018c-.009.023-.02.047-.029.07-.3.758-.628,1.5-.964,2.239-.109.239-.225.474-.337.711-.247.522-.5,1.039-.761,1.549q-.2.393-.41.781-.395.739-.809,1.462c-.136.238-.27.477-.409.713q-.507.857-1.04,1.691c-.081.128-.16.26-.242.387q-.662,1.021-1.359,2.006c-.125.178-.255.35-.381.525q-.518.719-1.05,1.42c-.17.223-.342.443-.515.664q-.492.629-1,1.243c-.177.215-.352.43-.531.642-.37.441-.746.873-1.124,1.3-.141.16-.279.322-.421.48q-.779.866-1.575,1.7c-.107.112-.216.219-.323.33q-.645.666-1.3,1.311c-.186.183-.373.363-.56.543q-.549.531-1.1,1.047-.3.278-.6.552-.568.52-1.139,1.022c-.175.155-.35.312-.526.464-.544.472-1.089.937-1.633,1.387q-.913.755-1.823,1.471t-1.791,1.374l0,0c-.213.159-.422.307-.634.463a11.345,11.345,0,0,0-1.351-1.6c-.61-.962-12.1-14.151-14.9-17.721s-2.261-5.817-2.261-5.818Z" transform="translate(568.362 -73.894)"/></g><g transform="translate(208.548 22.64)"><g transform="translate(0)"><path class="v" d="M663.451,125.981a6.612,6.612,0,0,0-1.934-4.083,6.143,6.143,0,0,0-.048-4.706c-2.089-5.942-6.137-10.538-12.372-14.052l-.081-.047a5.418,5.418,0,0,0-4.122-.762c-2.064-3.3-5.5-4.632-7.122-5.265-9.886-3.848-19.818-3.672-27.366-3.088l-.094.008a11.478,11.478,0,0,0-2,.287c-.088,0-.179,0-.27,0a5.852,5.852,0,0,0-4.828,1.949q-.06.075-.117.152c-2.358-.621-5.021-.239-8.161,1.092a28.9,28.9,0,0,0-8.066,4.783,7.3,7.3,0,0,0-2.325,3.259,6.414,6.414,0,0,0-2.093.882,22.226,22.226,0,0,0-6.141,5.68c-6.933,9.706-9.374,19.352-7.46,29.487a16.479,16.479,0,0,0,5.709,10.031,12.951,12.951,0,0,0,5.249,2.7,7.965,7.965,0,0,0,.841,3.548c2.83,6.016,8.75,7.1,10.7,7.462q.342.063.689.117a29.365,29.365,0,0,0,5.827.286,5.129,5.129,0,0,0,1.317,6.2,5.794,5.794,0,0,0,2.855,1.369c1.5.233,3.43-.158,5.619-2.195l.2-.182a48.75,48.75,0,0,0,7.064-8.535c.308-.438.616-.875.927-1.312q.617-.865,1.24-1.726.674-.934,1.344-1.871l.054-.061a6.648,6.648,0,0,0,1.179-1.842c9.781,2.705,19.278-1.158,24.522-10.128a9.657,9.657,0,0,0,.888-1.986,6.858,6.858,0,0,0,1.895-.283,31.422,31.422,0,0,0,12.966-6.833A11.378,11.378,0,0,0,663.451,125.981Zm-45.766-11.946a5.754,5.754,0,0,0,2.984.349,5.73,5.73,0,0,0,1.866,3.39,12.532,12.532,0,0,0-2.079,2.041,23.667,23.667,0,0,0-4.274-1.581,9.031,9.031,0,0,0,.378-1.769,18.536,18.536,0,0,0,.1-2.936A6.135,6.135,0,0,0,617.685,114.036Zm-21.647,26.931a29.341,29.341,0,0,0,3.5,1.078,5.472,5.472,0,0,0-.185,1.8q-1.972.063-3.99.241c.084-.159.161-.322.23-.487A5.929,5.929,0,0,0,596.038,140.966Zm6.469-23.5a7.725,7.725,0,0,1,2.556-.322,6.187,6.187,0,0,0,.284,1.242,22.708,22.708,0,0,0-4.8,2.061,7.253,7.253,0,0,0-3.641,4.217,5.736,5.736,0,0,0,.423,4.044,15.109,15.109,0,0,1-3.732-3.762c1.739-.381,4.356-1.71,4.415-6.258q.006-.463,0-.914A6.322,6.322,0,0,0,602.508,117.468Zm-4.229-12.128c1.99-.844,2.583-.706,2.643-.688s.419.153,1.166,1.1a18.754,18.754,0,0,0-3.7,1.064,7.1,7.1,0,0,0-2.852,1.981,14.313,14.313,0,0,0-1.112-1.532A27.894,27.894,0,0,1,598.278,105.339Zm-14.094,39.385q.662.452,1.364.837-.7.147-1.4.305c-.1.023-.2.043-.3.062A7.408,7.408,0,0,0,584.184,144.725ZM620.915,147a56.859,56.859,0,0,0-6.38-1.805q.486-.45.931-.943a10.956,10.956,0,0,0,1.368.449l.414.107c3.352.861,4.506,1.329,5.089,2.614Q621.629,147.247,620.915,147Zm3.259-12.2c-.272-.061-.546-.12-.819-.179a12.129,12.129,0,0,1-3.56-1.115,14.412,14.412,0,0,0-5.484-2.023,20.8,20.8,0,0,0-4.778-.127,26.941,26.941,0,0,1-4.617-.026,9.912,9.912,0,0,0,1.251-.809c.083-.061.163-.123.237-.171,3.159-1.952,8.069-1.614,10.3.709a9.683,9.683,0,0,0,8.669,3.042,11.457,11.457,0,0,1,5.741.75A17.322,17.322,0,0,1,624.175,134.8Zm9.749-11.66q-.008.262.008.522-.453-.142-.915-.265a5.4,5.4,0,0,0,.349-3.155q.556.3,1.11.671A5.512,5.512,0,0,0,633.924,123.141Zm15.74-7.373q.124-.727.2-1.461a16.14,16.14,0,0,1,1.094,1.248Q650.313,115.633,649.663,115.768Z" transform="translate(-568.226 -93.662)"/><g transform="translate(4.282 4.281)"><path class="f" d="M661,234.563c-1.382-.205-2.084.038-2.563.7-3.091,4.254-6.72,8.12-9.277,12.755-.451.816-1.5,1.891-.6,2.679,1.131.983,2.178-.209,3.006-.956,2.941-2.652,5.094-5.956,7.373-9.152.872-1.225,1.761-2.438,2.632-3.664.369-.52,1.1-.988.657-1.723A1.538,1.538,0,0,0,661,234.563Z" transform="translate(-619.084 -179.956)"/><path class="f" d="M664.079,130.733c-1.037-.272-1.13.774-1.471,1.379a10.933,10.933,0,0,1-9.99,6.053c-1.009.006-2.235-.023-2.307-1.363-.077-1.416,1.142-1.391,2.164-1.444a8.81,8.81,0,0,0,7.39-4.512c.916-1.48.615-2.183-1.149-2.1-.917.045-1.828.2-2.743.295-.814.084-1.575-.074-1.818-.953-.278-1.009.359-1.612,1.229-1.88a10.424,10.424,0,0,1,6.429-.022c1.646.536,2.236.21,1.6-1.61-1.882-5.353-5.614-9.028-10.438-11.746-.431-.243-.961-.628-1.371-.221-.527.522-.26,1.284-.161,1.924a19.423,19.423,0,0,1-2.309,12.85,9.17,9.17,0,0,1-2.452,2.83,1.44,1.44,0,0,1-2.048.064,1.293,1.293,0,0,1,.033-2.012c2.133-1.824.784-2.963-.7-4.114a14.993,14.993,0,0,0-10.742-3.413c-1.035.087-2.214.23-2.375-1.137-.177-1.509,1.081-1.715,2.2-1.777a17.533,17.533,0,0,1,13.033,4.231q.565.494,1.149.965c.055.044.156.031.472.084a15.862,15.862,0,0,0,.184-11.154c-.887-2.727-3.239-3.979-5.693-4.934-8.237-3.206-16.814-3.481-25.487-2.81a7.462,7.462,0,0,0-1.491.209c-1.015.293-3.075-.305-2.778,1.077a3.437,3.437,0,0,0,3.738,2.691c.911-.126,1.806-.362,2.713-.523a40.3,40.3,0,0,1,21.933,2.532,15.381,15.381,0,0,1,3.022,1.77c.741.507,1.218,1.266.627,2.148s-1.451.691-2.224.22a32.921,32.921,0,0,0-9.875-3.546c-2.54-.6-3.82.323-4.655,2.494-.12.313-.254.621-.373.934-.389,1.017-.7,2.354-2.164,1.8-1.387-.529-.85-1.816-.57-2.841.822-3.01.709-3.16-2.5-2.939-.167.012-.334.023-.5.039-4.9.49-4.884.488-3.856,5.183a19.535,19.535,0,0,1,.535,6.483c-.11.941-.317,1.941-1.524,1.954s-1.61-.937-1.48-1.908c.375-2.824-1.282-3.208-3.48-3.158a13.43,13.43,0,0,0-4.947.659c-.924.379-1.913.505-2.293-.677-.362-1.125.5-1.695,1.39-2.052a13.786,13.786,0,0,1,6.4-.977c2.051.183,2.7-.449,1.635-2.363-.57-1.023-1.033-2.114-1.678-3.087-2.8-4.23-5.107-4.915-9.731-2.954a24.72,24.72,0,0,0-6.905,4.052c-1.2,1.056-1.706,1.747-.07,3.068,3.154,2.547,4.159,6.167,4.107,10.11-.013,1.021-.076,2.2-1.466,2.188-1.223-.01-1.268-1.122-1.4-2.039a12.525,12.525,0,0,0-.18-1.243c-.267-1.073.354-2.675-1.063-3.064-1.115-.306-1.82.987-2.56,1.753-7.5,7.755-6,18.314,3.348,23.607.872.494,1.687,1.019,1.231,2.112s-1.514.931-2.395.613a12.25,12.25,0,0,1-5.732-4.345c-1.411-1.916-2.085-1.222-2.835.465a11.82,11.82,0,0,0-.615,4.444c-.045.95-.121,2.006-1.34,2.056s-1.379-.991-1.466-1.944a11.03,11.03,0,0,1,2.162-8.294,3.048,3.048,0,0,0,.659-3c-2.235-7.978.592-14.249,6.581-19.46.56-.487,1.687-.917.784-1.96a1.926,1.926,0,0,0-2.687-.533,18.044,18.044,0,0,0-4.977,4.571c-5.6,7.847-8.585,16.431-6.738,26.21a12.276,12.276,0,0,0,4.215,7.517,8.272,8.272,0,0,0,7.815,1.75c11.5-2.592,23.061-2.942,34.43,1a16.979,16.979,0,0,0,20.977-7.77,4.225,4.225,0,0,0,.3-4.052,14.88,14.88,0,0,0-15.893-9.362,5.448,5.448,0,0,1-5.113-1.754c-3.712-3.866-10.82-4.356-15.629-1.385-.946.585-1.989,1.846-2.919.242-.78-1.345.43-2.227,1.426-2.793,5.656-3.218,11.41-3.01,17,.048,1.626.889,2.452.926,3.4-.677a8.226,8.226,0,0,1,3.895-3.441,1.426,1.426,0,0,1,1.993.437c.509.8.135,1.453-.485,1.978-.765.647-1.615,1.2-2.346,1.88-.539.5-1.253,1.139-.983,1.909.309.885,1.3.562,2.007.578a17.439,17.439,0,0,1,13.8,6.62,16.953,16.953,0,0,1,2.534,4.319c.453,1.11,1.026,1.61,2.28,1.241,4.141-1.217,8.041-2.858,11.257-5.857a7.111,7.111,0,0,0,2.2-6.617C665.081,131.774,664.895,130.948,664.079,130.733Zm-48.26,10.855A12.063,12.063,0,0,1,623.5,143.1a17.883,17.883,0,0,0,5.707,1.838,22,22,0,0,0,9.463-.077c.966-.2,1.955-.152,2.2,1.032.24,1.161-.615,1.658-1.585,1.861-1.062.223-2.146.337-3.219.508-.706.112-1.684-.274-2,.616-.3.827.527,1.321,1.048,1.843.867.868,2.858,1.5,1.484,3.055-1.338,1.509-2.495-.22-3.606-.956a1.291,1.291,0,0,1-.525-.531c-1.435-4.063-5.05-4.845-8.591-5.761a5.6,5.6,0,0,1-1.619-.673c-1.379-.891-2.328-.688-3.346.7a11.389,11.389,0,0,1-6.657,4.216c-1.006.254-2.136.508-2.562-.753-.45-1.333.682-1.735,1.657-2.023a9.95,9.95,0,0,0,5.077-3.258c-2.22-.058-3.885,0-5.53-.16-7.678-.729-13.994-3.8-17.992-10.718-.551-.954-1.179-2.113.079-2.876,1.192-.723,1.833.438,2.342,1.255C600.091,139.909,607.321,142.216,615.819,141.588Z" transform="translate(-578.479 -103.912)"/><path class="f" d="M626.065,238.248c-.131-1.2-1.642-.8-2.569-.884a40.244,40.244,0,0,0-10.993.5c-1.042.192-2.142.358-2.412-1-.275-1.379.92-1.677,1.878-1.87a41.388,41.388,0,0,1,14.709-.249,6.507,6.507,0,0,0,1.489.192,2.871,2.871,0,0,0,2.568-2.652c.108-1.175-1.432-.655-2.245-.758-1.156-.146-2.338-.09-3.509-.121a74.653,74.653,0,0,0-16.7,1.469c-2.153.452-2.566,1.433-1.664,3.349,1.527,3.246,4.4,4.488,7.6,5.078a27.114,27.114,0,0,0,8,.143,5.02,5.02,0,0,0,1.706-.375C625.08,240.486,626.2,239.469,626.065,238.248Z" transform="translate(-594.605 -178.156)"/></g></g><path class="f" d="M661,234.563c-1.382-.205-2.084.038-2.563.7-3.091,4.254-6.72,8.12-9.277,12.755-.451.816-1.5,1.891-.6,2.679,1.131.983,2.178-.209,3.006-.956,2.941-2.652,5.094-5.956,7.373-9.152.872-1.225,1.761-2.438,2.632-3.664.369-.52,1.1-.988.657-1.723A1.538,1.538,0,0,0,661,234.563Z" transform="translate(-614.801 -175.675)"/><path class="f" d="M626.065,238.248c-.131-1.2-1.642-.8-2.569-.884a40.244,40.244,0,0,0-10.993.5c-1.042.192-2.142.358-2.412-1-.275-1.379.92-1.677,1.878-1.87a41.388,41.388,0,0,1,14.709-.249,6.507,6.507,0,0,0,1.489.192,2.871,2.871,0,0,0,2.568-2.652c.108-1.175-1.432-.655-2.245-.758-1.156-.146-2.338-.09-3.509-.121a74.653,74.653,0,0,0-16.7,1.469c-2.153.452-2.566,1.433-1.664,3.349,1.527,3.246,4.4,4.488,7.6,5.078a27.114,27.114,0,0,0,8,.143,5.02,5.02,0,0,0,1.706-.375C625.08,240.486,626.2,239.469,626.065,238.248Z" transform="translate(-590.323 -173.875)"/><g class="q" transform="translate(4.282 4.284)"><path class="w" d="M591.963,163.045A12.859,12.859,0,0,1,589.5,160.5c-1.411-1.916-2.085-1.222-2.835.465a11.82,11.82,0,0,0-.615,4.444c-.045.95-.121,2.006-1.34,2.056s-1.379-.991-1.466-1.944a11.03,11.03,0,0,1,2.162-8.294,3.048,3.048,0,0,0,.659-3c-2.235-7.978.592-14.249,6.581-19.46.56-.487,1.687-.917.784-1.96a1.926,1.926,0,0,0-2.687-.533,18.038,18.038,0,0,0-4.977,4.571c-5.6,7.847-8.585,16.431-6.738,26.21a12.276,12.276,0,0,0,4.215,7.517,8.272,8.272,0,0,0,7.815,1.75c.89-.2,1.781-.383,2.672-.556C590.968,169.1,591.464,165.087,591.963,163.045Z" transform="translate(-578.479 -120.232)"/><path class="w" d="M606.562,156.854c-.551-.954-1.179-2.113.078-2.876,1.192-.723,1.834.438,2.342,1.255.1.159.2.312.3.467a7.422,7.422,0,0,1,2.622-5.917c-1.223-.01-1.268-1.122-1.4-2.039a12.525,12.525,0,0,0-.18-1.243c-.267-1.073.354-2.675-1.063-3.064-1.116-.306-1.82.987-2.56,1.753-5.978,6.183-6.234,14.146-1.355,19.8a4.815,4.815,0,0,1,3.672-4.68A22.02,22.02,0,0,1,606.562,156.854Z" transform="translate(-592.137 -126.906)"/><path class="w" d="M618.11,114.792c-1.2,1.056-1.706,1.747-.07,3.068a11.093,11.093,0,0,1,4,7.794,12.169,12.169,0,0,1,4.885-4.155c.1-.694.768-1.1,1.46-1.377a14.045,14.045,0,0,1,4.665-1.017,5.037,5.037,0,0,1,2.716-3.583,18.057,18.057,0,0,0-1.02-1.827c-2.8-4.23-5.106-4.915-9.731-2.954A24.722,24.722,0,0,0,618.11,114.792Z" transform="translate(-600.913 -107.282)"/><path class="w" d="M662.526,104.423c-1.015.293-3.075-.3-2.778,1.078a3.437,3.437,0,0,0,3.738,2.691c.911-.126,1.806-.362,2.713-.523a36.378,36.378,0,0,1,5.844-.558,18,18,0,0,1,5.872-2.84,75.036,75.036,0,0,0-13.9-.056A7.492,7.492,0,0,0,662.526,104.423Z" transform="translate(-625.79 -103.92)"/><path class="w" d="M612.576,239.118l-.074.012c-1.042.192-2.142.358-2.412-1-.275-1.379.92-1.677,1.878-1.87.076-.015.153-.026.23-.041a3.925,3.925,0,0,1-.737-2.654c-1.062.169-2.122.355-3.179.577-2.153.452-2.566,1.433-1.664,3.35a8.19,8.19,0,0,0,4.483,4.191A8.51,8.51,0,0,1,612.576,239.118Z" transform="translate(-594.605 -179.421)"/><path class="w" d="M648.56,270.2c.908.789,1.762.176,2.492-.483a7.527,7.527,0,0,1-2.184-1.729C648.389,268.721,647.819,269.558,648.56,270.2Z" transform="translate(-619.084 -199.468)"/></g></g></g></g></svg>