<svg xmlns="http://www.w3.org/2000/svg" width="165.561" height="31.803" viewBox="0 0 165.561 31.803"><defs><style>.a{fill:#00e9c5;}</style></defs><g transform="translate(-24 -22.197)"><path class="a" d="M12.795.539A2.586,2.586,0,0,0,11.252,2.9h0v18a.894.894,0,0,1-1.154.856,9.628,9.628,0,0,1-6.863-9.214v-.532c0-.1.013-.2.021-.3v-.08c.023-.257.059-.514.105-.771l.015-.082c.021-.111.044-.221.067-.332a.447.447,0,0,0,.013-.057c.062-.257.131-.514.213-.771l.015-.051c.039-.121.08-.239.126-.357h0a7.862,7.862,0,0,1,.314-.743l.021-.041c.116-.242.239-.478.373-.707V7.713c.062-.105.126-.208.19-.311.015-.021.028-.041.041-.062.062-.1.126-.19.19-.283l.026-.036c.072-.1.144-.2.218-.3l.069-.087A11.247,11.247,0,0,1,6.323,5.464a6.464,6.464,0,0,1,.514-.429,1.074,1.074,0,0,0,.111-1.614l-.786-.786a1.072,1.072,0,0,0-1.429-.077A12.8,12.8,0,0,0,3.059,4.179h0L3.038,4.2c-.113.134-.224.257-.332.406h0c-.105.131-.206.257-.3.4l-.049.069c-.159.272-.347.56-.527.861l-.046.082c-.175.293-.337.6-.488.907-.015.028-.028.059-.044.09-.067.141-.134.285-.2.429l-.026.033C.961,7.636.9,7.8.838,7.954l-.039.1C.748,8.2.7,8.34.648,8.484l-.023.069c-.051.162-.1.326-.149.491l-.023.093c-.039.141-.075.283-.111.424a.412.412,0,0,1-.026.108c-.036.167-.072.337-.1.514v.069c-.033.147-.059.311-.08.45a.99.99,0,0,1-.018.126c-.023.172-.044.344-.059.514a.422.422,0,0,0,0,.057c-.015.157-.026.314-.033.473v.668H0A12.872,12.872,0,0,0,10.52,25.2a.9.9,0,0,1,.743.882v4.863a.892.892,0,0,0,.892.894h1.432a.894.894,0,0,0,.894-.894V26.08a.889.889,0,0,1,.72-.866,12.836,12.836,0,0,0,6.765-3.56,13.041,13.041,0,0,0,1.989-2.57A12.877,12.877,0,0,0,16.766.282a5.593,5.593,0,0,0-3.971.257Zm8.78,16.192a9.641,9.641,0,0,1-5.948,5.04.892.892,0,0,1-1.146-.858V5.089a1.542,1.542,0,0,1,2.131-1.421,9.626,9.626,0,0,1,4.963,13.046Z" transform="translate(24 22.163)"/><path d="M142.573,90.2a5.555,5.555,0,0,1-.858-.14A9.035,9.035,0,0,0,140.608,90c-.253,0-.669,0-.831.23a7.767,7.767,0,0,0-.163,2.309h2.309c.51,0,.763.095.763.651v.9c0,.669-.163.876-.831.876H139.6v7.581c0,.6-.09,1.039-.809,1.039h-1.455c-.623,0-.691-.37-.691-.9V94.987h-.7c-.506,0-.556-.389-.556-.809v-1c0-.809.651-.651,1.251-.651v-.9a4.4,4.4,0,0,1,.6-2.711c.949-1.3,2.5-1.355,3.976-1.355.452,0,1.617,0,1.916.452a.872.872,0,0,1,.117.483v.163C143.265,89.114,143.265,90.2,142.573,90.2Zm4.735.691h-.9c-.831,0-1.224-.113-1.224-1.039v-.809c0-.736.3-1.017,1.016-1.017h1.089a.9.9,0,0,1,.9,1.017v.809C148.23,90.5,148.022,90.894,147.308,90.894Zm0,12.709h-.9c-.831,0-1.224-.117-1.224-1.039V93.528c0-.736.3-1.016,1.016-1.016h1.089a.9.9,0,0,1,.9,1.016v9.036C148.23,103.21,148.022,103.6,147.308,103.6Z" transform="translate(-76.279 -49.919)"/><path d="M175.022,109.574a22.471,22.471,0,0,1-3.3-.163c-.691-.09-.646-.416-.646-1.062v-.416c0-.506.045-1.062.669-1.062a10.872,10.872,0,0,1,1.2.136c.786.072,1.595.117,2.4.117s1.157,0,1.157-.854a1.224,1.224,0,0,0-.14-.764,14.952,14.952,0,0,0-2.589-.9,13.338,13.338,0,0,1-1.315-.533,2.51,2.51,0,0,1-1.64-2.611c0-3.555,2.4-3.51,5.241-3.51.578,0,1.134,0,1.712.045.831.072,1.152.23,1.152,1.134,0,.669.05,1.432-.854,1.432-.393,0-.809-.072-1.2-.095a16.592,16.592,0,0,0-1.848-.09c-.876,0-1.355-.117-1.355.9a.687.687,0,0,0,.113.452,13.324,13.324,0,0,0,2.914,1.062c1.807.6,2.656,1.2,2.656,3.235C179.368,109.159,177.886,109.574,175.022,109.574Z" transform="translate(-95.703 -55.615)"/><path d="M198.791,91.464h-.876c-.831,0-1.224-.113-1.224-1.039v-.809c0-.736.3-1.017,1.016-1.017h1.084a.9.9,0,0,1,.9,1.017v.809C199.717,91.071,199.509,91.464,198.791,91.464Zm0,12.708h-.876c-.831,0-1.224-.117-1.224-1.039V94.1c0-.736.3-1.017,1.016-1.017h1.084a.9.9,0,0,1,.9,1.017v9.036C199.717,103.78,199.509,104.173,198.791,104.173Z" transform="translate(-109.885 -50.489)"/><path d="M217.223,109.424a19.125,19.125,0,0,1-1.965.09c-4.518,0-5.268-1.545-5.268-5.841s.764-5.873,5.268-5.873a19.18,19.18,0,0,1,1.965.113c.691.072,1.269,0,1.269.786v.045c0,.578,0,1.807-.831,1.807a6.432,6.432,0,0,1-.926-.09,16.717,16.717,0,0,0-2.169-.185c-.971,0-1.157.185-1.355,1.084a10.978,10.978,0,0,0-.185,2.313,18.145,18.145,0,0,0,.09,2.214c.095,1.039.452,1.157,1.459,1.157a17.069,17.069,0,0,0,2.191-.185,6.119,6.119,0,0,1,.9-.09.637.637,0,0,1,.551.23,4.305,4.305,0,0,1,.28,1.572C218.488,109.379,217.932,109.329,217.223,109.424Z" transform="translate(-117.177 -55.533)"/><path d="M242.7,109.216h-1.3c-.529,0-.669-.348-.669-.831a6.293,6.293,0,0,1-3.415,1.129c-2.259,0-3.307-1.224-3.307-3.443,0-2.516,1.5-3.37,3.768-3.614a19.775,19.775,0,0,1,2.932-.185c0-.926.14-2.218-1.157-2.218a14.7,14.7,0,0,0-3.325.483,2.336,2.336,0,0,1-.556.068c-.8,0-.669-.809-.669-1.382a.854.854,0,0,1,.646-.971,15.925,15.925,0,0,1,3.79-.452,4.476,4.476,0,0,1,3.3,1.062c.9,1.016.876,2.449.876,3.741v5.616C243.619,108.891,243.389,109.216,242.7,109.216Zm-1.965-4.875c-.37,0-.759-.045-1.129-.045a10.424,10.424,0,0,0-1.455.068c-.971.14-1.355.452-1.355,1.455,0,.556.09,1.55.854,1.55a5.267,5.267,0,0,0,3.095-1.157Z" transform="translate(-130.345 -55.533)"/><path d="M264.323,103.783h-.809c-.831,0-1.224-.117-1.224-1.039V88.883c0-.741.3-.994,1.017-.994h1.039a.877.877,0,0,1,.9.994v13.861C265.222,103.39,265.037,103.783,264.323,103.783Z" transform="translate(-145.849 -50.099)"/><path d="M282.508,109.424a19.008,19.008,0,0,1-1.965.09c-4.518,0-5.263-1.545-5.263-5.841s.759-5.873,5.263-5.873a19.036,19.036,0,0,1,1.965.113c.691.072,1.27,0,1.27.786v.045c0,.578,0,1.807-.831,1.807a6.364,6.364,0,0,1-.9-.09,16.854,16.854,0,0,0-2.173-.185c-.971,0-1.157.185-1.355,1.084a11.3,11.3,0,0,0-.185,2.313c0,.736.027,1.477.095,2.214.09,1.039.452,1.157,1.455,1.157a17.135,17.135,0,0,0,2.2-.185,6.064,6.064,0,0,1,.9-.09.651.651,0,0,1,.556.23,4.3,4.3,0,0,1,.276,1.572C283.778,109.379,283.227,109.329,282.508,109.424Z" transform="translate(-152.97 -55.533)"/><path d="M305.033,109.515c-3.858,0-5.313-2.218-5.313-5.841s1.432-5.873,5.313-5.873,5.29,2.218,5.29,5.873S308.914,109.515,305.033,109.515Zm1.893-8.525c-.416-.759-1.111-.736-1.893-.736s-1.482,0-1.9.736a5.93,5.93,0,0,0-.452,2.684,5.993,5.993,0,0,0,.452,2.679c.407.718,1.134.714,1.9.714s1.477,0,1.893-.714a5.9,5.9,0,0,0,.416-2.679A6.249,6.249,0,0,0,306.926,100.99Z" transform="translate(-166.369 -55.533)"/><path d="M337.188,109.216h-1.3c-.529,0-.669-.348-.669-.831a6.293,6.293,0,0,1-3.42,1.129c-2.259,0-3.3-1.224-3.3-3.443,0-2.516,1.5-3.37,3.768-3.614a19.733,19.733,0,0,1,2.932-.185c0-.926.14-2.218-1.157-2.218a14.7,14.7,0,0,0-3.325.483,2.337,2.337,0,0,1-.556.068c-.809,0-.669-.809-.669-1.382a.854.854,0,0,1,.646-.971,15.9,15.9,0,0,1,3.79-.452,4.476,4.476,0,0,1,3.3,1.062c.9,1.016.876,2.449.876,3.741v5.616C338.109,108.891,337.879,109.216,337.188,109.216Zm-1.965-4.875c-.37,0-.764-.045-1.129-.045a10.422,10.422,0,0,0-1.455.068c-.971.14-1.355.452-1.355,1.455,0,.556.09,1.55.854,1.55a5.268,5.268,0,0,0,3.095-1.157Z" transform="translate(-182.147 -55.533)"/><path d="M363.223,109.424a19.126,19.126,0,0,1-1.965.09c-4.518,0-5.268-1.545-5.268-5.841s.763-5.873,5.268-5.873a19.18,19.18,0,0,1,1.965.113c.691.072,1.269,0,1.269.786v.045c0,.578,0,1.807-.831,1.807a6.431,6.431,0,0,1-.926-.09,16.719,16.719,0,0,0-2.173-.185c-.967,0-1.152.185-1.355,1.084a10.979,10.979,0,0,0-.185,2.313c0,.736.023,1.477.09,2.214.095,1.039.452,1.157,1.455,1.157a17.066,17.066,0,0,0,2.2-.185,6.119,6.119,0,0,1,.9-.09.642.642,0,0,1,.551.23,4.305,4.305,0,0,1,.28,1.572C364.5,109.379,363.946,109.329,363.223,109.424Z" transform="translate(-197.217 -55.533)"/><path d="M389.122,103.783h-1.233c-.669,0-.831-.452-.831-1.039V96.83c0-.325.045-1.595-.163-1.807a.958.958,0,0,0-.741-.185,5.024,5.024,0,0,0-2.815,1.062v6.863c0,.646-.185,1.039-.9,1.039h-1.224c-.623,0-.831-.348-.831-.9V88.883c0-.741.3-.994,1.017-.994h1.071a.876.876,0,0,1,.9.994v4.274a7.251,7.251,0,0,1,3.117-.786c2.146,0,3.555,1.062,3.555,3.28v7.093C390.021,103.39,389.836,103.783,389.122,103.783Z" transform="translate(-210.589 -50.099)"/><path d="M413.219,94.77a2.977,2.977,0,0,1-2.295-.845,4.347,4.347,0,0,1,0-5.051,2.977,2.977,0,0,1,2.295-.881c2.2,0,3.226,1.166,3.226,3.334S415.478,94.77,413.219,94.77Zm1.843-5.236A1.915,1.915,0,0,0,413.3,88.8a2.043,2.043,0,0,0-1.807.723,4.391,4.391,0,0,0,0,3.75A2.051,2.051,0,0,0,413.3,94a1.933,1.933,0,0,0,1.744-.736,4.188,4.188,0,0,0,0-3.732Zm-.542,3.542H414.2a.4.4,0,0,1-.357-.14l-.876-1.053h-.113v.944c0,.3-.28.248-.492.248s-.285-.045-.285-.248V89.945c0-.194.113-.239.285-.239h.985a1.166,1.166,0,0,1,.926.239,1.355,1.355,0,0,1,.289.953.827.827,0,0,1-.673.935l.763.863a.334.334,0,0,1,.081.2c-.014.126-.126.163-.23.163Zm-.849-2.7a1.315,1.315,0,0,0-.357-.032h-.149c-.131,0-.3-.032-.3.145v.741h.56c.316,0,.37-.063.37-.37C413.775,90.754,413.775,90.438,413.671,90.379Z" transform="translate(-226.883 -50.154)"/></g></svg>