<?xml version="1.0" encoding="utf-8"?>
<!-- Generator: Adobe Illustrator 25.4.1, SVG Export Plug-In . SVG Version: 6.00 Build 0)  -->
<svg version="1.1" id="svg2" xmlns:svg="http://www.w3.org/2000/svg"
	 xmlns="http://www.w3.org/2000/svg" xmlns:xlink="http://www.w3.org/1999/xlink" x="0px" y="0px" viewBox="0 0 467 363.6"
	 style="enable-background:new 0 0 467 363.6;" xml:space="preserve">
<style type="text/css">
	.st0{fill:#8D91A9;stroke:#8D91A9;stroke-width:5;stroke-miterlimit:10;}
</style>
<path id="path26" class="st0" d="M371.3,2.5c-29.1,0-55.2,13.4-72.3,34.5H35.3C17.3,37,2.5,51.8,2.5,69.8v258.5
	c0,18.1,14.8,32.8,32.8,32.8h361.8c18.1,0,32.8-14.8,32.8-32.8V167.9c21-17.1,34.5-43.1,34.5-72.3C464.5,44.3,422.7,2.5,371.3,2.5
	L371.3,2.5z M371.3,16.5c43.8,0,79.2,35.4,79.2,79.2c0,19.4-6.9,37.1-18.4,50.8L320.5,34.9C334.3,23.4,352,16.5,371.3,16.5z
	 M310.6,44.8l111.6,111.6c-13.7,11.5-31.5,18.4-50.8,18.4c-43.8,0-79.2-35.4-79.2-79.2C292.2,76.3,299.1,58.6,310.6,44.8z M35.3,51
	h254.3c-7.3,13.3-11.4,28.5-11.4,44.7c0,51.4,41.8,93.2,93.2,93.2c16.2,0,31.4-4.2,44.7-11.4V285l-66.5-69.7
	c-9.2-9.6-24.6-10.2-34.5-1.4l-58.8,52.3l-96.3-137.6c-6.5-9.2-15.7-14.6-25.3-14.4c-9.6,0.2-18.5,6.1-24.5,15.6L16.5,278.2V69.8
	C16.5,59.3,24.9,51,35.3,51L35.3,51z M135,128.1c4.2-0.1,9,2.1,13.5,8.4l100.9,144.1c2.2,3.2,6.6,3.9,9.7,1.7
	c0.2-0.2,0.4-0.3,0.6-0.5l64.7-57.5c4.3-3.8,11.1-3.5,15.1,0.6l76.6,80.3v23c0,10.5-8.4,18.8-18.8,18.8H35.3
	c-10.5,0-18.8-8.4-18.8-18.8v-23.8L122,137.2C126.1,130.6,130.8,128.2,135,128.1L135,128.1z"/>
</svg>
