<?xml version="1.0" encoding="utf-8"?>
<!-- Generator: Adobe Illustrator 25.4.1, SVG Export Plug-In . SVG Version: 6.00 Build 0)  -->
<svg version="1.1" xmlns="http://www.w3.org/2000/svg" xmlns:xlink="http://www.w3.org/1999/xlink" x="0px" y="0px"
	 viewBox="0 0 2098.3 2097.1" style="enable-background:new 0 0 2098.3 2097.1;" xml:space="preserve">
<style type="text/css">
	.st0{display:none;}
	.st1{display:inline;}
	.st2{fill:#F2F2F2;}
	.st3{clip-path:url(#SVGID_00000008134585974187404300000012164413696529140129_);}
	.st4{fill:#FFFFFF;}
	.st5{fill:#D6D6D6;}
	.st6{clip-path:url(#SVGID_00000008134585974187404300000012164413696529140129_);fill:#686868;}
	.st7{clip-path:url(#SVGID_00000008134585974187404300000012164413696529140129_);fill:#6BD9FC;}
	.st8{opacity:0.5;clip-path:url(#SVGID_00000008134585974187404300000012164413696529140129_);fill:#686868;}
	.st9{opacity:0.5;clip-path:url(#SVGID_00000008134585974187404300000012164413696529140129_);fill:#6BD9FC;}
	.st10{clip-path:url(#SVGID_00000008134585974187404300000012164413696529140129_);fill:#FFFFFF;}
	.st11{opacity:0.5;clip-path:url(#SVGID_00000008134585974187404300000012164413696529140129_);fill:#F4F4F4;}
	.st12{clip-path:url(#SVGID_00000008134585974187404300000012164413696529140129_);fill:#AEFDFF;}
	.st13{clip-path:url(#SVGID_00000008134585974187404300000012164413696529140129_);fill:#CCCCCC;}
	.st14{clip-path:url(#SVGID_00000008134585974187404300000012164413696529140129_);fill:#85E565;}
	.st15{clip-path:url(#SVGID_00000008134585974187404300000012164413696529140129_);fill:#6DC44D;}
	.st16{clip-path:url(#SVGID_00000008134585974187404300000012164413696529140129_);fill:#6BD8F9;}
	.st17{fill:#AEFDFF;}
	
		.st18{clip-path:url(#SVGID_00000054241562856745297270000009102602092244343214_);fill:none;stroke:#374F82;stroke-width:1.8811;stroke-miterlimit:10;}
	.st19{fill:#00E9C5;}
	.st20{fill:#110F0F;}
	.st21{clip-path:url(#SVGID_00000008134585974187404300000012164413696529140129_);fill:#EFEFEF;}
	.st22{clip-path:url(#SVGID_00000008134585974187404300000012164413696529140129_);fill:#374F82;}
	.st23{opacity:0.5;clip-path:url(#SVGID_00000008134585974187404300000012164413696529140129_);fill:#8FF469;}
	.st24{opacity:0.5;clip-path:url(#SVGID_00000008134585974187404300000012164413696529140129_);fill:#6DC44D;}
</style>
<g id="Capa_2" class="st0">
	<g class="st1">
		<path class="st2" d="M251.6,1958.6c-120.9,0-244.8-193-233.9-304.8c10.9-111.9,100.4-211.5,210.4-234.4
			c72.3-15,149,0.4,220.3-18.7c149.5-40.2,228.3-216.1,374.9-266c66.7-22.7,142.9-15.4,204.1,19.4
			c72.4,41.3,123.3,118.1,202.4,144.2c139.9,46.2,287-87.5,431.2-57.3c60.4,12.6,113.6,55.5,138.9,111.8
			c16.1,36,21.1,75.8,33.2,113.4c12.1,37.5,34.1,75.2,70.6,90.1c30.8,12.5,90.6,43.6,117,63.9c14.2,10.9,81.3,76.9,50.5,187.5
			c-13.7,49.4-51.7,89.5-97.4,112.6s-97.2,31.9-148,38.5H251.6z"/>
	</g>
</g>
<g id="Capa_3">
	<circle class="st2" cx="1049.1" cy="1048.5" r="1048.5"/>
</g>
<g id="Capa_1">
	<g>
		<defs>
			<circle id="SVGID_1_" cx="1049.1" cy="1048.5" r="1048.5"/>
		</defs>
		<clipPath id="SVGID_00000033370664803032028250000008518160746930145947_">
			<use xlink:href="#SVGID_1_"  style="overflow:visible;"/>
		</clipPath>
		<g style="clip-path:url(#SVGID_00000033370664803032028250000008518160746930145947_);">
			<polygon class="st4" points="1539.1,669.5 1622.5,583.9 1654.5,695.8 1552.3,719.8 			"/>
			<path class="st5" d="M1658,699.1l-28.5-133l-90.4,103.4l11.3,52.6l42.9-9.2v47.3h13.6V710L1658,699.1z M1610.7,701.7
				c-3.6,0.8-7.5-3.2-8.7-8.8c-1.2-5.6,0.8-10.8,4.4-11.6c3.6-0.8,7.5,3.2,8.7,8.8C1616.3,695.7,1614.3,700.9,1610.7,701.7z
				 M1644.2,681.4c1.5,6.9-0.9,13.3-5.4,14.3s-9.3-3.9-10.8-10.8c-1.5-6.9,0.9-13.3,5.4-14.3
				C1637.9,669.6,1642.7,674.4,1644.2,681.4z M1636,643.1c1.5,6.9-0.9,13.3-5.4,14.3c-4.5,1-9.3-3.9-10.8-10.8
				c-1.5-6.9,0.9-13.3,5.4-14.3S1634.5,636.2,1636,643.1z M1617,594c4.5-1,9.3,3.9,10.8,10.8c1.5,6.9-0.9,13.3-5.4,14.3
				c-4.5,1-9.3-3.9-10.8-10.8C1610.2,601.4,1612.6,595,1617,594z M1608.4,659c1.2,5.6-0.8,10.8-4.4,11.6c-3.6,0.8-7.5-3.2-8.7-8.8
				c-1.2-5.6,0.8-10.8,4.4-11.6S1607.2,653.4,1608.4,659z M1593,619.2c3.6-0.8,7.5,3.2,8.7,8.8s-0.8,10.8-4.4,11.6
				c-3.6,0.8-7.5-3.2-8.7-8.8C1587.5,625.1,1589.4,620,1593,619.2z M1574.6,636.9c3-0.7,6.3,2.7,7.3,7.4c1,4.7-0.6,9.1-3.7,9.7
				c-3,0.7-6.3-2.7-7.3-7.4S1571.6,637.5,1574.6,636.9z M1559.7,654.5c2.4-0.5,5.1,2.1,5.9,5.9c0.8,3.8-0.5,7.3-2.9,7.8
				c-2.4,0.5-5.1-2.1-5.9-5.9C1555.9,658.5,1557.2,655,1559.7,654.5z M1544.5,672.4c-0.7-3.2,0.4-6.2,2.5-6.7c2.1-0.4,4.3,1.8,5,5.1
				c0.7,3.2-0.4,6.2-2.5,6.7C1547.5,677.9,1545.2,675.6,1544.5,672.4z M1548.4,690.2c-0.7-3.2,0.4-6.2,2.5-6.7
				c2.1-0.4,4.3,1.8,5,5.1c0.7,3.2-0.4,6.2-2.5,6.7C1551.3,695.7,1549.1,693.5,1548.4,690.2z M1557.2,713.1c-2.1,0.4-4.3-1.8-5-5.1
				c-0.7-3.2,0.4-6.2,2.5-6.7c2.1-0.4,4.3,1.8,5,5.1C1560.4,709.7,1559.3,712.7,1557.2,713.1z M1561.2,683.2
				c-0.8-3.8,0.5-7.3,2.9-7.8c2.4-0.5,5.1,2.1,5.9,5.9c0.8,3.8-0.5,7.3-2.9,7.8S1562,687,1561.2,683.2z M1571.6,710.1
				c-2.4,0.5-5.1-2.1-5.9-5.9c-0.8-3.8,0.5-7.3,2.9-7.8c2.4-0.5,5.1,2.1,5.9,5.9C1575.3,706,1574,709.5,1571.6,710.1z M1576.6,672.7
				c-1-4.7,0.6-9.1,3.7-9.7s6.3,2.7,7.3,7.4c1,4.7-0.6,9.1-3.7,9.7C1580.9,680.8,1577.6,677.5,1576.6,672.7z M1589.5,706.2
				c-3,0.7-6.3-2.7-7.3-7.4c-1-4.7,0.6-9.1,3.7-9.7c3-0.7,6.3,2.7,7.3,7.4C1594.2,701.2,1592.5,705.6,1589.5,706.2z"/>
		</g>
		<g style="clip-path:url(#SVGID_00000033370664803032028250000008518160746930145947_);">
			<polygon class="st4" points="643.9,669.5 560.5,583.9 528.5,695.8 630.7,719.8 			"/>
			<path class="st5" d="M576.1,710v111.6h13.6V712.9l42.9,9.2l11.3-52.6l-90.4-103.4l-28.5,133L576.1,710z M567.9,690.1
				c1.2-5.6,5.1-9.6,8.7-8.8c3.6,0.8,5.6,6,4.4,11.6s-5.1,9.6-8.7,8.8C568.7,700.9,566.7,695.7,567.9,690.1z M549.6,670.5
				c4.5,1,6.9,7.3,5.4,14.3c-1.5,6.9-6.3,11.8-10.8,10.8c-4.5-1-6.9-7.3-5.4-14.3C540.3,674.4,545.1,669.6,549.6,670.5z
				 M557.8,632.3c4.5,1,6.9,7.3,5.4,14.3c-1.5,6.9-6.3,11.8-10.8,10.8c-4.5-1-6.9-7.3-5.4-14.3C548.5,636.2,553.3,631.3,557.8,632.3
				z M571.4,608.3c-1.5,6.9-6.3,11.8-10.8,10.8c-4.5-1-6.9-7.3-5.4-14.3c1.5-6.9,6.3-11.8,10.8-10.8
				C570.4,595,572.8,601.4,571.4,608.3z M583.3,650.2c3.6,0.8,5.6,6,4.4,11.6c-1.2,5.6-5.1,9.6-8.7,8.8c-3.6-0.8-5.6-6-4.4-11.6
				C575.8,653.4,579.7,649.5,583.3,650.2z M594.3,630.8c-1.2,5.6-5.1,9.6-8.7,8.8c-3.6-0.8-5.6-6-4.4-11.6c1.2-5.6,5.1-9.6,8.7-8.8
				C593.6,620,595.5,625.1,594.3,630.8z M612.1,646.6c-1,4.7-4.3,8-7.3,7.4c-3-0.7-4.7-5-3.7-9.7c1-4.7,4.3-8,7.3-7.4
				S613.1,641.9,612.1,646.6z M626.3,662.3c-0.8,3.8-3.4,6.4-5.9,5.9c-2.4-0.5-3.8-4-2.9-7.8c0.8-3.8,3.4-6.4,5.9-5.9
				C625.8,655,627.1,658.5,626.3,662.3z M633.5,677.4c-2.1-0.4-3.2-3.4-2.5-6.7s2.9-5.5,5-5.1c2.1,0.4,3.2,3.4,2.5,6.7
				C637.8,675.6,635.5,677.9,633.5,677.4z M629.6,695.3c-2.1-0.4-3.2-3.4-2.5-6.7c0.7-3.2,2.9-5.5,5-5.1c2.1,0.4,3.2,3.4,2.5,6.7
				C634,693.5,631.7,695.7,629.6,695.3z M623.3,706.5c0.7-3.2,2.9-5.5,5-5.1c2.1,0.4,3.2,3.4,2.5,6.7c-0.7,3.2-2.9,5.5-5,5.1
				C623.7,712.7,622.6,709.7,623.3,706.5z M615.9,689.1c-2.4-0.5-3.8-4-2.9-7.8c0.8-3.8,3.4-6.4,5.9-5.9c2.4,0.5,3.8,4,2.9,7.8
				C621,687,618.4,689.7,615.9,689.1z M608.5,702.2c0.8-3.8,3.4-6.4,5.9-5.9c2.4,0.5,3.8,4,2.9,7.8c-0.8,3.8-3.4,6.4-5.9,5.9
				C609,709.5,607.7,706,608.5,702.2z M599.1,680.1c-3-0.7-4.7-5-3.7-9.7c1-4.7,4.3-8,7.3-7.4c3,0.7,4.7,5,3.7,9.7
				C605.5,677.5,602.2,680.8,599.1,680.1z M589.9,696.5c1-4.7,4.3-8,7.3-7.4c3,0.7,4.7,5,3.7,9.7c-1,4.7-4.3,8-7.3,7.4
				C590.5,705.6,588.8,701.2,589.9,696.5z"/>
		</g>
		
			<rect x="193.6" y="824.9" style="clip-path:url(#SVGID_00000033370664803032028250000008518160746930145947_);fill:#686868;" width="745.5" height="473.8"/>
		<polygon style="clip-path:url(#SVGID_00000033370664803032028250000008518160746930145947_);fill:#6BD9FC;" points="
			1959.7,1302.2 939.1,1302.2 643,744.8 1959.7,744.8 		"/>
		
			<rect x="1361.7" y="744.8" style="opacity:0.5;clip-path:url(#SVGID_00000033370664803032028250000008518160746930145947_);fill:#686868;" width="12.8" height="557.4"/>
		<polygon style="opacity:0.5;clip-path:url(#SVGID_00000033370664803032028250000008518160746930145947_);fill:#6BD9FC;" points="
			1405.9,1038.3 1415.6,1302.2 1938,1302.2 1938,1037.6 		"/>
		
			<rect x="1374.5" y="744.8" style="clip-path:url(#SVGID_00000033370664803032028250000008518160746930145947_);fill:#FFFFFF;" width="585.2" height="317"/>
		<polygon style="opacity:0.5;clip-path:url(#SVGID_00000033370664803032028250000008518160746930145947_);fill:#F4F4F4;" points="
			1374.5,744.8 1374.5,1061.8 1732.7,1061.8 1405.9,744.8 		"/>
		
			<rect x="546.7" y="812.6" style="clip-path:url(#SVGID_00000033370664803032028250000008518160746930145947_);fill:#FFFFFF;" width="96.3" height="486.1"/>
		<polygon style="opacity:0.5;clip-path:url(#SVGID_00000033370664803032028250000008518160746930145947_);fill:#686868;" points="
			546.7,1014.3 546.7,824.9 537.6,824.9 537.6,1002.4 401.8,824.9 193.6,824.9 193.6,1298.7 764.4,1298.7 		"/>
		<polygon style="opacity:0.5;clip-path:url(#SVGID_00000033370664803032028250000008518160746930145947_);fill:#6BD9FC;" points="
			1382.6,1302.2 858,744.8 643,744.8 939.1,1302.2 		"/>
		<polygon style="clip-path:url(#SVGID_00000033370664803032028250000008518160746930145947_);fill:#AEFDFF;" points="
			1343.2,1218.6 953.8,1218.6 884.2,1093.2 1343.2,1093.2 		"/>
		<polygon style="clip-path:url(#SVGID_00000033370664803032028250000008518160746930145947_);fill:#CCCCCC;" points="
			1959.7,1130.8 2351.5,1130.8 2212.2,1085.5 1959.7,1085.5 		"/>
		<polygon style="clip-path:url(#SVGID_00000033370664803032028250000008518160746930145947_);fill:#CCCCCC;" points="
			1959.7,1066.7 2170.9,1066.7 2101.2,1044.1 1959.7,1044.1 		"/>
		<polygon style="clip-path:url(#SVGID_00000033370664803032028250000008518160746930145947_);fill:#CCCCCC;" points="193.6,1130.8 
			-253.2,1130.8 -113.9,1085.5 193.6,1085.5 		"/>
		<polygon style="clip-path:url(#SVGID_00000033370664803032028250000008518160746930145947_);fill:#CCCCCC;" points="193.6,1066.7 
			-72.6,1066.7 -2.9,1044.1 193.6,1044.1 		"/>
		<polygon style="clip-path:url(#SVGID_00000033370664803032028250000008518160746930145947_);fill:#AEFDFF;" points="739,822.4 
			1342.2,822.4 1342,1060.9 870.5,1060.9 		"/>
		<polygon style="opacity:0.5;clip-path:url(#SVGID_00000033370664803032028250000008518160746930145947_);fill:#686868;" points="
			939.1,1267.4 698.2,824.9 670.6,824.9 905.8,1270.9 924,1294.4 939.1,1289.8 		"/>
		<path style="clip-path:url(#SVGID_00000033370664803032028250000008518160746930145947_);fill:#85E565;" d="M892.3,1251.6
			c-0.6-19.1-13.2-35.1-30.5-40.9c-6.7-21.6-26.8-37.3-50.5-37.3c-26.1,0-47.8,18.9-52.1,43.8c-3.1-0.9-6.5-1.4-9.9-1.4
			c-15.7,0-28.9,10.1-33.7,24.2c-1.8-1.3-3.8-2.3-6-3c-3.1-17.9-18.7-31.5-37.5-31.5c-0.6,0-1.2,0-1.8,0
			c-6.6-11.4-18.9-19.1-33-19.1c-21,0-38.1,17-38.1,38.1c0,1.8,0.1,3.6,0.4,5.3c-3.8-2.5-8.3-4-13.2-4c-3.9,0-7.7,1-10.9,2.7
			c-5.7-12.5-18.4-21.2-33-21.2c-20.1,0-36.3,16.3-36.3,36.3c0,3.8,0.6,7.5,1.7,10.9c-0.6,0-1.1,0-1.7,0
			c-19.5,0-35.3,15.8-35.3,35.3c0,19.5,15.8,35.3,35.3,35.3c4.9,0,9.6-1,13.8-2.8c6.5,16.7,22.7,28.5,41.6,28.5
			c4.2,0,8.3-0.6,12.2-1.7c8.1,8.6,19.7,14.1,32.5,14.1c3.3,0,6.5-0.4,9.5-1c8.2,10.4,20.9,17.1,35.2,17.1
			c12.2,0,23.2-4.9,31.2-12.7c6,3,12.8,4.7,20,4.7c5.1,0,10-0.9,14.6-2.5c8.1,8.7,19.7,14.1,32.5,14.1c15.7,0,29.4-8.1,37.4-20.3
			c2.4,0.4,4.8,0.6,7.3,0.6c11.8,0,22.5-4.6,30.4-12c6.8,4.1,14.7,6.5,23.2,6.5c15,0,28.2-7.4,36.3-18.6
			c22.5-2.3,40.1-21.3,40.1-44.4C924,1274.2,910.7,1257.2,892.3,1251.6z"/>
		<path style="clip-path:url(#SVGID_00000033370664803032028250000008518160746930145947_);fill:#6DC44D;" d="M1419.2,1262
			c-0.4-11.5-8-21.3-18.4-24.8c-4-13.1-16.2-22.5-30.5-22.5c-15.8,0-28.9,11.5-31.5,26.5c-1.9-0.6-3.9-0.9-6-0.9
			c-9.5,0-17.5,6.1-20.4,14.6c-1.1-0.8-2.3-1.4-3.6-1.8c-1.9-10.8-11.3-19-22.7-19c-0.4,0-0.7,0-1.1,0c-4-6.9-11.4-11.6-20-11.6
			c-12.7,0-23,10.3-23,23c0,1.1,0.1,2.1,0.2,3.2c-2.3-1.5-5-2.4-8-2.4c-2.4,0-4.6,0.6-6.6,1.6c-3.5-7.6-11.1-12.8-20-12.8
			c-12.1,0-22,9.8-22,22c0,2.3,0.4,4.5,1,6.6c-0.3,0-0.7,0-1,0c-11.8,0-21.3,9.5-21.3,21.3s9.5,21.3,21.3,21.3c3,0,5.8-0.6,8.4-1.7
			c3.9,10.1,13.7,17.2,25.2,17.2c2.6,0,5-0.4,7.4-1c4.9,5.2,11.9,8.5,19.7,8.5c2,0,3.9-0.2,5.8-0.6c4.9,6.3,12.6,10.3,21.3,10.3
			c7.4,0,14-2.9,18.9-7.7c3.6,1.8,7.7,2.9,12.1,2.9c3.1,0,6.1-0.5,8.8-1.5c4.9,5.2,11.9,8.5,19.7,8.5c9.5,0,17.8-4.9,22.6-12.2
			c1.4,0.2,2.9,0.4,4.4,0.4c7.1,0,13.6-2.8,18.4-7.2c4.1,2.5,8.9,3.9,14,3.9c9,0,17-4.4,21.9-11.3c13.6-1.4,24.2-12.9,24.2-26.9
			C1438.3,1275.7,1430.3,1265.4,1419.2,1262z"/>
		<path style="clip-path:url(#SVGID_00000033370664803032028250000008518160746930145947_);fill:#85E565;" d="M2297.7,1225
			c-0.5-15.3-10.6-28.2-24.4-32.8c-5.3-17.3-21.5-29.9-40.5-29.9c-14.1,0-26.6,6.9-34.3,17.5c-3.5-3.2-8-5.1-13.1-5.1
			c-4.7,0-9.1,1.7-12.4,4.5c-3.5-15.4-17.2-26.8-33.6-26.8c-15.2,0-28.1,9.9-32.7,23.6c-4.1-2-8.7-3.2-13.6-3.2
			c-7.4,0-14.2,2.7-19.5,7.1c-4.8-7.7-13.3-12.9-23.1-12.9c-13.7,0-25,10.2-26.8,23.3c-2.1-0.5-4.3-0.8-6.6-0.8
			c-16.1,0-29.1,13-29.1,29.1c0,3,0.5,6,1.3,8.7c-0.4,0-0.9,0-1.3,0c-15.6,0-28.3,12.7-28.3,28.3s12.7,28.3,28.3,28.3
			c3.9,0,7.7-0.8,11.1-2.3c5.2,13.4,18.2,22.8,33.4,22.8c3.4,0,6.7-0.5,9.8-1.4c6.5,6.9,15.8,11.3,26.1,11.3c2.6,0,5.2-0.3,7.6-0.8
			c6.6,8.4,16.7,13.7,28.2,13.7c9.8,0,18.6-3.9,25.1-10.2c4.8,2.4,10.3,3.8,16,3.8c4.1,0,8.1-0.7,11.7-2
			c6.5,6.9,15.8,11.3,26.1,11.3c12.6,0,23.6-6.5,30-16.2c1.9,0.3,3.8,0.5,5.8,0.5c9.4,0,18-3.7,24.4-9.6c5.4,3.3,11.8,5.2,18.6,5.2
			c12,0,22.6-5.9,29.1-14.9c18.1-1.9,32.1-17.1,32.1-35.6C2323.2,1243.1,2312.5,1229.4,2297.7,1225z"/>
		<path style="clip-path:url(#SVGID_00000033370664803032028250000008518160746930145947_);fill:#85E565;" d="M-144.4,1225
			c0.5-15.3,10.6-28.2,24.4-32.8c5.3-17.3,21.5-29.9,40.5-29.9c14.1,0,26.6,6.9,34.3,17.5c3.5-3.2,8-5.1,13.1-5.1
			c4.7,0,9.1,1.7,12.4,4.5c3.5-15.4,17.2-26.8,33.6-26.8c15.2,0,28.1,9.9,32.7,23.6c4.1-2,8.7-3.2,13.6-3.2c7.4,0,14.2,2.7,19.5,7.1
			c4.8-7.7,13.3-12.9,23.1-12.9c13.7,0,25,10.2,26.8,23.3c2.1-0.5,4.3-0.8,6.6-0.8c16.1,0,29.1,13,29.1,29.1c0,3-0.5,6-1.3,8.7
			c0.4,0,0.9,0,1.3,0c15.6,0,28.3,12.7,28.3,28.3s-12.7,28.3-28.3,28.3c-3.9,0-7.7-0.8-11.1-2.3c-5.2,13.4-18.2,22.8-33.4,22.8
			c-3.4,0-6.7-0.5-9.8-1.4c-6.5,6.9-15.8,11.3-26.1,11.3c-2.6,0-5.2-0.3-7.6-0.8c-6.6,8.4-16.7,13.7-28.2,13.7
			c-9.8,0-18.6-3.9-25.1-10.2c-4.8,2.4-10.3,3.8-16,3.8c-4.1,0-8.1-0.7-11.7-2c-6.5,6.9-15.8,11.3-26.1,11.3
			c-12.6,0-23.6-6.5-30-16.2c-1.9,0.3-3.8,0.5-5.8,0.5c-9.4,0-18-3.7-24.4-9.6c-5.4,3.3-11.8,5.2-18.6,5.2c-12,0-22.6-5.9-29.1-14.9
			c-18.1-1.9-32.1-17.1-32.1-35.6C-169.8,1243.1-159.1,1229.4-144.4,1225z"/>
		<path style="clip-path:url(#SVGID_00000033370664803032028250000008518160746930145947_);fill:#AEFDFF;" d="M291.2,912
			c-41.8,76.6-52.3,163.7,0,216c33.4,33.4,45.7,109.4,34.3,170.8h139.9c11.4-61.5-0.9-137.5-34.3-170.8c-52.3-52.3-41.8-139.3,0-216
			c17.9-32.9,20.5-63.2,17.5-87.1H308.7C311.6,848.8,309.1,879.1,291.2,912z"/>
		<polygon style="clip-path:url(#SVGID_00000033370664803032028250000008518160746930145947_);fill:#6BD8F9;" points="953.8,1218.6 
			973.8,1218.6 910.7,1108.8 1343.2,1108.8 1343.2,1093.2 884.2,1093.2 		"/>
		<path style="clip-path:url(#SVGID_00000033370664803032028250000008518160746930145947_);fill:#6BD8F9;" d="M311.2,912
			c14-25.7,18.6-49.7,18.6-70.4h119.8c0-5.8-0.4-11.4-1-16.7H328.8h-20.1c0.2,1.4,0.3,2.7,0.4,4.1c0.1,1.1,0.2,2.2,0.3,3.3
			c0,0.3,0,0.6,0.1,0.8c0.1,1.3,0.1,2.7,0.2,4.1c0,0,0,0,0,0c0,1.4,0.1,2.9,0.1,4.3l0,0c0,20.7-4.6,44.8-18.6,70.4
			c-41.8,76.6-52.3,163.7,0,216c33.4,33.4,45.7,109.4,34.3,170.8h20.1c11.4-61.5-0.9-137.5-34.3-170.8
			C259,1075.7,269.4,988.6,311.2,912z"/>
		<g style="clip-path:url(#SVGID_00000033370664803032028250000008518160746930145947_);">
			<path class="st17" d="M372.3,824.9L261.1,990c-3.9,17.5-5.8,34.7-5.2,51.2l145.9-216.2H372.3z"/>
			<path class="st17" d="M448.5,1152.7l-98.8,146.1h29l80.6-119C456.3,1170,452.7,1160.9,448.5,1152.7z"/>
			<path class="st17" d="M322.4,824.9l-12.7,18.7c-0.3,20.2-5,43.6-18.6,68.4c-9.9,18.1-18,36.8-24,55.5l97.1-142.6H322.4z"/>
			<path class="st17" d="M431,912c16.2-29.6,19.8-57.1,18.2-79.8l-181.1,263c5.6,11.9,13.2,23,23,32.8c2,2,4,4.3,5.9,6.6
				l106.3-154.2C409.4,957.4,418.9,934.3,431,912z"/>
			<path class="st17" d="M396.5,1051.7l-80.3,118.1c11.4,31,15.7,70.1,12.3,106.7l102-149.2C410,1106.6,399.3,1080.5,396.5,1051.7z"
				/>
		</g>
		<g style="clip-path:url(#SVGID_00000033370664803032028250000008518160746930145947_);">
			<defs>
				<path id="SVGID_00000062185211569357613390000017511738943367508372_" d="M422.6,1378.8c61.3-41.8,60.7-198.6,8.4-250.8
					s-41.8-139.3,0-216s0-139.3,0-139.3H291.2c0,0,41.8,62.7,0,139.3s-52.3,163.7,0,216s52.9,209-8.4,250.8H422.6z"/>
			</defs>
			<clipPath id="SVGID_00000068645912473953532810000015023807841882685088_">
				<use xlink:href="#SVGID_00000062185211569357613390000017511738943367508372_"  style="overflow:visible;"/>
			</clipPath>
			
				<line style="clip-path:url(#SVGID_00000068645912473953532810000015023807841882685088_);fill:none;stroke:#374F82;stroke-width:1.8811;stroke-miterlimit:10;" x1="362.6" y1="824.9" x2="362.6" y2="1298.7"/>
			
				<line style="clip-path:url(#SVGID_00000068645912473953532810000015023807841882685088_);fill:none;stroke:#374F82;stroke-width:1.8811;stroke-miterlimit:10;" x1="255.8" y1="887.6" x2="470.9" y2="887.6"/>
			
				<line style="clip-path:url(#SVGID_00000068645912473953532810000015023807841882685088_);fill:none;stroke:#374F82;stroke-width:1.8811;stroke-miterlimit:10;" x1="255" y1="946.5" x2="470.2" y2="946.5"/>
			
				<line style="clip-path:url(#SVGID_00000068645912473953532810000015023807841882685088_);fill:none;stroke:#374F82;stroke-width:1.8811;stroke-miterlimit:10;" x1="254.3" y1="1005.5" x2="469.4" y2="1005.5"/>
			
				<line style="clip-path:url(#SVGID_00000068645912473953532810000015023807841882685088_);fill:none;stroke:#374F82;stroke-width:1.8811;stroke-miterlimit:10;" x1="253.6" y1="1064.4" x2="468.7" y2="1064.4"/>
			
				<line style="clip-path:url(#SVGID_00000068645912473953532810000015023807841882685088_);fill:none;stroke:#374F82;stroke-width:1.8811;stroke-miterlimit:10;" x1="252.8" y1="1123.3" x2="468" y2="1123.3"/>
			
				<line style="clip-path:url(#SVGID_00000068645912473953532810000015023807841882685088_);fill:none;stroke:#374F82;stroke-width:1.8811;stroke-miterlimit:10;" x1="252.1" y1="1242" x2="467.2" y2="1242"/>
			
				<line style="clip-path:url(#SVGID_00000068645912473953532810000015023807841882685088_);fill:none;stroke:#374F82;stroke-width:1.8811;stroke-miterlimit:10;" x1="252.1" y1="1182.2" x2="467.2" y2="1182.2"/>
			
				<line style="clip-path:url(#SVGID_00000068645912473953532810000015023807841882685088_);fill:none;stroke:#374F82;stroke-width:1.8811;stroke-miterlimit:10;" x1="251.3" y1="1241.1" x2="466.5" y2="1241.1"/>
		</g>
		
			<rect x="1510.2" y="1134.4" style="clip-path:url(#SVGID_00000033370664803032028250000008518160746930145947_);fill:#AEFDFF;" width="313.2" height="167.8"/>
		
			<rect x="1510.2" y="1134.4" style="clip-path:url(#SVGID_00000033370664803032028250000008518160746930145947_);fill:#6BD8F9;" width="313.2" height="21.5"/>
		<g style="clip-path:url(#SVGID_00000033370664803032028250000008518160746930145947_);">
			<polygon class="st17" points="1688.8,1201.6 1688.8,1240.8 1761.2,1134.4 1733.9,1134.4 			"/>
			<polygon class="st17" points="1757,1302.2 1785.6,1302.2 1850.7,1206.5 1849.4,1202.6 1823.9,1202.6 			"/>
			<polygon class="st17" points="1781.7,1134.4 1688.8,1272.7 1688.8,1302.2 1709.6,1302.2 1823.7,1134.4 			"/>
			<polygon class="st17" points="1510.2,1201.6 1510.2,1240.8 1582.6,1134.4 1555.3,1134.4 			"/>
			<polygon class="st17" points="1578.4,1302.2 1607.1,1302.2 1674.8,1202.6 1645.3,1202.6 			"/>
			<polygon class="st17" points="1603.1,1134.4 1510.2,1272.7 1510.2,1302.2 1531,1302.2 1645.1,1134.4 			"/>
		</g>
		<g style="clip-path:url(#SVGID_00000033370664803032028250000008518160746930145947_);">
			<path class="st19" d="M1666.8,784c-4.8,2.1-7.9,6.8-7.9,12.1l0,0v91.8c0,2.5-2,4.6-4.6,4.6c-0.4,0-0.9-0.1-1.3-0.2
				c-20.8-6.2-35-25.3-35-47c0-0.7,0-1.3,0-2v-0.7c0-0.5,0.1-1,0.1-1.5v-0.4c0.1-1.3,0.3-2.6,0.5-3.9l0.1-0.4
				c0.1-0.6,0.2-1.1,0.3-1.7c0-0.1,0.1-0.2,0.1-0.3c0.3-1.3,0.7-2.6,1.1-3.9l0.1-0.3c0.2-0.6,0.4-1.2,0.6-1.8l0,0
				c0.5-1.3,1-2.6,1.6-3.8l0.1-0.2c0.6-1.2,1.2-2.4,1.9-3.6v-0.1c0.3-0.5,0.6-1.1,1-1.6c0.1-0.1,0.1-0.2,0.2-0.3
				c0.3-0.5,0.6-1,1-1.4l0.1-0.2c0.4-0.5,0.7-1,1.1-1.5l0.4-0.4c1.7-2.1,3.5-4.1,5.5-6c0.8-0.8,1.7-1.5,2.6-2.2
				c2.4-1.8,2.9-5.3,1-7.7c-0.1-0.2-0.3-0.4-0.5-0.6l-4-4c-2-2-5.1-2.1-7.3-0.4c-3.1,2.5-5.9,5.3-8.5,8.3l0,0l-0.1,0.1
				c-0.6,0.7-1.1,1.3-1.7,2.1l0,0c-0.5,0.7-1,1.3-1.5,2l-0.2,0.4c-0.8,1.4-1.8,2.9-2.7,4.4l-0.2,0.4c-0.9,1.5-1.7,3-2.5,4.6
				c-0.1,0.1-0.1,0.3-0.2,0.5c-0.3,0.7-0.7,1.5-1,2.2l-0.1,0.2c-0.3,0.8-0.7,1.6-1,2.4l-0.2,0.5c-0.3,0.7-0.5,1.5-0.8,2.2l-0.1,0.4
				c-0.3,0.8-0.5,1.7-0.8,2.5l-0.1,0.5c-0.2,0.7-0.4,1.4-0.6,2.2c0,0.2-0.1,0.4-0.1,0.6c-0.2,0.9-0.4,1.7-0.5,2.6c0,0.1,0,0.2,0,0.4
				c-0.2,0.7-0.3,1.6-0.4,2.3c0,0.2-0.1,0.4-0.1,0.6c-0.1,0.9-0.2,1.8-0.3,2.6c0,0.1,0,0.2,0,0.3c-0.1,0.8-0.1,1.6-0.2,2.4
				c0,0.2,0,0.5,0,0.7c0,0.9,0,1.8,0,2.7h-0.1c0,31.6,22.5,58.8,53.6,64.5c2.2,0.4,3.8,2.3,3.8,4.5V939c0,2.5,2,4.6,4.5,4.6
				c0,0,0,0,0,0h7.3c2.5,0,4.6-2,4.6-4.6l0,0v-24.8c0-2.2,1.6-4,3.7-4.4c13.1-2.4,25.1-8.7,34.5-18.2c3.9-3.9,7.3-8.3,10.1-13.1
				c18.4-31.2,8-71.5-23.3-89.9c-4.2-2.5-8.7-4.5-13.4-6C1680.3,780.6,1673.1,781.1,1666.8,784z M1711.5,866.5
				c-6,12.5-17,21.8-30.3,25.7c-2.4,0.7-4.9-0.7-5.7-3.1c-0.1-0.4-0.2-0.9-0.2-1.3v-80.7c0-4.3,3.5-7.9,7.9-7.8c1,0,2,0.2,3,0.6
				c25,10.5,36.8,39.2,26.3,64.2C1712.2,864.9,1711.9,865.7,1711.5,866.5L1711.5,866.5z"/>
			<g>
				<path class="st20" d="M1474.5,980.4c-1.1-0.1-2.1-0.3-3.1-0.5c-1.3-0.2-2.7-0.2-4-0.2c-0.9,0-2.4,0-3,0.8
					c-0.8,1.3-0.6,7.1-0.6,8.4h8.4c1.9,0,2.8,0.3,2.8,2.4v3.3c0,2.4-0.6,3.2-3,3.2h-8.2v27.6c0,2.2-0.3,3.8-2.9,3.8h-5.3
					c-2.3,0-2.5-1.3-2.5-3.3v-28h-2.5c-1.8,0-2-1.4-2-2.9v-3.6c0-2.9,2.4-2.4,4.6-2.4v-3.3c0-3.5,0.1-7,2.2-9.9
					c3.4-4.7,9.1-4.9,14.5-4.9c1.6,0,5.9,0,7,1.6c0.3,0.5,0.5,1.1,0.4,1.8v0.6C1477,976.4,1477,980.4,1474.5,980.4z M1491.7,982.9
					h-3.3c-3,0-4.5-0.4-4.5-3.8v-2.9c0-2.7,1.1-3.7,3.7-3.7h4c1.8,0,3.3,1.4,3.3,3.3c0,0.1,0,0.3,0,0.4v2.9
					C1495,981.5,1494.3,982.9,1491.7,982.9L1491.7,982.9z M1491.7,1029.1h-3.3c-3,0-4.5-0.4-4.5-3.8v-32.9c0-2.7,1.1-3.7,3.7-3.7h4
					c1.8,0,3.3,1.4,3.3,3.3c0,0.1,0,0.3,0,0.4v32.9C1495,1027.7,1494.3,1029.1,1491.7,1029.1L1491.7,1029.1z"/>
				<path class="st20" d="M1521.8,1030.1c-4,0.1-8-0.1-12-0.6c-2.5-0.3-2.3-1.5-2.3-3.9v-1.5c0-1.8,0.2-3.9,2.4-3.9
					c1.5,0.1,2.9,0.2,4.4,0.5c2.9,0.3,5.8,0.4,8.7,0.4s4.2,0,4.2-3.1c0.1-1,0-1.9-0.5-2.8c-0.7-0.8-8.1-2.9-9.4-3.3
					c-1.6-0.6-3.2-1.2-4.8-1.9c-4.4-2.2-6-4.6-6-9.5c0-12.9,8.7-12.8,19.1-12.8c2.1,0,4.1,0,6.2,0.2c3,0.3,4.2,0.8,4.2,4.1
					c0,2.4,0.2,5.2-3.1,5.2c-1.4,0-2.9-0.3-4.4-0.3c-2.2-0.2-4.5-0.3-6.7-0.3c-3.2,0-4.9-0.4-4.9,3.3c-0.1,0.6,0.1,1.2,0.4,1.6
					c0.8,1.2,8.8,3.3,10.6,3.9c6.6,2.2,9.7,4.4,9.7,11.8C1537.6,1028.6,1532.2,1030.1,1521.8,1030.1z"/>
				<path class="st20" d="M1556.7,982.9h-3.2c-3,0-4.5-0.4-4.5-3.8v-2.9c0-2.7,1.1-3.7,3.7-3.7h3.9c1.8,0,3.3,1.4,3.3,3.3
					c0,0.1,0,0.3,0,0.4v2.9C1560,981.5,1559.3,982.9,1556.7,982.9z M1556.7,1029.1h-3.2c-3,0-4.5-0.4-4.5-3.8v-32.9
					c0-2.7,1.1-3.7,3.7-3.7h3.9c1.8,0,3.3,1.4,3.3,3.3c0,0.1,0,0.3,0,0.4v32.9C1560,1027.7,1559.3,1029.1,1556.7,1029.1z"/>
				<path class="st20" d="M1597.2,1029.8c-2.4,0.2-4.8,0.3-7.1,0.3c-16.4,0-19.2-5.6-19.2-21.2s2.8-21.4,19.2-21.4
					c2.4,0,4.8,0.2,7.1,0.4c2.5,0.3,4.6,0,4.6,2.9v0.2c0,2.1,0,6.6-3,6.6c-1.1,0-2.3-0.1-3.4-0.3c-2.6-0.4-5.2-0.6-7.9-0.7
					c-3.5,0-4.2,0.7-4.9,3.9c-0.5,2.8-0.7,5.6-0.7,8.4c0,2.7,0,5.4,0.3,8c0.3,3.8,1.6,4.2,5.3,4.2c2.7-0.1,5.3-0.3,8-0.7
					c1.1-0.2,2.2-0.3,3.3-0.3c0.8-0.1,1.5,0.2,2,0.8c0.7,0.7,1,4.7,1,5.7C1601.8,1029.7,1599.8,1029.5,1597.2,1029.8z"/>
				<path class="st20" d="M1641.9,1029.1h-4.7c-1.9,0-2.4-1.3-2.4-3c-3.7,2.5-8,4-12.4,4.1c-8.2,0-12-4.5-12-12.5
					c0-9.2,5.5-12.3,13.7-13.1c3.5-0.5,7.1-0.7,10.7-0.7c0-3.4,0.5-8.1-4.2-8.1c-4.1,0.1-8.1,0.7-12.1,1.8c-0.7,0.2-1.3,0.2-2,0.2
					c-2.9,0-2.4-2.9-2.4-5c-0.3-1.6,0.8-3.2,2.3-3.5c4.5-1.1,9.1-1.6,13.8-1.6c4,0,9.2,0.7,12,3.9c3.3,3.7,3.2,8.9,3.2,13.6v20.4
					C1645.3,1027.9,1644.4,1029.1,1641.9,1029.1z M1634.8,1011.4c-1.3,0-2.8-0.2-4.1-0.2c-1.8,0-3.5,0-5.3,0.2
					c-3.5,0.5-4.9,1.6-4.9,5.3c0,2,0.3,5.6,3.1,5.6c4.1-0.2,8-1.6,11.3-4.2L1634.8,1011.4z"/>
				<path class="st20" d="M1664.2,1029.1h-2.9c-3,0-4.5-0.4-4.5-3.8v-50.4c0-2.7,1.1-3.6,3.7-3.6h3.8c1.8-0.1,3.2,1.3,3.3,3.1
					c0,0.2,0,0.4,0,0.6v50.4C1667.5,1027.7,1666.8,1029.1,1664.2,1029.1z"/>
				<path class="st20" d="M1704.4,1029.8c-2.4,0.2-4.8,0.3-7.1,0.3c-16.4,0-19.1-5.6-19.1-21.2s2.8-21.4,19.1-21.4
					c2.4,0,4.8,0.2,7.1,0.4c2.5,0.3,4.6,0,4.6,2.9v0.2c0,2.1,0,6.6-3,6.6c-1.1,0-2.2-0.1-3.3-0.3c-2.6-0.4-5.3-0.6-7.9-0.7
					c-3.5,0-4.2,0.7-4.9,3.9c-0.5,2.8-0.7,5.6-0.7,8.4c0,2.7,0.1,5.4,0.3,8c0.3,3.8,1.6,4.2,5.3,4.2c2.7-0.1,5.3-0.3,8-0.7
					c1.1-0.2,2.2-0.3,3.3-0.3c0.8-0.1,1.5,0.2,2,0.8c0.7,0.7,1,4.7,1,5.7C1709,1029.7,1707,1029.5,1704.4,1029.8z"/>
				<path class="st20" d="M1737.6,1030.2c-14,0-19.3-8.1-19.3-21.2c0-13.2,5.2-21.4,19.3-21.4s19.2,8.1,19.2,21.4
					S1751.7,1030.2,1737.6,1030.2z M1744.5,999.2c-1.5-2.8-4-2.7-6.9-2.7c-2.8,0-5.4,0-6.9,2.7s-1.6,6.8-1.6,9.8
					c0,2.9,0.2,7.1,1.6,9.7c1.5,2.6,4.1,2.6,6.9,2.6s5.4,0,6.9-2.6c1.5-2.6,1.5-6.9,1.5-9.7C1746,1006.1,1745.9,1001.8,1744.5,999.2
					z"/>
				<path class="st20" d="M1797.2,1029.1h-4.7c-1.9,0-2.4-1.3-2.4-3c-3.7,2.6-8,4-12.4,4.1c-8.2,0-12-4.5-12-12.5
					c0-9.2,5.5-12.3,13.7-13.1c3.5-0.5,7.1-0.7,10.7-0.7c0-3.4,0.5-8.1-4.2-8.1c-4.1,0.1-8.1,0.7-12.1,1.8c-0.7,0.2-1.3,0.2-2,0.2
					c-2.9,0-2.4-2.9-2.4-5c-0.3-1.6,0.8-3.2,2.3-3.5c4.5-1.1,9.1-1.7,13.8-1.6c4,0,9.2,0.7,12,3.9c3.3,3.7,3.2,8.9,3.2,13.6v20.4
					C1800.5,1027.9,1799.7,1029.1,1797.2,1029.1z M1790,1011.4c-1.3,0-2.8-0.2-4.1-0.2c-1.8,0-3.5,0-5.3,0.2
					c-3.5,0.5-4.9,1.6-4.9,5.3c0,2,0.3,5.6,3.1,5.6c4.1-0.2,8-1.6,11.3-4.2L1790,1011.4z"/>
				<path class="st20" d="M1837,1029.8c-2.4,0.2-4.8,0.3-7.1,0.3c-16.4,0-19.2-5.6-19.2-21.2s2.8-21.4,19.2-21.4
					c2.4,0,4.8,0.2,7.1,0.4c2.5,0.3,4.6,0,4.6,2.9v0.2c0,2.1,0,6.6-3,6.6c-1.1,0-2.3-0.1-3.4-0.3c-2.6-0.4-5.3-0.6-7.9-0.7
					c-3.5,0-4.2,0.7-4.9,3.9c-0.5,2.8-0.7,5.6-0.7,8.4c0,2.7,0.1,5.4,0.3,8c0.3,3.8,1.6,4.2,5.3,4.2c2.7-0.1,5.3-0.3,8-0.7
					c1.1-0.2,2.2-0.3,3.3-0.3c0.8-0.1,1.5,0.2,2,0.8c0.7,0.7,1,4.7,1,5.7C1841.7,1029.7,1839.7,1029.5,1837,1029.8z"/>
				<path class="st20" d="M1882.6,1029.1h-4.5c-2.4,0-3-1.6-3-3.8v-21.5c0-1.2,0.2-5.8-0.6-6.6s-1.9-0.7-2.7-0.7
					c-3.7,0.2-7.3,1.6-10.2,3.9v25c0,2.3-0.7,3.8-3.3,3.8h-4.5c-2.3,0-3-1.3-3-3.3v-51c0-2.7,1.1-3.6,3.7-3.6h3.9
					c1.8-0.1,3.2,1.3,3.3,3.1c0,0.2,0,0.4,0,0.6v15.5c3.5-1.8,7.4-2.8,11.3-2.9c7.8,0,12.9,3.9,12.9,11.9v25.8
					C1885.8,1027.7,1885.2,1029.1,1882.6,1029.1z"/>
			</g>
		</g>
		<polygon style="clip-path:url(#SVGID_00000033370664803032028250000008518160746930145947_);fill:#EFEFEF;" points="
			1482.5,1093.2 1482.5,1302.2 1510.2,1302.2 1510.2,1134.4 1823.4,1134.4 1823.4,1302.2 1851.8,1302.2 1851.8,1093.2 		"/>
		<path style="clip-path:url(#SVGID_00000033370664803032028250000008518160746930145947_);fill:#686868;" d="M1374.5,1061.8V1330
			c0,17.3,14,31.4,31.4,31.4c17.3,0,31.4-14,31.4-31.4v-268.2H1374.5z"/>
		<path style="clip-path:url(#SVGID_00000033370664803032028250000008518160746930145947_);fill:#686868;" d="M1897,1061.8V1330
			c0,17.3,14,31.4,31.4,31.4c17.3,0,31.4-14,31.4-31.4v-268.2H1897z"/>
		<path style="opacity:0.5;clip-path:url(#SVGID_00000033370664803032028250000008518160746930145947_);fill:#686868;" d="
			M1374.5,1061.8V1330c0,17.3,14,31.4,31.4,31.4c17.3,0,31.4-14,31.4-31.4v-268.2H1374.5z"/>
		<g style="clip-path:url(#SVGID_00000033370664803032028250000008518160746930145947_);">
			<polygon class="st17" points="985.9,1093.2 930.2,1176.1 943.2,1199.5 1014.8,1093.2 			"/>
			<polygon class="st17" points="1318.1,1218.6 1343.2,1181.3 1343.2,1141.8 1290.9,1218.6 			"/>
			<polygon class="st17" points="1273.8,1093.2 1191,1218.6 1220.5,1218.6 1302.8,1093.2 			"/>
			<polygon class="st17" points="1313.7,1093.2 1228.4,1218.6 1270.3,1218.6 1343.2,1110.1 1343.2,1093.2 			"/>
			<polygon class="st17" points="1168,1093.2 1080.4,1218.6 1136.5,1218.6 1224.2,1093.2 			"/>
			<polygon class="st17" points="1045.9,1093.2 963.5,1218.6 1022.5,1218.6 1105.5,1093.2 			"/>
			<polygon class="st17" points="884.2,1093.2 913.1,1145.2 948.8,1093.2 			"/>
		</g>
		<path style="opacity:0.5;clip-path:url(#SVGID_00000033370664803032028250000008518160746930145947_);fill:#686868;" d="
			M1897,1061.8V1330c0,17.3,14,31.4,31.4,31.4c17.3,0,31.4-14,31.4-31.4v-268.2H1897z"/>
		
			<rect x="1343.2" y="1181.3" style="clip-path:url(#SVGID_00000033370664803032028250000008518160746930145947_);fill:#374F82;" width="0" height="1.9"/>
		
			<rect x="1343.2" y="1122.4" style="clip-path:url(#SVGID_00000033370664803032028250000008518160746930145947_);fill:#374F82;" width="0" height="1.9"/>
		<path style="clip-path:url(#SVGID_00000033370664803032028250000008518160746930145947_);fill:#374F82;" d="M1281.4,1124.2h61.8
			v-1.9h-61.8v-29.2h-1.9v29.2h-57.3v-29.2h-1.9v29.2H1163v-29.2h-1.9v29.2h-60.8v-29.2h-1.9v29.2H1041v-29.2h-1.9v29.2h-57.3v-29.2
			h-1.9v29.2h-60.8v-29.2h-1.9v29.2h-16.8l1,1.9h15.8v28.5l1.9,3.4v-31.9h60.8v57h-46.8l1,1.9h45.8v35.4h1.9v-35.4h57.3v35.4h1.9
			v-35.4h57.3v35.4h1.9v-35.4h60.8v35.4h1.9v-35.4h57.3v35.4h1.9v-35.4h57.3v35.4h1.9v-35.4h61.8v-1.9h-61.8V1124.2z M1039.2,1181.3
			h-57.3v-57h57.3V1181.3z M1098.4,1181.3H1041v-57h57.3V1181.3z M1161.1,1181.3h-60.8v-57h60.8V1181.3z M1220.3,1181.3H1163v-57
			h57.3V1181.3z M1279.5,1181.3h-57.3v-57h57.3V1181.3z"/>
		
			<rect x="1342.1" y="945.6" style="clip-path:url(#SVGID_00000033370664803032028250000008518160746930145947_);fill:#374F82;" width="0.1" height="1.9"/>
		
			<rect x="1342" y="1004.5" style="clip-path:url(#SVGID_00000033370664803032028250000008518160746930145947_);fill:#374F82;" width="0.2" height="1.9"/>
		<polygon style="clip-path:url(#SVGID_00000033370664803032028250000008518160746930145947_);fill:#374F82;" points="858,1038.4 
			858,1038.3 859.9,1041.8 859.9,1041.7 858,1038.3 		"/>
		
			<rect x="1342.2" y="886.6" style="clip-path:url(#SVGID_00000033370664803032028250000008518160746930145947_);fill:#374F82;" width="0.1" height="1.9"/>
		<polygon style="clip-path:url(#SVGID_00000033370664803032028250000008518160746930145947_);fill:#6BD8F9;" points="870.5,1060.9 
			888.9,1060.9 766,835.9 1342.2,835.9 1342.2,822.4 739,822.4 		"/>
		<g style="clip-path:url(#SVGID_00000033370664803032028250000008518160746930145947_);">
			<polygon class="st17" points="772.1,822.4 753.9,849.5 766,871.3 799.3,822.4 			"/>
			<polygon class="st17" points="869.8,822.4 798.7,930.6 811.8,954.5 899.2,822.4 			"/>
			<polygon class="st17" points="1167.7,822.4 1007.6,1060.9 1036.6,1060.9 1197.2,822.4 			"/>
			<polygon class="st17" points="819.9,822.4 775.5,888.6 794,922.1 861.8,822.4 			"/>
			<polygon class="st17" points="951.8,822.4 832.8,992.5 857.6,1037.6 1007.9,822.4 			"/>
			<polygon class="st17" points="1342,1033.4 1342.1,989.7 1295.1,1060.9 1324,1060.9 			"/>
			<polygon class="st17" points="1342.2,843.8 1190.5,1060.9 1246.8,1060.9 1342.1,924.6 			"/>
			<polygon class="st17" points="1224,822.4 1067.2,1060.9 1126.9,1060.9 1284.7,822.4 			"/>
			<polygon class="st17" points="1048.2,822.4 886.2,1060.9 971,1060.9 1134.7,822.4 			"/>
		</g>
		<polygon style="clip-path:url(#SVGID_00000033370664803032028250000008518160746930145947_);fill:#374F82;" points="798.8,930.9 
			800.7,934.3 800.7,934.3 798.8,930.9 		"/>
		<path style="clip-path:url(#SVGID_00000033370664803032028250000008518160746930145947_);fill:#374F82;" d="M1281.4,886.6v-64.2
			h-1.9v64.2h-57.3v-64.2h-1.9v64.2H1163v-64.2h-1.9v64.2h-60.8v-64.2h-1.9v64.2H1041v-64.2h-1.9v64.2h-57.3v-64.2h-1.9v64.2h-60.8
			v-64.2h-1.9v64.2h-57.3v-64.2H858v64.2h-57.3v-64.2h-1.9v64.2h-24.4l1,1.9h23.4v42.4l1.9,3.4v-45.8H858v57.1h-51.1l1,1.9H858v57
			h-18.6l1,1.9H858v31.9l1.9,3.4v-35.3h57.3v54.5h1.9v-54.5h60.8v54.5h1.9v-54.5h57.3v54.5h1.9v-54.5h57.3v54.5h1.9v-54.5h60.8v54.5
			h1.9v-54.5h57.3v54.5h1.9v-54.5h57.3v54.5h1.9v-54.5h60.6l0-1.9h-60.6v-57h60.7l0-1.9h-60.7v-57.1h60.8l0-1.9H1281.4z
			 M917.2,1004.5h-57.3v-57h57.3V1004.5z M917.2,945.6h-57.3v-57.1h57.3V945.6z M979.9,1004.5h-60.8v-57h60.8V1004.5z M979.9,945.6
			h-60.8v-57.1h60.8V945.6z M1039.2,1004.5h-57.3v-57h57.3V1004.5z M1039.2,945.6h-57.3v-57.1h57.3V945.6z M1098.4,1004.5H1041v-57
			h57.3V1004.5z M1098.4,945.6H1041v-57.1h57.3V945.6z M1161.1,1004.5h-60.8v-57h60.8V1004.5z M1161.1,945.6h-60.8v-57.1h60.8V945.6
			z M1220.3,1004.5H1163v-57h57.3V1004.5z M1220.3,945.6H1163v-57.1h57.3V945.6z M1279.5,1004.5h-57.3v-57h57.3V1004.5z
			 M1279.5,945.6h-57.3v-57.1h57.3V945.6z"/>
		
			<rect x="1642.7" y="1134.4" style="clip-path:url(#SVGID_00000033370664803032028250000008518160746930145947_);fill:#6BD9FC;" width="48.8" height="167.8"/>
		<path style="opacity:0.5;clip-path:url(#SVGID_00000033370664803032028250000008518160746930145947_);fill:#8FF469;" d="
			M-14.4,1296.3c-29,16.9-44.7-9.7-44.7-9.7c-37.5-10.9-13.3-41.1-13.3-41.1c-24.2-30.2,18.1-37.5,18.1-37.5
			c1.2-26.6,34.7-28.9,34.7-28.9c-3.4-2.8-7.7-4.5-12.4-4.5c-5,0-9.6,1.9-13.1,5.1c-7.7-10.6-20.2-17.5-34.3-17.5
			c-19.1,0-35.2,12.6-40.5,29.9c-13.9,4.6-23.9,17.5-24.4,32.8c-14.7,4.5-25.4,18.1-25.4,34.3c0,18.5,14.1,33.8,32.1,35.6
			c6.5,9,17.1,14.9,29.1,14.9c6.8,0,13.2-1.9,18.6-5.2c6.4,6,15,9.6,24.4,9.6c2,0,3.9-0.2,5.8-0.5c6.4,9.8,17.4,16.2,30,16.2
			c10.3,0,19.6-4.3,26.1-11.3c3.7,1.3,7.6,2,11.7,2c5.8,0,11.2-1.4,16-3.8C-12.3,1329.1-14.4,1296.3-14.4,1296.3z"/>
		<path style="opacity:0.5;clip-path:url(#SVGID_00000033370664803032028250000008518160746930145947_);fill:#8FF469;" d="
			M637.4,1349.5c-44.7,9.7-35.1-29-35.1-29c-46-8.5-24.2-41.1-24.2-41.1c-7.3-49.6,52-36.3,52-36.3c-3.6-32.7,40.2-37.6,40.2-37.6
			c-6.6-11.4-18.9-19.1-33-19.1c-21,0-38.1,17-38.1,38.1c0,1.8,0.1,3.6,0.4,5.3c-3.8-2.5-8.3-4-13.2-4c-3.9,0-7.7,1-10.9,2.7
			c-5.7-12.5-18.4-21.2-33-21.2c-20.1,0-36.3,16.3-36.3,36.3c0,3.8,0.6,7.5,1.7,10.9c-0.6,0-1.1,0-1.7,0
			c-19.5,0-35.3,15.8-35.3,35.3s15.8,35.3,35.3,35.3c4.9,0,9.6-1,13.8-2.8c6.5,16.7,22.7,28.5,41.6,28.5c4.2,0,8.3-0.6,12.2-1.7
			c8.1,8.6,19.7,14.1,32.5,14.1c3.3,0,6.5-0.4,9.5-1c8.2,10.4,20.9,17.1,35.2,17.1c12.2,0,23.2-4.9,31.2-12.7
			C644.8,1384.3,637.4,1349.5,637.4,1349.5z"/>
		<path style="clip-path:url(#SVGID_00000033370664803032028250000008518160746930145947_);fill:#6DC44D;" d="M1176.1,1262
			c-0.4-11.5-8-21.3-18.4-24.8c-4-13.1-16.2-22.5-30.5-22.5c-15.8,0-28.9,11.5-31.5,26.5c-1.9-0.6-3.9-0.9-6-0.9
			c-9.5,0-17.5,6.1-20.4,14.6c-1.1-0.8-2.3-1.4-3.6-1.8c-1.9-10.8-11.3-19-22.7-19c-0.4,0-0.7,0-1.1,0c-4-6.9-11.4-11.6-20-11.6
			c-12.7,0-23,10.3-23,23c0,1.1,0.1,2.1,0.2,3.2c-2.3-1.5-5-2.4-8-2.4c-2.4,0-4.6,0.6-6.6,1.6c-3.5-7.6-11.1-12.8-20-12.8
			c-12.1,0-22,9.8-22,22c0,2.3,0.4,4.5,1,6.6c-0.3,0-0.7,0-1,0c-11.8,0-21.3,9.5-21.3,21.3s9.5,21.3,21.3,21.3c3,0,5.8-0.6,8.4-1.7
			c3.9,10.1,13.7,17.2,25.2,17.2c2.6,0,5-0.4,7.4-1c4.9,5.2,11.9,8.5,19.7,8.5c2,0,3.9-0.2,5.8-0.6c4.9,6.3,12.6,10.3,21.3,10.3
			c7.4,0,14-2.9,18.9-7.7c3.6,1.8,7.7,2.9,12.1,2.9c3.1,0,6.1-0.5,8.8-1.5c4.9,5.2,11.9,8.5,19.7,8.5c9.5,0,17.8-4.9,22.6-12.2
			c1.4,0.2,2.9,0.4,4.4,0.4c7.1,0,13.6-2.8,18.4-7.2c4.1,2.5,8.9,3.9,14,3.9c9,0,17-4.4,21.9-11.3c13.6-1.4,24.2-12.9,24.2-26.9
			C1195.3,1275.7,1187.2,1265.4,1176.1,1262z"/>
		<path style="opacity:0.5;clip-path:url(#SVGID_00000033370664803032028250000008518160746930145947_);fill:#6DC44D;" d="
			M1040.1,1319.6c-21.8,5.6-23.4-16.1-23.4-16.1c-21-8.9-1.6-29-1.6-29c-16.9-20.2,15.3-25.8,15.3-25.8c12.1-20.2,35.3,4.5,35.3,4.5
			c-1.9-10.8-11.3-19-22.7-19c-0.4,0-0.7,0-1.1,0c-4-6.9-11.4-11.6-20-11.6c-12.7,0-23,10.3-23,23c0,1.1,0.1,2.1,0.2,3.2
			c-2.3-1.5-5-2.4-8-2.4c-2.4,0-4.6,0.6-6.6,1.6c-3.5-7.6-11.1-12.8-20-12.8c-12.1,0-22,9.8-22,22c0,2.3,0.4,4.5,1,6.6
			c-0.3,0-0.7,0-1,0c-11.8,0-21.3,9.5-21.3,21.3c0,11.8,9.5,21.3,21.3,21.3c3,0,5.8-0.6,8.4-1.7c3.9,10.1,13.7,17.2,25.2,17.2
			c2.6,0,5-0.4,7.4-1c4.9,5.2,11.9,8.5,19.7,8.5c2,0,3.9-0.2,5.8-0.6c4.9,6.3,12.6,10.3,21.3,10.3c7.4,0,14-2.9,18.9-7.7
			c3.6,1.8,7.7,2.9,12.1,2.9c3.1,0,6.1-0.5,8.8-1.5C1049.9,1337.8,1040.1,1319.6,1040.1,1319.6z"/>
		<path style="opacity:0.5;clip-path:url(#SVGID_00000033370664803032028250000008518160746930145947_);fill:#6DC44D;" d="
			M1327.1,1323.7c-23.4,11.3-24.2-8.9-24.2-8.9c-26.6-2.4-16.1-26.6-16.1-26.6c-8.9-25,22.6-21.8,22.6-21.8c-13.7-0.6-3.2-17,3-11.4
			c-1.1-0.8-2.3-1.4-3.6-1.8c-1.9-10.8-11.3-19-22.7-19c-0.4,0-0.7,0-1.1,0c-4-6.9-11.4-11.6-20-11.6c-12.7,0-23,10.3-23,23
			c0,1.1,0.1,2.1,0.2,3.2c-2.3-1.5-5-2.4-8-2.4c-2.4,0-4.6,0.6-6.6,1.6c-3.5-7.6-11.1-12.8-20-12.8c-12.1,0-22,9.8-22,22
			c0,2.3,0.4,4.5,1,6.6c-0.3,0-0.7,0-1,0c-10,0-18.4,6.9-20.7,16.2l-0.6,5.1l14.1,20c2.3,0.8,4.7,1.3,7.2,1.3c3,0,5.8-0.6,8.4-1.7
			c3.9,10.1,13.7,17.2,25.2,17.2c2.6,0,5-0.4,7.4-1c4.9,5.2,11.9,8.5,19.7,8.5c2,0,3.9-0.2,5.8-0.6c4.9,6.3,12.6,10.3,21.3,10.3
			c7.4,0,14-2.9,18.9-7.7c3.6,1.8,7.7,2.9,12.1,2.9c3.1,0,6.1-0.5,8.8-1.5c4.9,5.2,11.9,8.5,19.7,8.5c9.5,0,17.8-4.9,22.6-12.2
			C1336.9,1344.8,1327.1,1323.7,1327.1,1323.7z"/>
		<path style="opacity:0.5;clip-path:url(#SVGID_00000033370664803032028250000008518160746930145947_);fill:#8FF469;" d="
			M2136.9,1307.2c-37.5,9.7-38.7-26.6-38.7-26.6c-38.7,0-26.6-32.7-26.6-32.7c-24.2-23,10.9-38.7,10.9-38.7
			c-9.7-25.4,24.3-33.4,24.3-33.4c-4.1-2-8.7-3.2-13.6-3.2c-7.4,0-14.2,2.7-19.5,7.1c-4.8-7.7-13.3-12.9-23.1-12.9
			c-13.7,0-25,10.2-26.8,23.3c-2.1-0.5-4.3-0.8-6.6-0.8c-16.1,0-29.1,13-29.1,29.1c0,3,0.5,6,1.3,8.7c-0.4,0-0.9,0-1.3,0
			c-15.6,0-28.3,12.7-28.3,28.3c0,15.6,12.7,28.3,28.3,28.3c3.9,0,7.7-0.8,11.1-2.3c5.2,13.4,18.2,22.8,33.4,22.8
			c3.4,0,6.7-0.5,9.8-1.4c6.5,6.9,15.8,11.3,26.1,11.3c2.6,0,5.2-0.3,7.6-0.8c6.6,8.4,16.7,13.7,28.2,13.7c9.8,0,18.6-3.9,25.1-10.2
			c4.8,2.4,10.3,3.8,16,3.8c4.1,0,8.1-0.7,11.7-2C2139.6,1320.7,2136.9,1307.2,2136.9,1307.2z"/>
		<polygon style="clip-path:url(#SVGID_00000033370664803032028250000008518160746930145947_);fill:#CCCCCC;" points="
			1482.5,1302.2 1049.1,2139.8 2234.6,2139.8 1851.8,1302.2 		"/>
	</g>
</g>
</svg>
