<svg xmlns="http://www.w3.org/2000/svg" width="25.643" height="25.643" viewBox="0 0 25.643 25.643"><defs><style>.a{fill:none;stroke:#050c44;stroke-width:2px;}</style></defs><g transform="translate(1 1)"><path class="a" d="M23.086,9.129l-1.817-.4a9.889,9.889,0,0,0-.585-1.41L21.69,5.759a.707.707,0,0,0-.095-.882L18.765,2.047a.707.707,0,0,0-.882-.095L16.318,2.958a9.889,9.889,0,0,0-1.41-.585l-.4-1.817A.706.706,0,0,0,13.823,0h-4a.706.706,0,0,0-.69.556l-.4,1.817a9.889,9.889,0,0,0-1.41.585L5.759,1.952a.707.707,0,0,0-.882.095L2.047,4.878a.707.707,0,0,0-.095.882L2.958,7.324a9.889,9.889,0,0,0-.585,1.41l-1.817.4A.707.707,0,0,0,0,9.819v4a.707.707,0,0,0,.556.69l1.817.4a9.889,9.889,0,0,0,.585,1.41L1.952,17.883a.707.707,0,0,0,.095.882L4.878,21.6a.707.707,0,0,0,.882.095l1.565-1.006a9.889,9.889,0,0,0,1.41.585l.4,1.817a.706.706,0,0,0,.69.556h4a.706.706,0,0,0,.69-.556l.4-1.817a9.889,9.889,0,0,0,1.41-.585l1.565,1.006a.706.706,0,0,0,.882-.095L21.6,18.765a.707.707,0,0,0,.095-.882l-1.006-1.565a9.89,9.89,0,0,0,.585-1.41l1.817-.4a.707.707,0,0,0,.556-.69v-4A.707.707,0,0,0,23.086,9.129ZM16.06,11.821a4.239,4.239,0,1,1-4.239-4.239A4.244,4.244,0,0,1,16.06,11.821Zm0,0" transform="translate(0 0)"/></g></svg>