<svg xmlns="http://www.w3.org/2000/svg" viewBox="0 0 568.71 479.18"><defs><style>.cls-1{fill:#0065e9;}</style></defs><g id="Capa_2" data-name="Capa 2"><g id="Capa_1-2" data-name="Capa 1"><polygon class="cls-1" points="131.49 240.71 88.28 240.71 88.28 195.38 88.28 185.38 78.28 185.38 63.21 185.38 53.21 185.38 53.21 195.38 53.21 240.71 10 240.71 0 240.71 0 250.71 0 264.84 0 274.84 10 274.84 53.21 274.84 53.21 320.63 53.21 330.63 63.21 330.63 78.28 330.63 88.28 330.63 88.28 320.63 88.28 274.84 131.49 274.84 141.49 274.84 141.49 264.84 141.49 250.71 141.49 240.71 131.49 240.71"/><path class="cls-1" d="M559.1,232a36.57,36.57,0,0,0-9.94-25.66A36.85,36.85,0,0,0,532.36,137l-44-.59A229.15,229.15,0,0,0,449,84.18a170.18,170.18,0,0,0-3.42-37l-4.25-20.7a33.21,33.21,0,0,0-65.74,6.23c0,.72,0,1.45-.05,2.17A231.31,231.31,0,0,0,78.85,145.28q-2.79,5.59-5.24,11.3L186,158l-.13,16.38a7.95,7.95,0,0,0,15.89.12l.13-16.26,57.77.86a5.79,5.79,0,0,1,5.7,5.86l-2.62,193.89a5.77,5.77,0,0,1-5.86,5.7h0l-56.59-.77,1.22-157.25a7.95,7.95,0,0,0-15.89-.13l-1.22,157.17-99.54-1.47q3.62,6.4,7.68,12.62A231.31,231.31,0,0,0,421.36,435.4a7.95,7.95,0,0,0-9.31-12.88,215.55,215.55,0,0,1-297.38-44l77.53,1.05h0l64.43.88h0a21.67,21.67,0,0,0,22-21.38l0-1.28,12.52.16a35.39,35.39,0,0,1,23.91,9.71,51.19,51.19,0,0,0,34.61,14l103.82,1.41a214,214,0,0,1-15,16.78,7.94,7.94,0,0,0,0,11.24,8.21,8.21,0,0,0,1.12.94,8,8,0,0,0,10.11-1,233,233,0,0,0,23.5-27.72l29.25.4a36.85,36.85,0,0,0,27.41-62,36.8,36.8,0,0,0,9.61-57.67,37,37,0,0,0,8.41-6.14A36.62,36.62,0,0,0,559.1,232Zm-115-109.62a168.91,168.91,0,0,0,3.26-16.89,213.7,213.7,0,0,1,22.55,30.62l-29.12-.39ZM275.1,149.78a21.54,21.54,0,0,0-15.23-6.56l-65.81-.89h0l-94.92-1.28q4.19-7.29,8.94-14.28a215.31,215.31,0,0,1,265.44-75.4,98.1,98.1,0,0,1-29.4,51.91L281,161.52A21.55,21.55,0,0,0,275.1,149.78ZM502.85,210.3l19.7.27a21,21,0,0,1-.58,41.92l-28.52-.38a7.94,7.94,0,0,0-4.57,14.51,7.86,7.86,0,0,0,4.36,1.38l4.41.06,15.27.2a21,21,0,0,1-.56,41.93L498.11,310h-.22l-14.05-.19a7.95,7.95,0,1,0-.21,15.89l4.41.06h0l15.26.21a21,21,0,1,1-.57,41.92l-33.44-.45h0l-119.38-1.61a35.34,35.34,0,0,1-23.9-9.7,51.32,51.32,0,0,0-34.62-14.05l-12.51-.16L281,183.1,354.89,115A114.21,114.21,0,0,0,390.2,48.34c.05-.25.09-.51.12-.77A112.69,112.69,0,0,0,391.47,33a17.32,17.32,0,0,1,34.28-3.25L430,50.43a155.25,155.25,0,0,1-1.38,68.16l-5.71,23,0,.13a.94.94,0,0,1,0,.16,3.55,3.55,0,0,0-.06.4,7,7,0,0,0-.1,1.12,7.93,7.93,0,0,0,7.83,8.05l101.63,1.38a21,21,0,1,1-.56,41.92l-8.83-.12h0l-19.69-.26h-.39a7.94,7.94,0,0,0,.18,15.87Z"/></g></g></svg>