<svg xmlns="http://www.w3.org/2000/svg" width="22.213" height="24.777" viewBox="0 0 22.213 24.777">
  <path id="approval" d="M10.4,23.809a.968.968,0,0,1-.968.968H3.871A3.876,3.876,0,0,1,0,20.906V3.871A3.876,3.876,0,0,1,3.871,0h11.9a3.876,3.876,0,0,1,3.871,3.871V14.131a.968.968,0,0,1-1.936,0V3.871a1.938,1.938,0,0,0-1.936-1.936H3.871A1.938,1.938,0,0,0,1.936,3.871V20.906a1.938,1.938,0,0,0,1.936,1.936H9.437a.968.968,0,0,1,.968.968Zm11.4-8.046a.968.968,0,0,0-1.35.223l-4.771,6.664a.553.553,0,0,1-.8.041L11.8,19.726a.968.968,0,0,0-1.341,1.4l3.091,2.969a2.5,2.5,0,0,0,1.717.686q.082,0,.164-.005a2.494,2.494,0,0,0,1.774-.924l.033-.043,4.79-6.691a.968.968,0,0,0-.224-1.35Zm-7-9.956H4.834a.968.968,0,1,0,0,1.936H14.8a.968.968,0,0,0,0-1.936Zm.968,4.839a.968.968,0,0,0-.968-.968H4.834a.968.968,0,1,0,0,1.936H14.8A.968.968,0,0,0,15.771,10.647ZM4.834,13.55a.968.968,0,1,0,0,1.936h6.054a.968.968,0,0,0,0-1.936Zm0,0" fill="#0065e9"/>
</svg>
