<svg xmlns="http://www.w3.org/2000/svg" width="16.915" height="16.93" viewBox="0 0 16.915 16.93"><defs><style>.a{opacity:0.57;}.b{fill:#050c44;}</style></defs><g class="a" transform="translate(-0.213)"><g transform="translate(0.213 7.759)"><g transform="translate(0)"><path class="b" d="M4.093,234.667H.566a.353.353,0,0,0-.353.353v8.465a.353.353,0,0,0,.353.353H4.093a.353.353,0,0,0,.353-.353V235.02A.352.352,0,0,0,4.093,234.667Z" transform="translate(-0.213 -234.667)"/></g></g><g transform="translate(6.547)"><path class="b" d="M195.666,0h-3.527a.353.353,0,0,0-.353.353V16.577a.353.353,0,0,0,.353.353h3.527a.353.353,0,0,0,.353-.353V.353A.353.353,0,0,0,195.666,0Z" transform="translate(-191.786)"/></g><g transform="translate(12.896 3.527)"><path class="b" d="M387.666,106.667h-3.527a.353.353,0,0,0-.353.353v12.7a.353.353,0,0,0,.353.353h3.527a.353.353,0,0,0,.353-.353v-12.7A.353.353,0,0,0,387.666,106.667Z" transform="translate(-383.786 -106.667)"/></g></g></svg>