<svg xmlns="http://www.w3.org/2000/svg" width="14.185" height="16.211" viewBox="0 0 14.185 16.211">
  <path id="Icon_awesome-book" data-name="Icon awesome-book" d="M14.185,11.4V.76a.758.758,0,0,0-.76-.76H3.04A3.04,3.04,0,0,0,0,3.04V13.171a3.04,3.04,0,0,0,3.04,3.04H13.425a.758.758,0,0,0,.76-.76v-.507a.766.766,0,0,0-.282-.592,7.061,7.061,0,0,1,0-2.365A.755.755,0,0,0,14.185,11.4ZM4.053,4.243a.191.191,0,0,1,.19-.19h6.712a.191.191,0,0,1,.19.19v.633a.191.191,0,0,1-.19.19H4.243a.191.191,0,0,1-.19-.19Zm0,2.026a.191.191,0,0,1,.19-.19h6.712a.191.191,0,0,1,.19.19V6.9a.191.191,0,0,1-.19.19H4.243a.191.191,0,0,1-.19-.19Zm8.023,7.915H3.04a1.013,1.013,0,1,1,0-2.026h9.036A11.4,11.4,0,0,0,12.076,14.185Z" fill="#050c44"/>
</svg>
