<?xml version="1.0" encoding="utf-8"?>
<!-- Generator: Adobe Illustrator 25.4.1, SVG Export Plug-In . SVG Version: 6.00 Build 0)  -->
<svg version="1.1" xmlns="http://www.w3.org/2000/svg" xmlns:xlink="http://www.w3.org/1999/xlink" x="0px" y="0px"
	 viewBox="0 0 1080 1080" style="enable-background:new 0 0 1080 1080;" xml:space="preserve">
<style type="text/css">
	.st0{fill:#C4C4C4;}
	.st1{clip-path:url(#SVGID_00000145762443598141845900000014942027479065642651_);fill:#7F7F7F;}
	.st2{opacity:0.5;clip-path:url(#SVGID_00000145762443598141845900000014942027479065642651_);fill:#7F7F7F;}
	.st3{clip-path:url(#SVGID_00000145762443598141845900000014942027479065642651_);fill:#F4F4F4;}
	.st4{clip-path:url(#SVGID_00000145762443598141845900000014942027479065642651_);fill:none;}
	.st5{clip-path:url(#SVGID_00000145762443598141845900000014942027479065642651_);fill:#FFFFFF;}
	.st6{clip-path:url(#SVGID_00000145762443598141845900000014942027479065642651_);fill:#EAEAEA;}
	.st7{clip-path:url(#SVGID_00000145762443598141845900000014942027479065642651_);fill:#464237;}
	.st8{opacity:0.5;clip-path:url(#SVGID_00000145762443598141845900000014942027479065642651_);fill:#464237;}
	.st9{fill:#7F7F7F;}
	.st10{fill:#FFFFFF;}
	.st11{fill:#A0A0A0;}
	.st12{fill:#C9C9C9;}
</style>
<g id="Capa_4">
	<circle class="st0" cx="540" cy="540" r="540"/>
</g>
<g id="Capa_2">
	<g>
		<defs>
			<circle id="SVGID_1_" cx="540" cy="540" r="540"/>
		</defs>
		<clipPath id="SVGID_00000067209958881484809460000012868764247874577038_">
			<use xlink:href="#SVGID_1_"  style="overflow:visible;"/>
		</clipPath>
		<path style="clip-path:url(#SVGID_00000067209958881484809460000012868764247874577038_);fill:#7F7F7F;" d="M772.9,892.5
			c0,0-2.5,141,11.6,187.5H344.9c0,0,20.3-90.9,25.5-147.5l258.7-49L772.9,892.5z"/>
		<path style="opacity:0.5;clip-path:url(#SVGID_00000067209958881484809460000012868764247874577038_);fill:#7F7F7F;" d="
			M426.1,1080c-2.7-35.5,6.2-88.5,34.4-103.9c30.9-16.7,129.9-47.6,153-53.7c23.1-6.1,64-25,64-25l-37.6-24.7l-81.5,33.5
			l-188.1,26.4c-5.1,56.5-25.5,147.5-25.5,147.5H426.1z"/>
		<path style="clip-path:url(#SVGID_00000067209958881484809460000012868764247874577038_);fill:#F4F4F4;" d="M665.4,332.4
			c0,0-1.1,46.5,4.1,54.2s11.5,28.5,60.1,46l-20.2,68.5l-44,81.6l-114.1,10.9l-65.6-28.9l-50.8-124.1l5.5-15.8
			c0,0,33.1-6.8,51.8-38.9l-7.7-98.4l90.2,111.2L665.4,332.4z"/>
		<path style="clip-path:url(#SVGID_00000067209958881484809460000012868764247874577038_);fill:#F4F4F4;" d="M562.5,536.8
			c0,0,33.1-10.6,7.8-29.9s-32.6-31.8-29.4-66.2c3.2-34.4,39.3-35.3,39.3-35.3c-44.3-9.4-67.6-65-77-94.4l-14.8-18.2h-3.7l7.3,93.3
			c-18.6,32.1-51.8,38.9-51.8,38.9l-4.1,11.9l45.6,117.3l69.4,39.5l19.1-12.6C539.2,570.4,562.5,536.8,562.5,536.8z"/>
		<path style="clip-path:url(#SVGID_00000067209958881484809460000012868764247874577038_);fill:none;" d="M718.4,672.7l-0.9,8.2
			l5.3,17.5c1.9-8.7,5.2-17.2,9.4-25C725.6,673,720.8,672.7,718.4,672.7z"/>
		<path style="clip-path:url(#SVGID_00000067209958881484809460000012868764247874577038_);fill:none;" d="M473.7,724.1
			c0.4,0,5.4,0.2,9.8,0.4C480.7,724.4,477.2,724.2,473.7,724.1z"/>
		<path style="clip-path:url(#SVGID_00000067209958881484809460000012868764247874577038_);fill:none;" d="M718.4,672.7l-0.9,8.2
			l5.3,17.5c0,0,0,0,0,0c1.9-8.7,5.2-17.2,9.4-25C725.6,673,720.8,672.7,718.4,672.7z"/>
		<path style="clip-path:url(#SVGID_00000067209958881484809460000012868764247874577038_);fill:none;" d="M722.2,701.2
			c0-0.2,0.1-0.4,0.1-0.6C722.2,700.7,722.2,701,722.2,701.2z"/>
		<path style="clip-path:url(#SVGID_00000067209958881484809460000012868764247874577038_);fill:none;" d="M721.7,703.8
			c0-0.2,0.1-0.5,0.1-0.7C721.8,703.3,721.8,703.6,721.7,703.8z"/>
		<path style="clip-path:url(#SVGID_00000067209958881484809460000012868764247874577038_);fill:none;" d="M472.7,724.1
			c0.4,0,0.7,0,1,0C473.4,724.1,473,724.1,472.7,724.1z"/>
		<path style="clip-path:url(#SVGID_00000067209958881484809460000012868764247874577038_);fill:#7F7F7F;" d="M471.4,724
			c0.4,0,0.9,0,1.3,0C472.2,724,471.7,724,471.4,724z"/>
		<path style="clip-path:url(#SVGID_00000067209958881484809460000012868764247874577038_);fill:#F4F4F4;" d="M471.4,724
			c0.4,0,0.9,0,1.3,0C472.2,724,471.7,724,471.4,724z"/>
		<path style="clip-path:url(#SVGID_00000067209958881484809460000012868764247874577038_);fill:#7F7F7F;" d="M490.4,724.8
			C490.4,724.8,490.3,724.8,490.4,724.8c-0.1,0-0.2,0-0.3,0c0,0,0,0,0,0c-0.7,0-3.5-0.1-6.5-0.2
			C487.6,724.7,490.5,724.8,490.4,724.8C490.5,724.8,490.4,724.8,490.4,724.8z"/>
		<path style="clip-path:url(#SVGID_00000067209958881484809460000012868764247874577038_);fill:#F4F4F4;" d="M490.4,724.8
			C490.4,724.8,490.3,724.8,490.4,724.8c-0.1,0-0.2,0-0.3,0c0,0,0,0,0,0c-0.7,0-3.5-0.1-6.5-0.2
			C487.6,724.7,490.5,724.8,490.4,724.8C490.5,724.8,490.4,724.8,490.4,724.8z"/>
		<path style="clip-path:url(#SVGID_00000067209958881484809460000012868764247874577038_);fill:#7F7F7F;" d="M473.7,724.1
			C473.7,724.1,473.7,724.1,473.7,724.1C473.7,724.1,473.7,724.1,473.7,724.1C473.7,724.1,473.7,724.1,473.7,724.1z"/>
		<path style="clip-path:url(#SVGID_00000067209958881484809460000012868764247874577038_);fill:#F4F4F4;" d="M473.7,724.1
			C473.7,724.1,473.7,724.1,473.7,724.1C473.7,724.1,473.7,724.1,473.7,724.1C473.7,724.1,473.7,724.1,473.7,724.1z"/>
		<path style="clip-path:url(#SVGID_00000067209958881484809460000012868764247874577038_);fill:#7F7F7F;" d="M722.3,700.5
			c0.1-0.7,0.3-1.4,0.4-2C722.6,699.2,722.4,699.9,722.3,700.5z"/>
		<path style="clip-path:url(#SVGID_00000067209958881484809460000012868764247874577038_);fill:#F4F4F4;" d="M722.3,700.5
			c0.1-0.7,0.3-1.4,0.4-2C722.6,699.2,722.4,699.9,722.3,700.5z"/>
		<path style="clip-path:url(#SVGID_00000067209958881484809460000012868764247874577038_);fill:#7F7F7F;" d="M721.7,703.8"/>
		<path style="clip-path:url(#SVGID_00000067209958881484809460000012868764247874577038_);fill:#F4F4F4;" d="M721.7,703.8"/>
		<path style="clip-path:url(#SVGID_00000067209958881484809460000012868764247874577038_);fill:#7F7F7F;" d="M721.8,703.1
			c0.1-0.6,0.2-1.3,0.3-1.9C722,701.8,721.9,702.4,721.8,703.1z"/>
		<path style="clip-path:url(#SVGID_00000067209958881484809460000012868764247874577038_);fill:#F4F4F4;" d="M721.8,703.1
			c0.1-0.6,0.2-1.3,0.3-1.9C722,701.8,721.9,702.4,721.8,703.1z"/>
		<path style="clip-path:url(#SVGID_00000067209958881484809460000012868764247874577038_);fill:#7F7F7F;" d="M790,636.5
			c-27.9-0.1-31.7,0.2-31.7,0.2l0,0c0,0,0,0,0,0c-0.2,0.4-0.4,0.9-0.6,1.3c-0.1,0.2-0.1,0.3-0.2,0.5c-0.2,0.4-0.4,0.8-0.6,1.2
			c-0.1,0.2-0.2,0.5-0.4,0.7c-0.2,0.4-0.4,0.7-0.6,1.1c-0.2,0.3-0.3,0.5-0.5,0.8c-0.2,0.3-0.4,0.7-0.6,1c-0.2,0.3-0.4,0.6-0.6,0.9
			c-0.2,0.3-0.4,0.6-0.6,0.9c-0.2,0.3-0.5,0.7-0.8,1c-0.2,0.3-0.4,0.5-0.6,0.8c-0.3,0.4-0.7,0.8-1,1.2c-0.2,0.2-0.4,0.4-0.6,0.7
			c-0.5,0.6-1.1,1.2-1.7,1.8c-6.3,6.3-12.1,14.2-16.8,22.9l0,0c10.5,0.8,25.4,2,41.7,3.2c5.6-21,15.2-37.3,16.5-39.6
			C790.2,636.9,790.1,636.7,790,636.5z"/>
		<path style="clip-path:url(#SVGID_00000067209958881484809460000012868764247874577038_);fill:none;" d="M412.3,707.6l6.3-39.9
			c-3.2,0-7.6,0.1-12.8,0.3c0.6,2.7,1.3,5.4,2,8.6C410.3,687.9,411.7,698.2,412.3,707.6z"/>
		<path style="clip-path:url(#SVGID_00000067209958881484809460000012868764247874577038_);fill:#7F7F7F;" d="M711,743.4
			c-1,5.3,18-4.5,18-4.5l18-51.8l-9.6-6.8c2.4,0-11.3,7.2-4.8,7.7c10.5,0.8-14.8-16.6,1.4-15.4c21.8,1.6,46,3.1,65.3,3.3
			c37.1,0.4,61.4-4,76.7-8.9c4-1.3,7.2-2.5,9.8-3.6c8.9-3.9,10.3-6.6,10.3-6.6c-4.4-7.7-5.2-19.8-5.2-19.8
			c-3.9-47.7-30.1-117.7-57.4-143.1c-13.6-12.6-34.3-16.3-71.1-41.1c-9.7-6.5-32.7-20.3-32.7-20.3c-12.6,6.5-46.8,35.1-65.5,48.5
			c-19.2,13.8-87.1,46.7-87.1,46.7s-59.6-32.6-77.8-48c-16-13.4-58.8-55-58.8-55c-22.1,3-53.4,35.9-64.4,39.6
			c-16.2,5.5-52.8,28.5-68.4,38.5c-27.2,17.4-40.6,42.7-56.7,91.6c-4.9,14.7-12.1,48.9-14.8,60.1c0,0,2.7,1,19,5.6
			c1.7,0.5,3.5,1,5.5,1.6c15.5,4.4,58.3,9.9,92,9.5c31.3-0.4,28-2.1,48.8-3c5.2-0.2,3.3,8.1,6.5,8.1l-8.4,23.1
			c0.4,5.9,2.2,12.4,2,17.6l-2,6.6c5.3-1,40.5-0.2,40.5-0.2s8.4,0,17.4,0c3.3,0,8.6,0.2,14,0.3c0.3,0,0.8,0,1.3,0c0.3,0,0.6,0,1,0
			c0,0,0,0,0,0c0,0,0,0,0,0c3.5,0.1,6.9,0.3,9.8,0.4c3,0.1,5.8,0.2,6.5,0.2c0,0,0,0,0,0c0.1,0,0.2,0,0.3,0c0,0,0,0,0,0
			c0.1,0,0.1,0,0.1,0s124.4,34.7,152.4,28"/>
		<path style="opacity:0.5;clip-path:url(#SVGID_00000067209958881484809460000012868764247874577038_);fill:#7F7F7F;" d="
			M375.9,464.5c-16.2,5.5-52.8,28.5-68.4,38.5c-27.2,17.4-40.6,42.7-56.7,91.6c-4.9,14.7-12.1,48.9-14.8,60.1c0,0,2.7,1,19,5.6
			c1.7,0.5,3.5,1,5.5,1.6c15.5,4.4,58.3,9.9,92,9.5c31.3-0.4,28-2.1,48.8-3c5.2-0.2,3.3,8.1,6.5,8.1l-8.4,23.1
			c0.4,5.9,2.2,12.4,2,17.6l-2,6.6c5.3-1,40.5-0.2,40.5-0.2s4.3,0,10.1,0l2.7-2.1c13-92.9-50.1-200.6-50.1-223.7
			c0-23.1,55.6-55.7,55.6-55.7l0,0c-10.2-9.7-18-17.3-18-17.3C418.2,427.9,386.9,460.7,375.9,464.5z"/>
		<path style="clip-path:url(#SVGID_00000067209958881484809460000012868764247874577038_);fill:#F4F4F4;" d="M525.1,842.5
			c-52.5-28.6-109.6-36.1-141.7-37.4c0,0.1,26.8-49.7,19.2-109.1c-0.4-3.2,3.7-24.4,3.1-27c-20.8,0.8-40.3,7.5-86.6,2.3
			c-33.5-3.7-28.9,6.3-44.3,2c-2-0.6-14.9-4.7-16.6-5.2c-5,33.6-16.1,90-8.4,149.9c2.6,20.4,2.1,26.1,9,65.6
			c2.3,13.1-1.9,30.5,16.7,37c18.6,6.4,19.6-6.4,47.2,1.9c27.6,8.4,81.4,17.5,121.5,11.6c41.3-6.2,110.3-3.5,190-42.7
			C634.2,891.3,576.7,870.6,525.1,842.5z"/>
		<path style="clip-path:url(#SVGID_00000067209958881484809460000012868764247874577038_);fill:#FFFFFF;" d="M583.6,562.4
			c-5.2,2.3-8.6,7.5-8.6,13.2l0,0V676c0,2.8-2.2,5-5,5c-0.5,0-1-0.1-1.4-0.2c-22.7-6.8-38.2-27.7-38.2-51.4c0-0.7,0-1.4,0-2.2
			c0-0.2,0-0.5,0-0.7c0-0.6,0.1-1.1,0.1-1.7v-0.4c0.1-1.4,0.3-2.9,0.6-4.3l0.1-0.5c0.1-0.6,0.2-1.2,0.4-1.8c0-0.1,0-0.2,0-0.3
			c0.3-1.4,0.7-2.9,1.2-4.3l0.1-0.3c0.2-0.7,0.5-1.3,0.7-2l0,0c0.5-1.4,1.1-2.9,1.7-4.1c0-0.1,0-0.2,0.1-0.2
			c0.6-1.3,1.3-2.7,2.1-3.9v-0.1c0.3-0.6,0.7-1.2,1.1-1.7l0.2-0.3c0.3-0.5,0.7-1.1,1.1-1.6l0.1-0.2c0.4-0.6,0.8-1.1,1.2-1.7l0.4-0.5
			c1.8-2.3,3.8-4.5,6-6.5c0.9-0.8,1.9-1.6,2.9-2.4c2.6-2,3.1-5.8,1.1-8.4c-0.2-0.2-0.3-0.4-0.5-0.6l-4.4-4.4c-2.2-2.2-5.6-2.3-8-0.4
			c-3.4,2.7-6.5,5.8-9.3,9l0,0l-0.1,0.1c-0.6,0.7-1.3,1.4-1.9,2.3l0,0c-0.6,0.7-1.1,1.4-1.7,2.2l-0.3,0.4c-1.1,1.6-2.2,3.2-3.2,4.8
			l-0.3,0.5c-1,1.6-1.9,3.3-2.7,5.1c-0.1,0.2-0.2,0.3-0.2,0.5c-0.4,0.8-0.7,1.6-1.1,2.4c0,0.1-0.1,0.2-0.1,0.2
			c-0.4,0.9-0.7,1.8-1.1,2.7c0,0.2-0.1,0.4-0.2,0.6c-0.3,0.8-0.6,1.6-0.8,2.4l-0.1,0.4c-0.3,0.9-0.6,1.8-0.8,2.7
			c0,0.2-0.1,0.3-0.1,0.5c-0.2,0.8-0.4,1.6-0.6,2.4c0,0.2-0.1,0.4-0.1,0.6c-0.2,0.9-0.4,1.9-0.6,2.9c0,0.1,0,0.3-0.1,0.4
			c-0.1,0.8-0.3,1.7-0.4,2.5c0,0.2-0.1,0.5-0.1,0.7c-0.1,1-0.2,1.9-0.3,2.9c0,0.1,0,0.2,0,0.3c0,0.9-0.1,1.7-0.2,2.6
			c0,0.3,0,0.5,0,0.8c0,1,0,2,0,3l0,0c0.1,34.6,24.8,64.2,58.8,70.5c2.4,0.4,4.1,2.5,4.1,4.9V732c0,2.8,2.2,5,5,5h8c2.8,0,5-2.2,5-5
			v-27.1c0-2.4,1.7-4.4,4-4.9c39-7.1,64.8-44.6,57.7-83.6c-4.8-26.1-23.6-47.5-48.9-55.5C598.4,558.7,590.6,559.2,583.6,562.4
			L583.6,562.4z M632.6,652.8c-6.6,13.7-18.6,23.9-33.2,28.2c-2.6,0.8-5.4-0.7-6.2-3.4c-0.1-0.5-0.2-0.9-0.2-1.4v-88.4
			c0-4.8,3.9-8.6,8.6-8.6c1.1,0,2.2,0.2,3.3,0.7c27.3,11.4,40.3,42.8,28.8,70.2c-0.4,0.9-0.8,1.7-1.2,2.6L632.6,652.8z"/>
		<path style="clip-path:url(#SVGID_00000067209958881484809460000012868764247874577038_);fill:#F4F4F4;" d="M564.7,915.7
			C274.1,935,293.4,890,293.4,890c-5.1-63-33.4-176.1-14.1-181.3c19.3-5.1,57.8-11.1,57.8-11.1L258,669.3
			c-5.1,33.7-15.9,89.5-8.3,148.7c2.6,20.4,2.1,26.1,9,65.6c2.3,13.1-1.9,30.5,16.7,37c18.6,6.4,19.6-6.4,47.2,1.9
			c27.6,8.4,81.4,17.5,121.5,11.6c28.7-4.3,70.6-4.3,120.3-17L564.7,915.7z"/>
		<path style="clip-path:url(#SVGID_00000067209958881484809460000012868764247874577038_);fill:#EAEAEA;" d="M681.1,226.6
			c0,0,14.1-13.5,18-9.6c3.9,3.9-4.5,22.5-4.5,27s-0.6,18-5.1,23.8c-4.5,5.8-1.3,20.5-19.9,25l0.6-45.6L681.1,226.6z"/>
		<path style="clip-path:url(#SVGID_00000067209958881484809460000012868764247874577038_);fill:#EAEAEA;" d="M472.9,226.6
			c0,0-14.1-13.5-18-9.6s4.5,22.5,4.5,27s0.6,18,5.1,23.8c4.5,5.8,1.3,20.5,19.9,25l-0.6-45.6L472.9,226.6z"/>
		<path style="clip-path:url(#SVGID_00000067209958881484809460000012868764247874577038_);fill:#F4F4F4;" d="M472.9,226.6
			c0,0-14.1-13.5-18-9.6s4.5,22.5,4.5,27s0.6,18,5.1,23.8c4.5,5.8,1.3,20.5,19.9,25l-0.6-45.6L472.9,226.6z"/>
		<path style="clip-path:url(#SVGID_00000067209958881484809460000012868764247874577038_);fill:#464237;" d="M673.4,279.3
			c0,0,6.4-21.2,7.7-39.9s3.2-29.6,9.6-47.6s2.6-73.9-7.1-86.8c0,0,3.9-40.5-37.3-58.5c-41.1-18-183.2-25.7-190.9,68.8
			c-1.9,23.5,11.6,82.9,13.5,93.2c1.9,10.3,12.9,41.8,14.1,67.5l26.4-109.9L665,206L673.4,279.3z"/>
		<path style="opacity:0.5;clip-path:url(#SVGID_00000067209958881484809460000012868764247874577038_);fill:#464237;" d="M503,82.6
			c0,0-9.9-1.8-16.5,5c0,0,4.9-24.3,29-33.9c0,0-7.1-1.5-16.1-2.2c-23.8,12.2-41.5,32.3-44,63.9c-1.9,23.5,11.6,82.9,13.5,93.2
			c1.9,10.3,12.9,41.8,14.1,67.5l5-21.1l10.5-91.4l63.8-11.5C562.5,152.1,467.3,138.5,503,82.6z"/>
		<path style="clip-path:url(#SVGID_00000067209958881484809460000012868764247874577038_);fill:#F4F4F4;" d="M479.2,231.7
			c0,0-3.9-81,8.4-86.1c12.2-5.1,48.9,21.2,105.4-1.9s68.8-18.6,72,0.6s5.1,53.4,7.1,63.6c1.9,10.3,4.5,57.2,2.6,64.9
			c0,0-7.1,33.4-7.1,37.9s1.3,32.8-18,48.9c-19.3,16.1-31.5,45.6-64.3,45.6s-39.2,3.2-71.4-30.9c-32.1-34.1-29.6-86.8-29.6-86.8
			L479.2,231.7z"/>
		<path style="clip-path:url(#SVGID_00000067209958881484809460000012868764247874577038_);fill:#F4F4F4;" d="M790.3,637
			c0.1-0.2,0.2-0.3,0.2-0.3S790.5,636.8,790.3,637z"/>
		<path style="clip-path:url(#SVGID_00000067209958881484809460000012868764247874577038_);fill:#F4F4F4;" d="M642.8,752.8
			c-27.9,7-152.4-28-152.4-28s-28.7-3.2-37.6-3.2c-9,0-17.4,0-17.4,0s-30.6,1.4-36,2.3l1.1,10l-17.2,71.3c0,0,63.6,4.5,136.2,34.9
			c18.4,7.7,76.8,42,107.7,49.7c52.8,13.1,82.1,10.6,166.8,4.8c0,0,31.8,11.6,52.1-13.5c0,0,23.5-87.8,28.3-115.7
			c3.1-18.3,3.3-57.3-0.9-87.4c-2.6,1.1,0.6-0.8-3.4,0.5c-15.3,4.9,5.9,2-31.2,1.6c-33.7-0.4-82.4-4.7-107-6.5
			c-4.2,7.8-9.3,16.1-9.4,25c-0.2,13.6-1.1,27.1,2.1,38.8C724.8,737.3,686.2,741.8,642.8,752.8z"/>
		<path style="clip-path:url(#SVGID_00000067209958881484809460000012868764247874577038_);fill:#F4F4F4;" d="M502,322.7
			c-15.4-38.6-11.6-63.6-13.5-81.3s-3.9-54.6,0-77.8c1.7-10.3,9.7-14.5,18-15.9c-8.7-2.1-15.1-3.7-19-2.1
			c-12.2,5.1-8.4,86.1-8.4,86.1l5.1,55.9c0,0-2.6,52.7,29.6,86.8c26.5,28.1,35.6,30.8,56.4,30.9C505.5,370.4,517.5,361.2,502,322.7z
			"/>
		<path style="clip-path:url(#SVGID_00000067209958881484809460000012868764247874577038_);fill:#F4F4F4;" d="M742.1,760.1
			c0,0-9-52.7,6.4-52.7c15.4,0,34.6-9.9,34.6-9.9l-7.2-20.7c-17.1-1.2-33-2.5-44-3.3c-4.2,7.8-9.3,16.1-9.4,25
			c-0.2,13.6-1.1,27.1,2.1,38.8c0,0-38.6,4.5-82,15.4c-27.9,7-152.4-28-152.4-28s-28.7-3.2-37.6-3.2
			C629,803.9,742.1,760.1,742.1,760.1z"/>
		<path style="clip-path:url(#SVGID_00000067209958881484809460000012868764247874577038_);fill:#FFFFFF;" d="M407.9,667.7
			c-87.8,10.9-147.3-5.8-171.8-13c-0.1,1.4-2.9,13.9-9.1,22.3c0,0,5.4,7.3,22.5,13.3c12.4,4.4,31,8,58.1,7.6
			c31.4-0.5,52.1-0.5,65-0.3l34.9-1.7L407.9,667.7z"/>
		<path style="clip-path:url(#SVGID_00000067209958881484809460000012868764247874577038_);fill:#FFFFFF;" d="M908.5,676.5
			c-6.2-8.4-12.4-18.6-12.5-19.7c-41.4,26.7-173.2,12-173.2,12v27l29.3,2.8c0,0,27.3-1.7,61.7-1.2c30,0.4,49.6-0.7,62.1-5.4
			C888.3,687.3,908.5,676.5,908.5,676.5z"/>
		<path style="clip-path:url(#SVGID_00000067209958881484809460000012868764247874577038_);fill:#F4F4F4;" d="M525.1,842.5
			c-43.9-23.9-91.2-33.1-124.2-36.2c9.2-25.3,11.4-65.8,11.9-83.6c-6,0.4-11.4,0.8-13.3,1.1l1.1,10l-17.2,71.3
			c0,0-21.2-4.2-28.9-1.3c0,0,65.3,4.7,248.4,101c10.2-3.9,20.7-8.4,31.3-13.6C634.2,891.3,576.7,870.6,525.1,842.5z"/>
	</g>
</g>
<g id="Capa_3">
	<ellipse class="st9" cx="532.6" cy="241.4" rx="8.4" ry="10.3"/>
	<ellipse class="st9" cx="629" cy="241.4" rx="8.4" ry="10.3"/>
	<g>
		<path class="st9" d="M595.8,218c3-1.6,6.1-2.8,9.2-3.7c3.1-0.9,6.3-1.7,9.5-2.2c1.6-0.3,3.2-0.4,4.8-0.6c1.6-0.1,3.2-0.1,4.9-0.1
			c3.3,0.1,6.5,0.3,9.8,0.6c3.3,0.2,6.6,0.7,9.9,1.3c3.3,0.8,6.6,2,9.6,3.8c2.9,1.8,5.5,4.2,7.4,7c1.9,2.8,3.2,5.9,3.6,9.2l-0.8,0.1
			c-1-2.9-2.8-5.6-4.8-7.8c-2.1-2.2-4.6-3.9-7.3-5c-2.7-1.2-5.6-1.8-8.5-2.1c-3-0.2-6.1-0.3-9.2-0.2c-3.1,0.1-6.2,0.5-9.3,0.9
			c-3.1,0.4-6.2,0.7-9.4,0.7c-3.1,0.1-6.3,0-9.5-0.2c-3.2-0.2-6.4-0.5-9.7-1.1L595.8,218z"/>
	</g>
	<g>
		<path class="st9" d="M562.4,217.7c-4.7,0.6-9.3,0.7-13.7,0.6c-4.5,0-8.9-0.1-13.2-0.7c-1.1-0.1-2.2-0.3-3.3-0.4
			c-1.1-0.1-2.2-0.2-3.3-0.3c-1.1-0.1-2.2-0.1-3.3-0.2c-1.1,0-2.2-0.1-3.3,0l-3.3,0.1c-1.1,0-2.2,0.2-3.3,0.2
			c-2.2,0.1-4.4,0.4-6.6,0.7l0.4-0.1c-1.4,0.6-2.9,1.2-4.3,2c-1.4,0.7-2.8,1.5-4.2,2.4c-1.3,0.9-2.7,1.8-3.8,2.9
			c-1.2,1.1-2.3,2.2-3.1,3.6l-0.7-0.3c0.6-1.6,1.5-3.1,2.6-4.4c1.1-1.4,2.3-2.6,3.5-3.8c1.3-1.2,2.6-2.2,4-3.2c1.4-1,2.8-2,4.3-2.8
			l0.1,0l0.3-0.1c4.5-1.3,9.1-2.3,13.7-2.9c1.2-0.2,2.3-0.2,3.5-0.4l1.7-0.2l1.7-0.1c1.2-0.1,2.3-0.2,3.5-0.3
			c1.2-0.1,2.3-0.1,3.5-0.2c4.7-0.1,9.3,0.6,13.8,1.8c4.5,1.2,8.9,2.9,13,5.5L562.4,217.7z"/>
	</g>
	<path class="st10" d="M534.7,336.3c0,0,13.6,4.1,27.8,2.2c8.8-1.2,10.1,2.3,14.5,4.2c0,0,10.9-5.6,17.3-3.2
		c6.4,2.4,24.9-3.2,24.9-3.2s-12.6,19.9-42.2,19.9C558.6,356.1,550.1,351.7,534.7,336.3z"/>
	<g>
		<path class="st11" d="M577,356.1c-4,0.1-8.1,0-12.1-0.7c-4-0.6-7.9-1.9-11.6-3.8c-3.6-1.8-6.9-4.3-10.1-6.8
			c-3.1-2.6-6.1-5.4-8.9-8.2l-1.3-1.3l1.8,0.5c3.4,1,7,1.6,10.6,2.1c3.6,0.5,7.2,0.7,10.8,0.6c1.8,0,3.6-0.1,5.4-0.3
			c1.8-0.2,3.7-0.4,5.5-0.2c0.9,0.1,1.8,0.3,2.7,0.6c0.9,0.3,1.7,0.7,2.5,1.2c1.6,1,3,2.1,4.6,2.9c-1.7-0.7-3.2-1.8-4.7-2.7
			c-0.8-0.4-1.6-0.8-2.5-1.1c-0.9-0.2-1.7-0.4-2.6-0.4c-1.8-0.1-3.6,0.1-5.4,0.3c-1.8,0.2-3.6,0.4-5.5,0.5
			c-3.7,0.1-7.3-0.1-10.9-0.5c-3.6-0.5-7.2-1.1-10.8-2.1l0.5-0.8c2.9,2.8,5.7,5.6,8.8,8.2c3.1,2.6,6.3,5,9.8,6.8
			c3.5,1.9,7.3,3.2,11.3,4C568.9,355.8,573,356,577,356.1z"/>
	</g>
	<g>
		<path class="st12" d="M589.6,259.6c0.8,5.8,1.6,11.5,3.1,17c0.4,1.4,0.8,2.7,1.3,4c0.2,0.7,0.5,1.3,0.8,1.9l0.8,2
			c1.1,2.7,2.3,5.5,2.7,8.9c0.1,1.7-0.1,3.6-0.9,5.2c-0.8,1.6-1.8,2.9-3,4.1c-1.2,1.1-2.4,2-3.7,2.9c-1.3,0.9-2.8,1.6-4.3,2.1
			c-1.5,0.5-3.2,0.7-4.8,0.6c-1.6-0.1-3.2-0.6-4.6-1.2c-2.8-1.4-5.1-3.5-6.7-6c2.2,1.9,4.7,3.4,7.4,4.1c2.6,0.8,5.3,0.6,7.7-0.5
			c1.2-0.5,2.3-1.2,3.3-2.1c1.1-0.9,2.1-1.8,3-2.7c0.9-1,1.6-1.9,2.1-3c0.4-1,0.6-2.1,0.5-3.3c-0.2-2.4-1.3-5.1-2.2-7.8l-0.7-2.1
			c-0.2-0.7-0.5-1.5-0.7-2.2c-0.4-1.5-0.7-2.9-0.9-4.4C588.7,271.3,588.7,265.4,589.6,259.6z"/>
	</g>
</g>
</svg>
