<svg xmlns="http://www.w3.org/2000/svg" width="14.99" height="13.526" viewBox="0 0 14.99 13.526"><defs><style>.a{fill:#050c44;}</style></defs><g transform="translate(0 -25.006)"><path class="a" d="M7.491,26.25A4.395,4.395,0,0,0,.733,31.8H3.963l.575-.958a.439.439,0,0,1,.747-.01L6.5,32.736,8.265,29a.439.439,0,0,1,.783-.02L10.564,31.8h3.686A4.4,4.4,0,0,0,7.491,26.25Z" transform="translate(0 0)"/><path class="a" d="M57.233,203.543l-1.228-2.28-1.736,3.665a.439.439,0,0,1-.767.048L52.244,203l-.337.562a.439.439,0,0,1-.377.213H48.746c.087.091-.378-.373,5.754,5.727a.439.439,0,0,0,.619,0c6.038-6.006,5.667-5.636,5.754-5.727H57.62a.439.439,0,0,1-.387-.231Z" transform="translate(-47.319 -171.097)"/></g></svg>