<svg xmlns="http://www.w3.org/2000/svg" width="23.207" height="21.668" viewBox="0 0 23.207 21.668"><defs><style>.a{opacity:0.61;}.b{fill:#050c44;}</style></defs><g class="a" transform="translate(0 -16.981)"><path class="b" d="M22.449,34.1a7.847,7.847,0,0,0,.759-3.39,7.962,7.962,0,0,0-7.585-7.922A7.958,7.958,0,0,0,0,24.913,7.847,7.847,0,0,0,.76,28.3L.014,32.032a.68.68,0,0,0,.8.8l3.775-.746a7.82,7.82,0,0,0,3,.749,7.945,7.945,0,0,0,11.035,5.053c4.134.817,3.812.759,3.907.759a.68.68,0,0,0,.667-.813ZM4.991,30.769a.68.68,0,0,0-.441-.062l-3,.594.591-2.958a.68.68,0,0,0-.061-.443,6.5,6.5,0,0,1-.716-2.988,6.6,6.6,0,0,1,12.858-2.066,7.942,7.942,0,0,0-6.886,8.607,6.474,6.474,0,0,1-2.342-.685Zm16.08,3.376.591,2.958-3-.594a.68.68,0,0,0-.441.062,6.5,6.5,0,0,1-2.988.716,6.572,6.572,0,1,1,6.618-6.572,6.5,6.5,0,0,1-.716,2.988A.68.68,0,0,0,21.07,34.145Z" transform="translate(0)"/></g></svg>