<svg xmlns="http://www.w3.org/2000/svg" width="18.655" height="22.07" viewBox="0 0 18.655 22.07"><defs><style>.a{fill:#050c44;opacity:0.62;}</style></defs><path class="a" d="M16.5,6.784l.865-.865A.861.861,0,1,0,16.151,4.7l-.865.865a9.239,9.239,0,0,0-5.1-2.111V1.722h.832A.861.861,0,0,0,11.02,0H7.634a.861.861,0,0,0,0,1.722h.832V3.455A9.327,9.327,0,1,0,16.5,6.784ZM9.327,20.348a7.605,7.605,0,1,1,7.605-7.605,7.614,7.614,0,0,1-7.605,7.605Zm3.99-11.6a.861.861,0,0,1,0,1.218L9.936,13.351a.861.861,0,1,1-1.218-1.218L12.1,8.753A.861.861,0,0,1,13.317,8.753Zm0,0" transform="translate(0)"/></svg>