<svg xmlns="http://www.w3.org/2000/svg" width="36.949" height="32.046" viewBox="0 0 36.949 32.046"><defs><style>.a{fill:#8a8a7f;}</style></defs><g transform="translate(0 -33.971)"><g transform="translate(0 33.971)"><path class="a" d="M472.988,270.751h-1.347a.641.641,0,1,1,0-1.283h1.347a.641.641,0,1,1,0,1.283Z" transform="translate(-436.68 -252.385)"/><g transform="translate(0 17.084)"><path class="a" d="M1.988,270.751H.641a.641.641,0,1,1,0-1.283H1.988a.641.641,0,1,1,0,1.283Z" transform="translate(0 -269.469)"/></g><g transform="translate(28.932 5.025)"><path class="a" d="M398.315,105.182a.641.641,0,0,1-.453-1.095l.952-.952a.641.641,0,1,1,.907.907l-.952.952A.64.64,0,0,1,398.315,105.182Z" transform="translate(-397.673 -102.947)"/></g><g transform="translate(5.782 5.025)"><path class="a" d="M81.072,105.181a.639.639,0,0,1-.453-.188l-.952-.952a.641.641,0,0,1,.907-.907l.952.952a.641.641,0,0,1-.454,1.095Z" transform="translate(-79.478 -102.946)"/></g><g transform="translate(17.833)"><path class="a" d="M246.641,36.6a.641.641,0,0,1-.641-.641V34.612a.641.641,0,1,1,1.283,0v1.347A.641.641,0,0,1,246.641,36.6Z" transform="translate(-246 -33.971)"/></g><path class="a" d="M206.689,216.618a.641.641,0,0,1-.479-.214l-2.738-3.069a.641.641,0,0,1-.064-.768l2.738-4.353a.641.641,0,0,1,1.086,0l2.738,4.353a.641.641,0,0,1-.064.768l-2.738,3.069A.641.641,0,0,1,206.689,216.618Zm-1.938-3.778,1.938,2.173,1.938-2.173-1.938-3.081Z" transform="translate(-188.214 -194.744)"/><g transform="translate(13.243 25.244)"><path class="a" d="M183.323,383.232a.641.641,0,1,1,.626-.506A.648.648,0,0,1,183.323,383.232Z" transform="translate(-182.683 -381.95)"/></g><path class="a" d="M69.739,115.233a.826.826,0,0,0-.823.016l-4.808,2.971-1.454-2.835a.713.713,0,0,0-.464-.353.829.829,0,0,0-.61.078l-3.841,2.185-3.078-4.244a.8.8,0,0,0-1.244,0l-3.078,4.244L46.5,115.109a.829.829,0,0,0-.61-.078.713.713,0,0,0-.464.353l-1.454,2.835-4.808-2.971a.826.826,0,0,0-.823-.016.61.61,0,0,0-.325.66l3.117,14.194h0l.367,4.8a.686.686,0,0,0,.635.593,101.5,101.5,0,0,0,23.811,0,.686.686,0,0,0,.635-.593l.367-4.8h0l3.117-14.194A.61.61,0,0,0,69.739,115.233Zm-8.077,1.361,1.222,2.381-2.71,1.675-1.648-2.272Zm-15.246,0,3.137,1.784L47.9,120.65l-2.71-1.675Zm19.171,12.862-1.092.115a100.154,100.154,0,0,1-11.769.54h-.011a.647.647,0,1,0-.011,1.282q.661.009,1.323.009a101.844,101.844,0,0,0,10.645-.558l.749-.079-.268,3.506a99.816,99.816,0,0,1-22.225,0l-.268-3.506.749.079c.84.088,1.693.168,2.535.235a.715.715,0,0,0,.8-.58.673.673,0,0,0-.665-.7c-.829-.066-1.667-.144-2.493-.231l-1.092-.115L39.8,117.217l7.884,4.871a.823.823,0,0,0,.568.106.745.745,0,0,0,.479-.286l5.3-7.314,5.3,7.314a.745.745,0,0,0,.479.286.823.823,0,0,0,.568-.106l7.884-4.871Z" transform="translate(-35.564 -104.129)"/></g></g></svg>