<svg xmlns="http://www.w3.org/2000/svg" width="35.873" height="31.112" viewBox="0 0 35.873 31.112"><defs><style>.a{fill:#fe0;}</style></defs><g transform="translate(0 -33.971)"><g transform="translate(0 33.971)"><path class="a" d="M472.93,270.714h-1.307a.623.623,0,1,1,0-1.245h1.307a.623.623,0,1,1,0,1.245Z" transform="translate(-437.68 -252.882)"/><g transform="translate(0 16.587)"><path class="a" d="M1.93,270.714H.623a.623.623,0,1,1,0-1.245H1.93a.623.623,0,1,1,0,1.245Z" transform="translate(0 -269.469)"/></g><g transform="translate(28.089 4.879)"><path class="a" d="M398.3,105.117a.623.623,0,0,1-.44-1.063l.924-.924a.623.623,0,0,1,.88.881l-.924.924A.621.621,0,0,1,398.3,105.117Z" transform="translate(-397.673 -102.947)"/></g><g transform="translate(5.614 4.879)"><path class="a" d="M81.025,105.116a.62.62,0,0,1-.44-.182l-.924-.924a.623.623,0,0,1,.881-.881l.924.924a.623.623,0,0,1-.44,1.063Z" transform="translate(-79.478 -102.946)"/></g><g transform="translate(17.314)"><path class="a" d="M246.623,36.524A.623.623,0,0,1,246,35.9V34.594a.623.623,0,0,1,1.245,0V35.9A.623.623,0,0,1,246.623,36.524Z" transform="translate(-246 -33.971)"/></g><path class="a" d="M206.59,216.364a.623.623,0,0,1-.465-.208l-2.658-2.98a.623.623,0,0,1-.062-.746l2.658-4.226a.623.623,0,0,1,1.054,0l2.658,4.226a.623.623,0,0,1-.062.746l-2.658,2.98A.623.623,0,0,1,206.59,216.364Zm-1.882-3.667,1.882,2.11,1.881-2.11L206.59,209.7Z" transform="translate(-188.654 -195.128)"/><g transform="translate(12.857 24.509)"><path class="a" d="M183.3,383.194a.623.623,0,1,1,.608-.491A.629.629,0,0,1,183.3,383.194Z" transform="translate(-182.683 -381.95)"/></g><path class="a" d="M68.814,115.16a.8.8,0,0,0-.8.016l-4.668,2.884-1.412-2.752a.693.693,0,0,0-.45-.343.8.8,0,0,0-.592.076l-3.729,2.121-2.989-4.121a.774.774,0,0,0-1.207,0l-2.989,4.121-3.729-2.121a.8.8,0,0,0-.592-.076.693.693,0,0,0-.45.343L43.8,118.06l-4.668-2.884a.8.8,0,0,0-.8-.016.592.592,0,0,0-.315.641l3.026,13.78h0l.356,4.655a.666.666,0,0,0,.617.576,98.542,98.542,0,0,0,23.117,0,.666.666,0,0,0,.617-.576l.356-4.655h0l3.026-13.78A.592.592,0,0,0,68.814,115.16Zm-7.842,1.322,1.186,2.312-2.631,1.626-1.6-2.206Zm-14.8,0,3.045,1.732-1.6,2.206-2.631-1.626Zm18.612,12.487-1.06.112a97.234,97.234,0,0,1-11.426.525h-.011a.628.628,0,1,0-.011,1.245q.642.008,1.284.008a98.878,98.878,0,0,0,10.335-.542l.727-.077-.26,3.4a96.907,96.907,0,0,1-21.578,0l-.26-3.4.727.077c.815.086,1.643.163,2.461.228a.694.694,0,0,0,.777-.563.653.653,0,0,0-.646-.677c-.8-.064-1.619-.14-2.42-.224l-1.06-.112-2.61-11.883,7.654,4.729a.8.8,0,0,0,.552.1.723.723,0,0,0,.465-.278l5.15-7.1,5.15,7.1a.723.723,0,0,0,.465.278.8.8,0,0,0,.552-.1l7.654-4.729Z" transform="translate(-35.635 -104.38)"/></g></g></svg>