<svg xmlns="http://www.w3.org/2000/svg" width="17.75" height="17.75" viewBox="0 0 17.75 17.75"><defs><style>.a{fill:#050c44;}</style></defs><path class="a" d="M7.488,0h2.773a.83.83,0,0,1,.832.832V6.656h3.04a.692.692,0,0,1,.489,1.182L9.35,13.115a.672.672,0,0,1-.946,0L3.124,7.838a.692.692,0,0,1,.489-1.182H6.656V.832A.83.83,0,0,1,7.488,0ZM17.75,13.035v3.883a.83.83,0,0,1-.832.832H.832A.83.83,0,0,1,0,16.918V13.035A.83.83,0,0,1,.832,12.2H5.918l1.7,1.7a1.776,1.776,0,0,0,2.517,0l1.7-1.7h5.086A.83.83,0,0,1,17.75,13.035Zm-4.3,3.051a.693.693,0,1,0-.693.693A.7.7,0,0,0,13.451,16.086Zm2.219,0a.693.693,0,1,0-.693.693A.7.7,0,0,0,15.67,16.086Z"/></svg>