<svg xmlns="http://www.w3.org/2000/svg" width="22.329" height="22.342" viewBox="0 0 22.329 22.342"><defs><style>.a{opacity:0.36;}.b{fill:#050c44;}</style></defs><g class="a" transform="translate(-0.156 0)"><g transform="translate(13.386 0)"><g transform="translate(0 0)"><path class="b" d="M312.067,6.863l-1.848-1.848,1.389-1.388a.654.654,0,0,0,0-.925L309.749.842a.674.674,0,0,0-.926,0l-1.388,1.389L305.587.383a1.309,1.309,0,0,0-1.851,1.851l6.48,6.48a1.309,1.309,0,0,0,1.851-1.851Z" transform="translate(-303.352 0)"/></g></g><g transform="translate(0.156 13.244)"><g transform="translate(0)"><path class="b" d="M8.87,310.37l-6.48-6.48a1.309,1.309,0,1,0-1.851,1.851l1.848,1.848L1,308.975a.654.654,0,0,0,0,.926l1.859,1.859a.654.654,0,0,0,.926,0l1.386-1.386,1.848,1.848A1.309,1.309,0,0,0,8.87,310.37Z" transform="translate(-0.156 -303.507)"/></g></g><g transform="translate(7.945 7.789)"><path class="b" d="M182.621,178.492l-3.974,3.987,2.777,2.777,3.974-3.987Z" transform="translate(-178.647 -178.492)"/></g><g transform="translate(9.684 1.851)"><path class="b" d="M229.065,51.14l-8.331-8.331a1.309,1.309,0,1,0-1.851,1.851l8.331,8.331a1.309,1.309,0,0,0,1.851-1.851Z" transform="translate(-218.499 -42.426)"/></g><g transform="translate(2.007 9.541)"><path class="b" d="M53.147,227.368l-8.331-8.331a1.309,1.309,0,0,0-1.851,1.851L51.3,229.22a1.309,1.309,0,1,0,1.851-1.851Z" transform="translate(-42.581 -218.654)"/></g></g></svg>