<svg xmlns="http://www.w3.org/2000/svg" width="19.377" height="20.788" viewBox="0 0 19.377 20.788"><defs><style>.a{opacity:0.62;}.b{fill:#050c44;}</style></defs><g class="a" transform="translate(-17.379)"><g transform="translate(17.379 3.121)"><g transform="translate(0)"><path class="b" d="M306.787,175.116l-1.627-.06-.353,9.634,1.627.059Z" transform="translate(-293.137 -171.069)"/><rect class="b" width="1.628" height="9.634" transform="translate(8.874 4.016)"/><path class="b" d="M160.4,184.683l-.353-9.634-1.627.06.353,9.634Z" transform="translate(-152.693 -171.063)"/><path class="b" d="M17.379,76.867V78.5h1.7l1.346,15.3a.814.814,0,0,0,.811.743H32.875a.814.814,0,0,0,.811-.743l1.346-15.3h1.724V76.867Zm14.75,16.039H21.978L20.71,78.5H33.4Z" transform="translate(-17.379 -76.867)"/></g></g><g transform="translate(23.051)"><path class="b" d="M163.752,0h-5.319a1.358,1.358,0,0,0-1.357,1.357V3.935H158.7V1.628h4.776V3.935h1.628V1.357A1.358,1.358,0,0,0,163.752,0Z" transform="translate(-157.076)"/></g></g></svg>