<svg xmlns="http://www.w3.org/2000/svg" width="32.98" height="28.834" viewBox="0 0 32.98 28.834"><defs><style>.a{fill:#fff;}</style></defs><g transform="translate(0 -32.211)"><g transform="translate(0 32.211)"><g transform="translate(0 0)"><path class="a" d="M2.642,44.52a.678.678,0,0,0,.542-.014l5.362-2.437a.689.689,0,0,0,.323-.92.677.677,0,0,0-.886-.33L4.228,42.529a13.259,13.259,0,0,1,25.333.838.685.685,0,0,0,1.325-.35,14.639,14.639,0,0,0-27.969-.934L1.338,38.136A.69.69,0,0,0,.473,37.7a.69.69,0,0,0-.439.865.422.422,0,0,0,.034.082l2.19,5.492A.683.683,0,0,0,2.642,44.52Z" transform="translate(0 -32.211)"/><path class="a" d="M63.137,294.185a.1.1,0,0,1-.014-.041l-2.19-5.492a.683.683,0,0,0-.384-.384.708.708,0,0,0-.542.014l-5.362,2.437a.688.688,0,0,0,.529,1.27l.041-.021,3.755-1.709a13.268,13.268,0,0,1-25.346-.838.685.685,0,0,0-1.325.35,14.639,14.639,0,0,0,27.969.934l1.579,3.948a.686.686,0,0,0,1.291-.467Z" transform="translate(-30.199 -271.743)"/></g></g></g></svg>