<svg xmlns="http://www.w3.org/2000/svg" viewBox="0 0 109.66 64.66"><defs><style>.cls-1{fill:#0065e9;}.cls-2,.cls-3,.cls-4,.cls-5,.cls-6,.cls-7{fill:none;stroke-linecap:round;stroke-linejoin:round;}.cls-2,.cls-3,.cls-4,.cls-5,.cls-7{stroke:#0065e9;}.cls-2{stroke-dasharray:3.08 3.08;}.cls-4{stroke-dasharray:3.18 3.18;}.cls-5{stroke-dasharray:3.08 3.08;}.cls-6{stroke:#fff;}.cls-6,.cls-7{stroke-width:3.29px;}</style></defs><g id="Capa_2" data-name="Capa 2"><g id="Capa_1-2" data-name="Capa 1"><circle class="cls-1" cx="84.26" cy="16.2" r="15.7"/><path class="cls-1" d="M103.66,37.7H65a6,6,0,0,0-6,6V64.16h50.7V43.7A6,6,0,0,0,103.66,37.7Z"/><circle class="cls-2" cx="25.8" cy="16.2" r="15.7"/><polyline class="cls-3" points="0.5 62.66 0.5 64.16 2 64.16"/><line class="cls-4" x1="5.18" y1="64.16" x2="48.11" y2="64.16"/><polyline class="cls-3" points="49.7 64.16 51.2 64.16 51.2 62.66"/><path class="cls-5" d="M51.2,59.58V43.7a6,6,0,0,0-6-6H6.5a6,6,0,0,0-6,6V61.12"/><polyline class="cls-6" points="77.87 51.86 83.82 57.43 90.66 44.43"/><line class="cls-7" x1="19.4" y1="57.33" x2="32.2" y2="44.53"/><line class="cls-7" x1="19.4" y1="44.53" x2="32.2" y2="57.33"/></g></g></svg>