<?xml version="1.0" encoding="utf-8"?>
<!-- Generator: Adobe Illustrator 25.4.1, SVG Export Plug-In . SVG Version: 6.00 Build 0)  -->
<svg version="1.1" id="Capa_1" xmlns="http://www.w3.org/2000/svg" xmlns:xlink="http://www.w3.org/1999/xlink" x="0px" y="0px"
	 viewBox="0 0 231 207" style="enable-background:new 0 0 231 207;" xml:space="preserve">
<style type="text/css">
	.st0{fill:none;stroke:#00E9C5;stroke-width:8;}
	.st1{fill:#FFFFFF;stroke:#00E9C5;stroke-width:8;stroke-linecap:round;stroke-linejoin:round;stroke-miterlimit:10;}
	.st2{fill:none;stroke:#00E9C5;stroke-width:8;stroke-linecap:round;stroke-linejoin:round;stroke-miterlimit:10;}
</style>
<path class="st0" d="M199.9,71.3"/>
<path class="st1" d="M29.1,84.3"/>
<path class="st2" d="M164.5,136.2c48.7-35,51.8-80.2,40.7-103c-20.3-42-69.8-38.3-91,8.1"/>
<path class="st2" d="M64,136.2c-48.7-35-51.8-80.2-40.7-103c20.3-42,69.8-38.3,91,8.1"/>
<path class="st2" d="M1.6,93.7"/>
<polyline class="st2" points="227,95.8 187.6,95.8 168.7,76.8 150.8,111.4 131,58.3 114.3,131 95.4,58.3 79.6,111.4 59.7,75.9 
	42.2,94.7 4,94.7 "/>
<path class="st2" d="M46.8,199.3L46.8,199.3c-6.8,0-12.4-5.6-12.4-12.4v-29.1c0-6.8,5.6-12.4,12.4-12.4h0c6.8,0,12.4,5.6,12.4,12.4
	v29.1C59.2,193.7,53.6,199.3,46.8,199.3z"/>
<path class="st2" d="M73.5,203L73.5,203c-6.8,0-12.4-5.6-12.4-12.4v-42.1c0-6.8,5.6-12.4,12.4-12.4h0c6.8,0,12.4,5.6,12.4,12.4v42.1
	C85.9,197.4,80.3,203,73.5,203z"/>
<path class="st2" d="M182.8,199.3L182.8,199.3c6.8,0,12.4-5.6,12.4-12.4v-29.1c0-6.8-5.6-12.4-12.4-12.4h0
	c-6.8,0-12.4,5.6-12.4,12.4v29.1C170.4,193.7,176,199.3,182.8,199.3z"/>
<path class="st2" d="M156,203L156,203c6.8,0,12.4-5.6,12.4-12.4v-42.1c0-6.8-5.6-12.4-12.4-12.4h0c-6.8,0-12.4,5.6-12.4,12.4v42.1
	C143.7,197.4,149.3,203,156,203z"/>
<polyline class="st2" points="143.7,183 85.9,183 85.9,161.7 143.7,161.7 "/>
</svg>
