<svg xmlns="http://www.w3.org/2000/svg" width="48" height="48" viewBox="0 0 48 48"><defs><style>.a{fill:#024cac;}</style></defs><path class="a" d="M24,0A24,24,0,1,0,48,24,24,24,0,0,0,24,0ZM42.586,11.512l-1.663,7.07L32.16,21.5,24.8,15.616V6.941l8.4-3.36a22.536,22.536,0,0,1,9.386,7.93Zm.134,24.764-7.934,1.253-4.32-5.707,2.2-8.8,8.666-2.888L46.3,26.091A22.254,22.254,0,0,1,42.72,36.276ZM13.249,37.534,5.28,36.276A22.257,22.257,0,0,1,1.7,26.089l4.96-5.957L15.33,23.02l2.2,8.8ZM1.607,23.7A22.255,22.255,0,0,1,4.232,13.479L5.53,19Zm17.418,7.5L16.9,22.7,24,17.025l7.1,5.68-2.124,8.5ZM42.47,19l1.3-5.52A22.254,22.254,0,0,1,46.393,23.7ZM31.018,2.732,24,5.539,16.944,2.745a22.318,22.318,0,0,1,14.074-.013ZM14.762,3.6,23.2,6.944v8.672L15.84,21.5,7.077,18.582l-1.663-7.07A22.54,22.54,0,0,1,14.762,3.6ZM6.617,38.107l6.5,1.027,3.933,6.16A22.473,22.473,0,0,1,6.617,38.107Zm12.73,7.8-4.774-7.474L18.8,32.8H29.2l4.288,5.664-4.16,7.29a22.331,22.331,0,0,1-9.981.16Zm12.2-.823,3.41-5.967,6.426-1.014A22.486,22.486,0,0,1,31.55,45.087Zm0,0"/></svg>