<svg xmlns="http://www.w3.org/2000/svg" width="9.817" height="12.888" viewBox="0 0 9.817 12.888"><defs><style>.a{fill:#050c44;}</style></defs><g transform="translate(-61)"><path class="a" d="M331.378,11.588H333.8l-2.8-2.8v2.422A.378.378,0,0,0,331.378,11.588Z" transform="translate(-263.204 -8.568)"/><path class="a" d="M62.133,12.888h7.551a1.134,1.134,0,0,0,1.133-1.133V3.776H68.174a1.134,1.134,0,0,1-1.133-1.133V0H62.133A1.134,1.134,0,0,0,61,1.133V11.755A1.134,1.134,0,0,0,62.133,12.888ZM64.4,6.066h3.776a.378.378,0,1,1,0,.755H64.4a.378.378,0,1,1,0-.755Zm0,1.51h3.776a.378.378,0,1,1,0,.755H64.4a.378.378,0,1,1,0-.755Zm0,1.51h3.776a.378.378,0,1,1,0,.755H64.4a.378.378,0,1,1,0-.755Zm-1.51-3.021a.378.378,0,1,1-.378.378A.378.378,0,0,1,62.888,6.066Zm0,1.51a.378.378,0,1,1-.378.378A.378.378,0,0,1,62.888,7.577Zm0,1.51a.378.378,0,1,1-.378.378A.378.378,0,0,1,62.888,9.087Z"/></g></svg>