<?xml version="1.0" encoding="utf-8"?>
<!-- Generator: Adobe Illustrator 25.4.1, SVG Export Plug-In . SVG Version: 6.00 Build 0)  -->
<svg version="1.1" id="Capa_1" xmlns="http://www.w3.org/2000/svg" xmlns:xlink="http://www.w3.org/1999/xlink" x="0px" y="0px"
	 viewBox="0 0 180.6 232.6" style="enable-background:new 0 0 180.6 232.6;" xml:space="preserve">
<style type="text/css">
	.st0{fill:none;stroke:#C4C4C4;stroke-width:7;}
	.st1{fill:#050C44;}
	.st2{fill:none;stroke:#050C44;stroke-width:8;stroke-miterlimit:10;}
</style>
<path class="st0" d="M178.8,85.9"/>
<g>
	<path class="st1" d="M88.3,232.5c-14.3-11.1-28.7-22.2-43-33.3c-14-10.9-28.1-21.8-42.1-32.7c-0.6-0.5-1.3-1-1.8-1.5
		c-2-2-1.9-4.2,0.2-6c0.4-0.4,0.9-0.7,1.3-1c12.9-8.5,25.8-17,38.7-25.5c0.6-0.4,1.2-0.8,1.9-1.1c2-0.8,4-0.2,5.1,1.5
		c1,1.7,0.9,3.4-0.6,4.8c-0.8,0.7-1.8,1.3-2.7,1.9c-10.8,7.2-21.7,14.3-32.6,21.4c-1.4,0.9-1.7,1.3-0.2,2.5
		c25.5,19.7,50.9,39.5,76.4,59.4c1.1,0.8,1.7,0.9,2.8,0c25.5-19.9,51-39.7,76.6-59.5c1.7-1.3,0.7-1.7-0.4-2.4
		c-10.7-7-21.4-14.1-32.2-21.2c-0.7-0.4-1.3-0.8-2-1.3c-2.2-1.6-2.7-3.7-1.5-5.6c1.3-2,3.7-2.4,6.1-0.9
		c13.3,8.7,26.6,17.5,39.9,26.3c3.2,2.1,3.1,4.9-0.1,7.4c-17.4,13.6-34.9,27.2-52.4,40.8c-10.4,8.1-20.8,16.2-31.3,24.3
		c-0.8,0.6-1.6,1.2-2.5,1.8C90.8,232.6,89.6,232.5,88.3,232.5z"/>
	<path class="st2" d="M91.2,173.2c-0.4,0.6-1.4,0.6-1.8,0c-4.4-6.9-8.8-13.5-13-20.2c-10.4-16.7-20.4-33.7-29.1-51.3
		c-5-10.2-9.7-20.6-12.8-31.6c-3.4-12.4-1.5-23.9,4.1-34.8C47.1,18.7,63.6,7.1,82.7,4.6c17.1-2.3,32.4,2.4,45.8,13.6
		c9.3,7.8,15.2,17.7,17.9,29.4c2.1,8.9,1.4,17.5-1.4,26.1c-5.5,16.7-13.6,32.2-22.1,47.6C113.2,139,102.3,156.1,91.2,173.2
		C91.2,173.2,91.2,173.2,91.2,173.2z"/>
	<path class="st2" d="M115,59.3c0,12.9-11.3,23.8-24.6,23.7c-13.6-0.1-24.8-10.5-24.7-23.8c0.1-13,10.8-23.6,24.7-23.6
		C104.1,35.6,114.8,46.2,115,59.3z"/>
</g>
</svg>
