<svg xmlns="http://www.w3.org/2000/svg" width="27.391" height="29.068" viewBox="0 0 27.391 29.068">
  <g id="group_friend_team_unity" data-name="group, friend, team, unity" transform="translate(-3.75 -3)">
    <path id="Trazado_280" data-name="Trazado 280" d="M16.493,19.293a1.117,1.117,0,0,0-.073,1.579,7.331,7.331,0,0,1,1.864,4.97c0,.741-2.335,2.1-6.149,2.1s-6.149-1.362-6.149-2.1A7.444,7.444,0,0,1,7.826,20.9a1.118,1.118,0,0,0-1.661-1.5A9.579,9.579,0,0,0,3.75,25.841c0,2.474,3.6,4.339,8.385,4.339s8.385-1.865,8.385-4.339a9.557,9.557,0,0,0-2.448-6.476,1.117,1.117,0,0,0-1.579-.072Z" transform="translate(0 1.888)" fill="#00e9c5"/>
    <path id="Trazado_281" data-name="Trazado 281" d="M26.805,13.365a1.118,1.118,0,1,0-1.652,1.507,7.333,7.333,0,0,1,1.864,4.97c0,.741-2.335,2.1-6.149,2.1a1.118,1.118,0,0,0,0,2.236c4.78,0,8.385-1.865,8.385-4.339a9.56,9.56,0,0,0-2.448-6.476Z" transform="translate(1.888 1.18)" fill="#00e9c5"/>
    <path id="Trazado_282" data-name="Trazado 282" d="M11.84,20.18a5.59,5.59,0,1,0-5.59-5.59A5.59,5.59,0,0,0,11.84,20.18Zm0-8.944A3.354,3.354,0,1,1,8.486,14.59a3.354,3.354,0,0,1,3.354-3.354Z" transform="translate(0.295 0.708)" fill="#00e9c5"/>
    <path id="Trazado_283" data-name="Trazado 283" d="M21.34,14.18a5.59,5.59,0,1,0-5.59-5.59A5.59,5.59,0,0,0,21.34,14.18Zm0-8.944A3.354,3.354,0,1,1,17.986,8.59,3.354,3.354,0,0,1,21.34,5.236Z" transform="translate(1.416 0)" fill="#00e9c5"/>
  </g>
</svg>
