<svg xmlns="http://www.w3.org/2000/svg" width="22.207" height="23.567" viewBox="0 0 22.207 23.567"><defs><style>.a{opacity:0.61;}.b{fill:#050c44;}</style></defs><g class="a" transform="translate(-3.75 -3)"><path class="b" d="M14.081,19.237a.906.906,0,0,0-.059,1.28,5.944,5.944,0,0,1,1.511,4.029c0,.6-1.893,1.7-4.985,1.7s-4.985-1.1-4.985-1.706a6.035,6.035,0,0,1,1.491-4.008.907.907,0,0,0-1.346-1.215A7.766,7.766,0,0,0,3.75,24.546c0,2.006,2.922,3.518,6.8,3.518s6.8-1.512,6.8-3.518A7.748,7.748,0,0,0,15.362,19.3a.905.905,0,0,0-1.28-.058Z" transform="translate(0 -1.497)"/><path class="b" d="M25.47,13.3a.906.906,0,1,0-1.339,1.222,5.945,5.945,0,0,1,1.511,4.029c0,.6-1.893,1.7-4.985,1.7a.906.906,0,0,0,0,1.813c3.876,0,6.8-1.512,6.8-3.518A7.751,7.751,0,0,0,25.47,13.3Z" transform="translate(-1.497 -0.936)"/><path class="b" d="M10.782,18.064A4.532,4.532,0,1,0,6.25,13.532,4.532,4.532,0,0,0,10.782,18.064Zm0-7.251a2.719,2.719,0,1,1-2.719,2.719,2.719,2.719,0,0,1,2.719-2.719Z" transform="translate(-0.234 -0.562)"/><path class="b" d="M20.282,12.064A4.532,4.532,0,1,0,15.75,7.532,4.532,4.532,0,0,0,20.282,12.064Zm0-7.251a2.719,2.719,0,1,1-2.719,2.719A2.719,2.719,0,0,1,20.282,4.813Z" transform="translate(-1.123 0)"/></g></svg>