<svg xmlns="http://www.w3.org/2000/svg" width="15.333" height="17.523" viewBox="0 0 15.333 17.523"><defs><style>.a{fill:#050c44;}</style></defs><path class="a" d="M37.679,10.19A4.36,4.36,0,0,0,34.92,2.415a4.428,4.428,0,0,0-2.3.645A4.416,4.416,0,0,0,24,4.369a4.369,4.369,0,0,0,1.655,3.406A4.371,4.371,0,0,0,24,11.181v3.2a.73.73,0,0,0,.73.73h5.781v1.685a.73.73,0,0,0,.73.73H38.6a.73.73,0,0,0,.73-.73V13.6A4.375,4.375,0,0,0,37.679,10.19ZM25.456,4.369a2.95,2.95,0,0,1,5.895-.147,4.279,4.279,0,0,0-.824,2.164,2.878,2.878,0,0,1-1.071.7l0,0-.007,0a3.013,3.013,0,0,1-2.068,0h-.005l0,0A2.919,2.919,0,0,1,25.456,4.369Zm5.142,8.36c-.009.047-.02.093-.028.14-.014.08-.023.161-.032.241,0,.04-.011.08-.014.119-.01.121-.016.243-.016.366v.051H25.456v-.974h5.153Zm.727-1.662c-.03.041-.057.083-.085.125l-.014.02h-5.77v-.031A2.917,2.917,0,0,1,27.14,8.555a4.521,4.521,0,0,0,2.54,0,2.92,2.92,0,0,1,1.673,2.471C31.343,11.038,31.335,11.053,31.325,11.067Zm.643-4.357a2.855,2.855,0,0,1,.675-1.774h0a2.963,2.963,0,0,1,2.277-1.06,2.9,2.9,0,0,1,1.036,5.633,3.028,3.028,0,0,1-1.581.134,2.769,2.769,0,0,1-.5-.137,2.918,2.918,0,0,1-1.911-2.72Zm5.9,9.352h-5.9v-.955h5.9Zm0-2.416h-5.9V13.6a2.868,2.868,0,0,1,.266-1.205.729.729,0,0,0,.123-.237,2.817,2.817,0,0,1,.288-.407l0,0,0,0a2.929,2.929,0,0,1,1-.77l.05.013c.037.011.074.019.111.029.077.02.154.038.232.053l.155.028c.063.01.126.018.19.026s.12.015.181.019.121.006.182.008.11.007.166.007.108-.005.162-.007.125,0,.188-.008.117-.012.176-.019.131-.016.2-.026.1-.018.157-.028c.072-.014.143-.031.214-.049.045-.011.091-.022.135-.035l.044-.011A2.916,2.916,0,0,1,37.868,13.6Z" transform="translate(-23.996)"/></svg>