<svg width="21" height="24" viewBox="0 0 21 24" fill="none" xmlns="http://www.w3.org/2000/svg">
<g clip-path="url(#clip0_1645_15440)">
<path d="M17.6968 7.3773L18.6242 6.4366C18.7101 6.34971 18.7783 6.2465 18.8249 6.13286C18.8715 6.01923 18.8956 5.8974 18.8958 5.77432C18.896 5.65125 18.8723 5.52934 18.826 5.41557C18.7797 5.30179 18.7118 5.19837 18.6262 5.11121C18.5405 5.02406 18.4387 4.95487 18.3267 4.9076C18.2147 4.86033 18.0946 4.8359 17.9732 4.83571C17.8519 4.83553 17.7317 4.85959 17.6196 4.90651C17.5074 4.95344 17.4054 5.02232 17.3195 5.10921L16.3921 6.04991C14.8427 4.73855 12.9354 3.93848 10.9254 3.75677V1.87238H11.8143C12.0539 1.86443 12.281 1.76231 12.4477 1.58761C12.6144 1.41291 12.7076 1.17931 12.7076 0.936188C12.7076 0.693066 12.6144 0.459469 12.4477 0.284768C12.281 0.110067 12.0539 0.00794987 11.8143 0H8.18766C7.9481 0.00794987 7.72097 0.110067 7.55428 0.284768C7.38759 0.459469 7.2944 0.693066 7.2944 0.936188C7.2944 1.17931 7.38759 1.41291 7.55428 1.58761C7.72097 1.76231 7.9481 1.86443 8.18766 1.87238H9.07655V3.75677C6.85185 3.96605 4.76032 4.925 3.13561 6.48066C1.5109 8.03631 0.446593 10.099 0.112469 12.3398C-0.221655 14.5806 0.19365 16.8703 1.29214 18.8438C2.39063 20.8172 4.10901 22.3606 6.17319 23.2279C8.23736 24.0951 10.5284 24.2363 12.6809 23.6287C14.8333 23.0211 16.7232 21.6999 18.049 19.8758C19.3748 18.0517 20.0602 15.8298 19.9958 13.5644C19.9315 11.2991 19.121 9.12092 17.6938 7.3773H17.6968ZM10.003 22.1279C8.39024 22.1279 6.81374 21.6428 5.47281 20.734C4.13188 19.8252 3.08675 18.5334 2.46959 17.0221C1.85243 15.5108 1.69095 13.8478 2.00558 12.2434C2.3202 10.639 3.0968 9.16527 4.23717 8.00856C5.37754 6.85186 6.83045 6.06413 8.41218 5.74499C9.99392 5.42586 11.6334 5.58965 13.1234 6.21566C14.6134 6.84166 15.8868 7.90176 16.7828 9.26191C17.6788 10.6221 18.157 12.2211 18.157 13.857C18.1547 16.0498 17.2948 18.1522 15.7662 19.7028C14.2375 21.2533 12.1648 22.1255 10.003 22.1279Z" fill="#00E9C5"/>
<mask id="mask0_1645_15440" style="mask-type:alpha" maskUnits="userSpaceOnUse" x="3" y="7" width="14" height="14">
<circle cx="10" cy="14" r="7" transform="rotate(-180 10 14)" fill="#050C44"/>
</mask>
<g mask="url(#mask0_1645_15440)">
<rect x="10" y="7" width="7" height="14" fill="#00E9C5"/>
</g>
</g>
<defs>
<clipPath id="clip0_1645_15440">
<rect width="20.25" height="23.958" fill="white"/>
</clipPath>
</defs>
</svg>
