<svg xmlns="http://www.w3.org/2000/svg" width="23.945" height="23.945" viewBox="0 0 23.945 23.945"><defs><style>.a{fill:#e8d13f;}</style></defs><path class="a" d="M15.348,3.375A11.973,11.973,0,1,0,27.32,15.348,11.969,11.969,0,0,0,15.348,3.375Zm0,21.551a9.578,9.578,0,1,1,9.578-9.578A9.607,9.607,0,0,1,15.348,24.926Zm4.19-10.775a1.8,1.8,0,1,0-1.8-1.8A1.764,1.764,0,0,0,19.538,14.15Zm-8.381,0a1.8,1.8,0,1,0-1.8-1.8A1.764,1.764,0,0,0,11.157,14.15Zm4.19,7.782a6.523,6.523,0,0,0,6.106-4.19H9.242A6.523,6.523,0,0,0,15.348,21.933Z" transform="translate(-3.375 -3.375)"/></svg>