<svg xmlns="http://www.w3.org/2000/svg" width="18.381" height="18.381" viewBox="0 0 18.381 18.381"><defs><style>.a{fill:#024cac;}</style></defs><g transform="translate(0 0)"><path class="a" d="M15.348,18.381H3.033A3.08,3.08,0,0,1,0,15.311V8.6A3.013,3.013,0,0,1,1.011,6.36L7.169.772a3.034,3.034,0,0,1,4.044,0L17.37,6.36A2.984,2.984,0,0,1,18.381,8.6v6.709A3.079,3.079,0,0,1,15.348,18.381ZM9.19,1.893a1.482,1.482,0,0,0-.827.276L2.206,7.757a1.081,1.081,0,0,0-.368.937V15.4a1.233,1.233,0,0,0,1.195,1.213H15.256A1.22,1.22,0,0,0,16.451,15.4V8.694a1.744,1.744,0,0,0-.368-.937L9.926,2.169a1.044,1.044,0,0,0-.735-.276Z"/></g></svg>