<svg xmlns="http://www.w3.org/2000/svg" width="25.105" height="25.105" viewBox="0 0 25.105 25.105"><defs><style>.a{fill:#fff;}</style></defs><g transform="translate(-4 34)"><g transform="translate(4 -34)"><circle class="a" cx="1.226" cy="1.226" r="1.226" transform="translate(11.327 17.333)"/><path class="a" d="M12.553,0A12.553,12.553,0,1,0,25.105,12.553,12.546,12.546,0,0,0,12.553,0Zm0,23.144A10.591,10.591,0,1,1,23.144,12.553,10.585,10.585,0,0,1,12.553,23.144Z"/><path class="a" d="M179.923,128.5A3.927,3.927,0,0,0,176,132.423a.981.981,0,1,0,1.961,0,1.961,1.961,0,1,1,1.961,1.961.981.981,0,0,0-.981.981v2.452a.981.981,0,1,0,1.961,0v-1.6a3.923,3.923,0,0,0-.981-7.721Z" transform="translate(-167.37 -122.199)"/></g></g></svg>