<svg xmlns="http://www.w3.org/2000/svg" width="19.016" height="19.016" viewBox="0 0 19.016 19.016"><defs><style>.a{opacity:0.62;}.b{fill:#050c44;}</style></defs><g class="a" transform="translate(0 0)"><g transform="translate(0 0)"><path class="b" d="M18.424,2.314,16.7.591a2.022,2.022,0,0,0-2.856,0L1.025,13.412a.567.567,0,0,0-.154.292L.009,18.358a.557.557,0,0,0,.649.649l4.653-.862a.567.567,0,0,0,.292-.154L18.424,5.17A2.018,2.018,0,0,0,18.424,2.314ZM1.253,17.764l.521-2.815,2.293,2.293ZM5.21,16.81l-3-3L13.171,2.841l3,3ZM17.636,4.382l-.674.675-3-3,.674-.675a.906.906,0,0,1,1.28,0L17.636,3.1A.9.9,0,0,1,17.636,4.382Z" transform="translate(0 0)"/></g></g></svg>