<svg xmlns="http://www.w3.org/2000/svg" width="15.202" height="19.721" viewBox="0 0 15.202 19.721"><defs><style>.a{fill:#050c44;}</style></defs><g transform="translate(-58.667)"><path class="a" d="M66.268,0a7.61,7.61,0,0,0-7.6,7.6c0,2.357,1.22,5.1,3.625,8.137a32.358,32.358,0,0,0,3.568,3.829.616.616,0,0,0,.816,0,32.361,32.361,0,0,0,3.568-3.829c2.406-3.042,3.625-5.78,3.625-8.137a7.61,7.61,0,0,0-7.6-7.6Zm0,18.264C64.8,16.869,59.9,11.875,59.9,7.6a6.368,6.368,0,0,1,12.737,0C72.636,11.875,67.733,16.869,66.268,18.264Z"/></g></svg>