<svg xmlns="http://www.w3.org/2000/svg" width="175.214" height="33.657" viewBox="0 0 175.214 33.657"><defs><style>.a{fill:#00e9c5;}.b{fill:#fff;}</style></defs><g transform="translate(-24 -22.197)"><path class="a" d="M13.541.569a2.736,2.736,0,0,0-1.632,2.5h0V22.123a.947.947,0,0,1-1.221.906,10.189,10.189,0,0,1-7.263-9.751v-.563c0-.106.014-.209.022-.316v-.084c.024-.272.063-.544.112-.816l.016-.087c.022-.117.046-.234.071-.351A.473.473,0,0,0,3.659,11c.065-.272.139-.544.226-.816L3.9,10.13c.041-.128.084-.253.133-.378h0a8.32,8.32,0,0,1,.332-.786l.022-.044c.122-.256.253-.506.394-.748V8.161c.065-.112.133-.22.2-.329.016-.022.03-.044.044-.065.065-.1.133-.2.2-.3l.027-.038c.076-.106.152-.212.231-.316l.073-.092A11.9,11.9,0,0,1,6.691,5.78a6.84,6.84,0,0,1,.544-.454,1.137,1.137,0,0,0,.117-1.708L6.52,2.786A1.134,1.134,0,0,0,5.008,2.7,13.543,13.543,0,0,0,3.237,4.42h0l-.022.024c-.12.141-.237.272-.351.43h0c-.112.139-.218.272-.321.422l-.052.073c-.169.288-.367.593-.558.911l-.049.087c-.185.31-.356.631-.517.96-.016.03-.03.063-.046.1-.071.15-.141.3-.207.454l-.027.035c-.071.166-.139.335-.2.5l-.041.106c-.054.15-.109.3-.16.454L.661,9.05C.607,9.221.555,9.4.5,9.57l-.024.1c-.041.15-.079.3-.117.449a.436.436,0,0,1-.027.114c-.038.177-.076.356-.109.544v.073c-.035.155-.063.329-.084.476a1.048,1.048,0,0,1-.019.133C.1,11.639.076,11.822.06,12a.446.446,0,0,0,0,.06c-.016.166-.027.332-.035.5v.707H0a13.622,13.622,0,0,0,11.133,13.4.952.952,0,0,1,.786.933v5.146a.944.944,0,0,0,.944.947h1.515a.947.947,0,0,0,.947-.947V27.6a.941.941,0,0,1,.762-.917,13.584,13.584,0,0,0,7.159-3.767,13.8,13.8,0,0,0,2.105-2.72A13.628,13.628,0,0,0,17.743.3a5.919,5.919,0,0,0-4.2.272Zm9.292,17.137a10.2,10.2,0,0,1-6.294,5.334.944.944,0,0,1-1.213-.909V5.383a1.632,1.632,0,0,1,2.255-1.5,10.187,10.187,0,0,1,5.252,13.807Z" transform="translate(24 22.163)"/><path class="b" d="M142.992,90.357a5.88,5.88,0,0,1-.908-.148,9.561,9.561,0,0,0-1.171-.072c-.268,0-.708,0-.88.244a8.22,8.22,0,0,0-.172,2.443H142.3c.54,0,.808.1.808.688v.956c0,.708-.172.928-.88.928h-2.391v8.023c0,.636-.1,1.1-.856,1.1h-1.54c-.66,0-.732-.392-.732-.956V95.42h-.736c-.535,0-.588-.411-.588-.856V93.508c0-.856.689-.688,1.324-.688v-.956a4.66,4.66,0,0,1,.631-2.869c1-1.372,2.644-1.434,4.207-1.434.478,0,1.712,0,2.027.478a.923.923,0,0,1,.124.512v.172C143.724,89.2,143.724,90.357,142.992,90.357Zm5.011.731h-.956c-.88,0-1.3-.12-1.3-1.1v-.856c0-.779.32-1.076,1.076-1.076h1.152a.956.956,0,0,1,.956,1.076v.856C148.978,90.673,148.758,91.089,148,91.089Zm0,13.449h-.956c-.88,0-1.3-.124-1.3-1.1V93.876c0-.779.32-1.076,1.076-1.076h1.152a.956.956,0,0,1,.956,1.076v9.562C148.978,104.122,148.758,104.538,148,104.538Z" transform="translate(-74.232 -49.018)"/><path class="b" d="M175.266,110.252a23.78,23.78,0,0,1-3.5-.172c-.731-.1-.684-.44-.684-1.124v-.44c0-.535.048-1.124.708-1.124a11.506,11.506,0,0,1,1.272.143c.832.077,1.688.124,2.544.124s1.224,0,1.224-.9a1.3,1.3,0,0,0-.148-.808,15.824,15.824,0,0,0-2.74-.956,14.115,14.115,0,0,1-1.391-.564,2.656,2.656,0,0,1-1.736-2.764c0-3.763,2.539-3.715,5.546-3.715.612,0,1.2,0,1.812.048.88.077,1.219.244,1.219,1.2,0,.708.053,1.516-.9,1.516-.416,0-.856-.077-1.272-.1a17.558,17.558,0,0,0-1.955-.1c-.928,0-1.434-.124-1.434.956a.727.727,0,0,0,.12.478,14.1,14.1,0,0,0,3.084,1.124c1.912.636,2.811,1.272,2.811,3.423C179.866,109.812,178.3,110.252,175.266,110.252Z" transform="translate(-92.723 -54.441)"/><path class="b" d="M198.913,91.631h-.928c-.88,0-1.3-.12-1.3-1.1v-.856c0-.779.316-1.076,1.076-1.076h1.147a.956.956,0,0,1,.956,1.076v.856C199.893,91.215,199.673,91.631,198.913,91.631Zm0,13.449h-.928c-.88,0-1.3-.124-1.3-1.1V94.419c0-.779.316-1.076,1.076-1.076h1.147a.956.956,0,0,1,.956,1.076v9.562C199.893,104.665,199.673,105.081,198.913,105.081Z" transform="translate(-106.224 -49.561)"/><path class="b" d="M217.645,110.1a20.241,20.241,0,0,1-2.08.1c-4.781,0-5.575-1.635-5.575-6.182s.808-6.216,5.575-6.216a20.3,20.3,0,0,1,2.08.12c.732.076,1.344,0,1.344.832V98.8c0,.612,0,1.912-.88,1.912a6.806,6.806,0,0,1-.98-.1,17.692,17.692,0,0,0-2.295-.2c-1.028,0-1.224.2-1.434,1.147a11.618,11.618,0,0,0-.2,2.448,19.2,19.2,0,0,0,.1,2.343c.1,1.1.478,1.224,1.544,1.224a18.064,18.064,0,0,0,2.319-.2,6.475,6.475,0,0,1,.956-.1.674.674,0,0,1,.583.244,4.556,4.556,0,0,1,.3,1.664C218.983,110.054,218.4,110,217.645,110.1Z" transform="translate(-113.165 -54.363)"/><path class="b" d="M243.2,109.882h-1.372c-.559,0-.708-.368-.708-.88a6.66,6.66,0,0,1-3.615,1.2c-2.391,0-3.5-1.3-3.5-3.643,0-2.663,1.592-3.567,3.987-3.825a20.927,20.927,0,0,1,3.1-.2c0-.98.148-2.348-1.224-2.348a15.559,15.559,0,0,0-3.519.512,2.472,2.472,0,0,1-.588.072c-.851,0-.708-.856-.708-1.463a.9.9,0,0,1,.684-1.028,16.853,16.853,0,0,1,4.011-.478,4.737,4.737,0,0,1,3.5,1.124c.956,1.076.928,2.591.928,3.959v5.943C244.18,109.538,243.936,109.882,243.2,109.882Zm-2.08-5.159c-.392,0-.8-.048-1.2-.048a11.033,11.033,0,0,0-1.54.072c-1.028.148-1.434.478-1.434,1.54,0,.588.1,1.64.9,1.64a5.574,5.574,0,0,0,3.275-1.224Z" transform="translate(-125.701 -54.363)"/><path class="b" d="M264.442,104.709h-.856c-.88,0-1.3-.124-1.3-1.1V88.941c0-.784.316-1.052,1.076-1.052h1.1a.928.928,0,0,1,.956,1.052V103.61C265.393,104.293,265.2,104.709,264.442,104.709Z" transform="translate(-140.459 -49.19)"/><path class="b" d="M282.93,110.1a20.118,20.118,0,0,1-2.08.1c-4.781,0-5.57-1.635-5.57-6.182s.8-6.216,5.57-6.216a20.148,20.148,0,0,1,2.08.12c.732.076,1.344,0,1.344.832V98.8c0,.612,0,1.912-.88,1.912a6.735,6.735,0,0,1-.956-.1,17.837,17.837,0,0,0-2.3-.2c-1.028,0-1.224.2-1.434,1.147a11.955,11.955,0,0,0-.2,2.448c0,.779.029,1.563.1,2.343.1,1.1.478,1.224,1.539,1.224a18.133,18.133,0,0,0,2.324-.2,6.418,6.418,0,0,1,.956-.1.689.689,0,0,1,.588.244,4.556,4.556,0,0,1,.292,1.664C284.273,110.054,283.69,110,282.93,110.1Z" transform="translate(-147.239 -54.363)"/><path class="b" d="M305.343,110.2c-4.083,0-5.623-2.348-5.623-6.182s1.516-6.216,5.623-6.216,5.6,2.348,5.6,6.216S309.45,110.2,305.343,110.2Zm2-9.022c-.44-.8-1.176-.779-2-.779s-1.568,0-2.008.779a6.276,6.276,0,0,0-.478,2.84,6.342,6.342,0,0,0,.478,2.835c.43.76,1.2.755,2.008.755s1.563,0,2-.755a6.241,6.241,0,0,0,.44-2.835A6.613,6.613,0,0,0,307.346,101.176Z" transform="translate(-159.993 -54.363)"/><path class="b" d="M337.694,109.882h-1.372c-.559,0-.708-.368-.708-.88a6.66,6.66,0,0,1-3.619,1.2c-2.391,0-3.495-1.3-3.495-3.643,0-2.663,1.592-3.567,3.987-3.825a20.884,20.884,0,0,1,3.1-.2c0-.98.148-2.348-1.224-2.348a15.558,15.558,0,0,0-3.519.512,2.473,2.473,0,0,1-.588.072c-.856,0-.708-.856-.708-1.463a.9.9,0,0,1,.684-1.028,16.825,16.825,0,0,1,4.011-.478,4.737,4.737,0,0,1,3.5,1.124c.956,1.076.928,2.591.928,3.959v5.943C338.67,109.538,338.426,109.882,337.694,109.882Zm-2.08-5.159c-.392,0-.808-.048-1.2-.048a11.031,11.031,0,0,0-1.539.072c-1.028.148-1.434.478-1.434,1.54,0,.588.1,1.64.9,1.64a5.575,5.575,0,0,0,3.275-1.224Z" transform="translate(-175.013 -54.362)"/><path class="b" d="M363.645,110.1a20.242,20.242,0,0,1-2.08.1c-4.781,0-5.575-1.635-5.575-6.182s.808-6.216,5.575-6.216a20.3,20.3,0,0,1,2.08.12c.731.076,1.343,0,1.343.832V98.8c0,.612,0,1.912-.88,1.912a6.806,6.806,0,0,1-.98-.1,17.693,17.693,0,0,0-2.3-.2c-1.023,0-1.219.2-1.434,1.147a11.618,11.618,0,0,0-.2,2.448c0,.779.024,1.563.1,2.343.1,1.1.478,1.224,1.54,1.224a18.062,18.062,0,0,0,2.324-.2,6.476,6.476,0,0,1,.956-.1.679.679,0,0,1,.583.244,4.556,4.556,0,0,1,.3,1.664C365,110.054,364.41,110,363.645,110.1Z" transform="translate(-189.36 -54.363)"/><path class="b" d="M389.632,104.709h-1.305c-.708,0-.88-.478-.88-1.1V97.351c0-.344.048-1.688-.172-1.912a1.014,1.014,0,0,0-.784-.2,5.317,5.317,0,0,0-2.979,1.124v7.263c0,.684-.2,1.1-.956,1.1h-1.3c-.66,0-.88-.368-.88-.956V88.941c0-.784.316-1.052,1.076-1.052h1.133a.928.928,0,0,1,.956,1.052v4.523a7.674,7.674,0,0,1,3.3-.832c2.271,0,3.763,1.124,3.763,3.471v7.506C390.583,104.293,390.387,104.709,389.632,104.709Z" transform="translate(-202.089 -49.19)"/><path class="b" d="M413.4,95.166a3.151,3.151,0,0,1-2.429-.894,4.6,4.6,0,0,1,0-5.345,3.151,3.151,0,0,1,2.429-.932c2.333,0,3.414,1.234,3.414,3.529S415.791,95.166,413.4,95.166Zm1.951-5.541a2.027,2.027,0,0,0-1.86-.775,2.162,2.162,0,0,0-1.912.765,4.647,4.647,0,0,0,0,3.968,2.17,2.17,0,0,0,1.912.77,2.046,2.046,0,0,0,1.846-.779,4.432,4.432,0,0,0,0-3.949Zm-.574,3.748h-.335a.426.426,0,0,1-.378-.148l-.927-1.114h-.12v1c0,.32-.3.263-.521.263s-.3-.048-.3-.263v-3.05c0-.206.12-.253.3-.253h1.042a1.234,1.234,0,0,1,.98.253,1.434,1.434,0,0,1,.306,1.009.875.875,0,0,1-.712.99l.808.913a.354.354,0,0,1,.086.21c-.014.134-.134.172-.244.172Zm-.9-2.854a1.392,1.392,0,0,0-.378-.033h-.158c-.139,0-.32-.033-.32.153v.784h.593c.335,0,.392-.067.392-.392C413.989,90.915,413.989,90.581,413.879,90.518Z" transform="translate(-217.601 -49.242)"/></g></svg>