<svg xmlns="http://www.w3.org/2000/svg" width="18.563" height="13.944" viewBox="0 0 18.563 13.944"><defs><style>.a{fill:#050c44;}</style></defs><g transform="translate(0 -80.609)"><g transform="translate(0 80.609)"><path class="a" d="M16.932,80.609H1.632A1.718,1.718,0,0,0,0,82.4V92.764a1.718,1.718,0,0,0,1.632,1.789h15.3a1.718,1.718,0,0,0,1.632-1.789V82.4A1.718,1.718,0,0,0,16.932,80.609ZM16.719,81.8,16.5,82,9.929,88a.944.944,0,0,1-1.295,0L2.062,82l-.218-.2Zm-15.631.861,5.355,4.889L1.088,91.458Zm15.844,10.7H1.632a.56.56,0,0,1-.533-.477l6.216-4.536.624.569a1.959,1.959,0,0,0,2.687,0l.624-.569,6.216,4.536A.56.56,0,0,1,16.932,93.36Zm.544-1.9-5.355-3.907,5.355-4.889Z" transform="translate(0 -80.609)"/></g></g></svg>