<svg xmlns="http://www.w3.org/2000/svg" width="21.962" height="20.588" viewBox="0 0 21.962 20.588"><defs><style>.a{fill:#050c44;}</style></defs><path class="a" d="M14.169,15.757c2.734,0,5.024-.929,5.162-2.143-.407-1.139-.851-2.384-1.287-3.606-.3.87-1.973,1.488-3.876,1.488s-3.574-.618-3.876-1.488L9.008,13.614c.138,1.214,2.427,2.143,5.161,2.143Zm0-7.67c1.286,0,2.479-.4,2.829-1.017-.482-1.352-.895-2.513-1.156-3.244-.174-.488-.962-.741-1.672-.741s-1.5.253-1.672.741q-.578,1.619-1.156,3.243c.35.62,1.544,1.018,2.828,1.018Zm10.043,8.8-4.3-1.732.5,1.381c-.025,1.463-2.864,2.63-6.243,2.63S7.95,18,7.926,16.536l.5-1.381-4.3,1.732c-1.2.485-1.256,1.383-.112,1.995l8.078,4.332a4.93,4.93,0,0,0,4.155,0l8.079-4.332c1.143-.612,1.091-1.51-.113-1.995Z" transform="translate(-3.188 -3.085)"/></svg>