<svg xmlns="http://www.w3.org/2000/svg" width="26.41" height="26.413" viewBox="0 0 26.41 26.413"><defs><style>.a{fill:#0065e9;}</style></defs><g transform="translate(-16.045 -15.999)"><path class="a" d="M49.221,37.516l-4.478-4.478a2.549,2.549,0,0,0-1.814-.751,2.589,2.589,0,0,0-.522.053,8.467,8.467,0,0,1-1.679-5.05,12.819,12.819,0,0,0-3.755-9.065A7.6,7.6,0,0,0,25.892,28.617l.66-.582a6.719,6.719,0,0,1,9.8-9.187,11.939,11.939,0,0,1,3.5,8.442,4.546,4.546,0,0,1-2.81,4.21.44.44,0,0,0-.2.641l.44.7a.44.44,0,0,0,.256.19,8.382,8.382,0,0,1,2.811,1.377,2.577,2.577,0,0,0,0,1.053l.861-.182a1.685,1.685,0,0,1,.457-1.541l.076-.076a1.685,1.685,0,0,1,2.334-.047,2.546,2.546,0,0,0-1.636.745l-.076.076a2.558,2.558,0,0,0-.521.752l.8.365a1.679,1.679,0,0,1,.342-.494l.076-.076a1.685,1.685,0,0,1,2.383,0l.394.394a2.546,2.546,0,0,0-1.638.745l-.076.076a2.574,2.574,0,0,0-.22.251l.7.537a1.688,1.688,0,0,1,.145-.165l.076-.076a1.685,1.685,0,0,1,2.334-.047,2.546,2.546,0,0,0-1.636.745l-.076.076a2.566,2.566,0,0,0,0,3.628l.076.076a2.566,2.566,0,0,0,3.628,0l.076-.076a2.566,2.566,0,0,0,0-3.628Zm-8.106-4.478-.076.076a2.585,2.585,0,0,0-.359.45,9.249,9.249,0,0,0-2.751-1.336l-.086-.136A5.42,5.42,0,0,0,40.167,29.7a9.354,9.354,0,0,0,1.4,2.979,2.584,2.584,0,0,0-.45.359ZM48.6,40.522l-.076.076a1.685,1.685,0,0,1-2.383,0l-.076-.076a1.685,1.685,0,0,1,0-2.383l.076-.076a1.685,1.685,0,0,1,2.383,0l.076.076h0a1.685,1.685,0,0,1,0,2.383Z" transform="translate(-7.518)"/><path class="a" d="M52.286,51.329l.569-.569.7.7-1.009,1.009.623.623,1.009-1.009.569.569.623-.623-.569-.569.7-.7.7.7-.569.569.623.623.569-.569.7.7-.129.129.623.623.129-.129.569.569.623-.623-.569-.569.7-.7.7.7-.569.569.623.623.569-.569,1.45,1.45.623-.623-1.45-1.45.7-.7,1.009,1.009.623-.623-1.009-1.009.569-.569-.623-.623-.569.569-.7-.7.7-.7.569.569.623-.623-.569-.569.569-.569-.623-.623-.569.569-.7-.7.569-.569-.623-.623-.569.569-.7-.7,1.009-1.009-.623-.623-1.009,1.009-.7-.7.569-.569-.623-.623-.569.569-.7-.7.569-.569-.623-.623-.569.569-.569-.569-.623.623.569.569-.7.7-1.009-1.009-.623.623,1.009,1.009-.7.7-1.009-1.009-.623.623,1.009,1.009-.7.7-1.009-1.009-.623.623L52.233,47.5l-.7.7-.569-.569-.623.623.569.569-.569.569.623.623.569-.569.7.7-.569.569Zm1.89-.494-.7-.7.7-.7.7.7Zm3.962-1.321-.7-.7.7-.7.7.7Zm1.321-.076.7.7-.7.7-.7-.7Zm-2.641-1.245-.7-.7.7-.7.7.7Zm-.623.623-.7.7-.7-.7.7-.7Zm-.075,1.321.7-.7.7.7-.7.7Zm2.019,2.019-.7-.7.7-.7.7.7Zm3.339-.7-.7.7-.7-.7.7-.7Zm0-2.641-.7.7-.7-.7.7-.7ZM60.157,47.5l-.7.7-.7-.7.7-.7Zm-1.321-1.321-.7.7-.7-.7.7-.7Zm-2.019-2.019.7.7-.7.7-.7-.7ZM55.5,45.478l.7.7-.7.7-.7-.7ZM54.176,46.8l.7.7-.7.7-.7-.7Zm-2.019,2.019.7-.7.7.7-.7.7Z" transform="translate(-32.411 -24.894)"/><path class="a" d="M23.937,252.924a3.686,3.686,0,0,1,3.012-.4l1.135.341a5.7,5.7,0,0,1,.285,1.783h.88a6.6,6.6,0,1,0-2.83,5.419l-.5-.722a5.684,5.684,0,0,1-1.805.836l-.621-.709a5.192,5.192,0,0,1-1.284-3.419,3.664,3.664,0,0,1,.45-1.762,11.573,11.573,0,0,1,2.076,1.024l1.643,1.027.467-.747L25.2,254.563a12.452,12.452,0,0,0-2.014-1.016,3.653,3.653,0,0,1,.753-.623ZM27.61,251.8l-.409-.123a4.566,4.566,0,0,0-3.731.5,4.512,4.512,0,0,0-1.173,1.057c-.381-.118-.769-.218-1.162-.3a10.311,10.311,0,0,1,3.753-3.556,5.759,5.759,0,0,1,2.721,2.42Zm-3.851-2.77a11.194,11.194,0,0,0-3.559,3.748c-.388-.05-.78-.081-1.172-.095a14.315,14.315,0,0,0,.529-2.856,5.718,5.718,0,0,1,4.2-.8Zm-6.837,5.613a5.736,5.736,0,0,1,.083-.975q.39-.054.784-.083a13.449,13.449,0,0,1-.828,1.729A5.756,5.756,0,0,1,16.923,254.643Zm1.658-4.025a13.43,13.43,0,0,1-.474,2.068c-.288.012-.576.033-.863.065a5.734,5.734,0,0,1,1.336-2.132Zm-1.336,5.918a14.326,14.326,0,0,0,1.5-2.979c.339,0,.679.023,1.016.056a11.153,11.153,0,0,0-1.09,5.14,5.737,5.737,0,0,1-1.423-2.217Zm5.582,3.51.264.3q-.221.017-.445.017a5.688,5.688,0,0,1-3.049-.882,10.292,10.292,0,0,1,1.08-5.741,11.572,11.572,0,0,1,1.131.264,4.542,4.542,0,0,0-.483,2.042,6.073,6.073,0,0,0,1.5,4Z" transform="translate(0 -219.274)"/><path class="a" d="M222.161,383.994a3.061,3.061,0,0,0-1.539.414,3.082,3.082,0,1,0,0,5.336,3.081,3.081,0,1,0,1.539-5.749Zm2.192,2.89-.12-.12a1.685,1.685,0,0,0-2.383,0,.8.8,0,0,1-1.138,0l-.568-.568a2.2,2.2,0,0,1,4.21.688Zm-5.274-2.01a2.2,2.2,0,0,1,.788.146,3.074,3.074,0,0,0-.731,1.465,1.681,1.681,0,0,0-.369.279.8.8,0,0,1-1.138,0l-.568-.568A2.2,2.2,0,0,1,219.08,384.874Zm-2.192,2.392.12.12a1.686,1.686,0,0,0,2.118.217,3.073,3.073,0,0,0,.742,1.528,2.2,2.2,0,0,1-2.981-1.865Zm5.274,2.01a2.2,2.2,0,0,1-2.192-2.01l.12.12a1.685,1.685,0,0,0,2.383,0,.8.8,0,0,1,1.138,0l.568.568A2.2,2.2,0,0,1,222.161,389.276Z" transform="translate(-188.951 -347.745)"/></g></svg>