<svg xmlns="http://www.w3.org/2000/svg" width="26.32" height="29.247" viewBox="0 0 26.32 29.247"><defs><style>.a{fill:#0065e9;}</style></defs><path class="a" d="M26.11,3.932l-1.25-1.1,1.25-1.1A.617.617,0,0,0,25.7.651H20.531V.429a.429.429,0,1,0-.857,0V6.21l-3.52,1.912a1.356,1.356,0,0,0-.139-.45l-.5-.968a1.356,1.356,0,0,0-1.823-.588l-.384.2a1.354,1.354,0,0,0-.588,1.823l.5.969a1.346,1.346,0,0,0,.488.53,3.755,3.755,0,0,0-.517,1.244L13.1,11.2a.428.428,0,0,0,.3.529.422.422,0,0,0,.117.016.429.429,0,0,0,.412-.312l.092-.326c.188-.663.3-1.017.671-1.217l.658-.358.081-.042c.027-.014.052-.029.078-.045L20.2,6.9a1.814,1.814,0,0,1-.865,1.457l-3.052,1.854-.01.006-.95.577a.429.429,0,0,0,.41.752l-.721,2.179-.527.216-1.433.587.413-1.459a.429.429,0,1,0-.825-.233l-.652,2.307a.412.412,0,0,0-.015.093L11.8,18.372a1.435,1.435,0,0,1-.035.462l-1.9,3.988H8.489a1.465,1.465,0,0,0-1.464,1.463v1.237a1.452,1.452,0,0,0-.606-.132h-3.5a1.465,1.465,0,0,0-1.463,1.463V28.39H.429a.429.429,0,1,0,0,.857H25.7a.429.429,0,1,0,0-.857H24.587V17.341a1.465,1.465,0,0,0-1.463-1.463H20.531V8.4a2.673,2.673,0,0,0,.431-2.291.429.429,0,0,0-.431-.315V5.012H25.7a.617.617,0,0,0,.408-1.08ZM13.455,7.364a.494.494,0,0,1,.247-.29l.384-.2a.5.5,0,0,1,.669.216l.5.969a.5.5,0,0,1-.165.639l-.14.076-.295.151a.5.5,0,0,1-.669-.216l-.5-.968a.494.494,0,0,1-.031-.379Zm-.861,15.591a1.455,1.455,0,0,0-.471-.125l.471-.625ZM14.629,19.5a1.615,1.615,0,0,0,.309-.768c.012-.055.223-1.211.223-1.211s.2.125.221.134a.046.046,0,0,1,.026.037l.233,2.37H14.205Zm2.535-2.366L16.8,20.061h-.3l-.241-2.452a.9.9,0,0,0-.5-.725l-.431-.273.287-1.592s1.21,1.437,1.238,1.474c.25.326.336.456.313.642Zm-4.63,2.075a2.324,2.324,0,0,0,.12-.8l.156-2.86,1.983-.812-.36,2c0,.005,0,.011,0,.016l-.3,1.651a1.633,1.633,0,0,1-.179.571l-2.9,3.847h-.239ZM2.315,26.855a.607.607,0,0,1,.606-.606h3.5a.607.607,0,0,1,.606.606V28.39H2.315Zm5.568,0V24.286a.607.607,0,0,1,.606-.606h3.5a.607.607,0,0,1,.606.606v4.1H7.883V26.855ZM23.73,17.341V28.39H19.019V25.82a.429.429,0,0,0-.858,0v2.57H13.451V21.526a.607.607,0,0,1,.606-.606h3.5a.607.607,0,0,1,.606.606v2.149a.429.429,0,0,0,.857,0V17.341a.607.607,0,0,1,.606-.606h3.5a.607.607,0,0,1,.606.606Zm-4.1-1.463a1.465,1.465,0,0,0-1.463,1.463V20.2a1.451,1.451,0,0,0-.5-.127l.35-2.828a1.655,1.655,0,0,0-.484-1.27c-.029-.037-1.695-2.016-1.695-2.016l1.022-3.09,2.816-1.711v6.725Zm.905-11.724V1.508h4.535l-.977.86a.617.617,0,0,0,0,.926l.977.86H20.531Zm0,0" transform="translate(0 0)"/></svg>