<svg xmlns="http://www.w3.org/2000/svg" viewBox="0 0 490.31 489.91"><defs><style>.cls-1{fill:#0065e9;}</style></defs><g id="Capa_2" data-name="Capa 2"><g id="Capa_1-2" data-name="Capa 1"><path class="cls-1" d="M391.49,122.7V74a46.87,46.87,0,0,0-4.9,0c-5.31.6-8.72-1.7-10.85-6.5a3.77,3.77,0,0,0-2.88-1.69q-20.21-.16-40.43,0a5.12,5.12,0,0,0-3.33,1.49c-8.58,8.94-17.25,17.8-25.52,27-6.3,7-10.85,7.48-18.57,1.65-6.93-5.24-14.22-10-21.42-14.88-4.72-3.2-6-8.55-2.41-12.89,7.1-8.49,14.5-16.72,21.83-25,6.63-7.47,13.6-14.67,19.9-22.41,2.62-3.21,5.53-4.09,9.15-4.1,20,0,40-.07,60,.05,3,0,4.58-.68,6-3.65C382.22,4.31,389.55,0,399.33,0,411,0,422.72,0,434.42,0a22.88,22.88,0,0,1,23,23.11c.1,13.33,0,26.65,0,40,0,7.6-3.18,10.82-10.66,10.86h-5.11v48.7c4.63,0,9.31,0,14,0,7.11.05,10,2.89,10,10,0,6.66.1,13.33,0,20-.05,2.41.61,3.74,3,4.59,14,4.91,21.65,19.11,21.63,31.95q-.12,108.18,0,216.36c0,7.82-2.8,10.54-10.76,10.54H376.16c-1.05,10.1-4.49,18.92-12.4,25.5-7.26,6-15.66,8-24.87,7.1-15.94-1.53-27.58-16.84-28.39-29.91-1-16.35,10.05-33.74,32.34-35.43V378.7q0-94.17-.06-188.36c0-11.07,3.69-20.26,11.77-27.56a29.57,29.57,0,0,1,9.13-5.27c2.91-1.14,3.7-2.72,3.61-5.64-.2-6.06-.08-12.14-.05-18.21,0-8.29,2.66-10.94,10.81-11C382.46,122.69,386.86,122.7,391.49,122.7ZM473.2,351.17H395c-8.49,0-11.11-2.63-11.11-11.14q0-54.19,0-108.38c0-8.79,2.46-11.19,11.42-11.2h78.13c0-10.67,0-20.58,0-30.5,0-12-6.27-18.2-18.4-18.21-25.61,0-51.23.26-76.84-.13-10.45-.16-18.69,6.65-18.6,18.5.43,57.29.19,114.59.19,171.89v5.07c5.15,0,9.71,0,14.27,0,5.89,0,9.91,3.4,10,8.31s-4.11,8.57-10.2,8.6c-4.57,0-9.13,0-15,0,1.25,2.46,1.79,4.35,3,5.66,2.32,2.6,5.22,4.71,7.47,7.36a7.52,7.52,0,0,0,6.39,2.94c31.09-.11,62.18-.07,93.28-.07h4.2V384H468c-19.54,0-39.09-.06-58.63,0-4.56,0-7.29-2.4-8.93-6.06s.19-6.87,3.06-9a11.84,11.84,0,0,1,6.55-1.86c19.4-.14,38.79-.08,58.19-.08h4.95Zm0-16.46V236.9H400.6v97.81ZM441.07,56.9c0-11.71.15-23.22-.08-34.73-.07-3.81-3.18-5.21-6.54-5.24q-18-.16-36,0c-3.12,0-6.31,1.33-6.39,4.89-.26,11.64-.1,23.28-.1,35.08ZM279.72,72.19c3.49,2.44,6.74,4.47,9.71,6.85,2.74,2.19,4.56,1.5,6.73-.88,7.53-8.3,15.34-16.34,22.82-24.68a11.91,11.91,0,0,1,9.73-4.19c13.92.11,27.84.05,41.76.05h5v-16a12,12,0,0,0-1.85-.31c-19,0-37.91-.07-56.87.08a7,7,0,0,0-4.35,2.28c-6.6,7.12-13.07,14.35-19.5,21.62C288.48,61.9,284.23,67,279.72,72.19Zm168.77,82.44v-15.4H384.3v15.4ZM327,416.06c.26,9.92,7.19,16.06,16.13,16.52,8.05.41,16.37-8.05,16.44-16.11.07-8.24-7.74-16.21-16.05-16.39A16.36,16.36,0,0,0,327,416.06Zm97.38-341.7H409v48.05h15.39Z"/><path class="cls-1" d="M208.79,462.35c-8.12,11-18.67,12.86-30.91,9.17a4.45,4.45,0,0,0-3.68,1.08c-9.43,9.69-17.58,11.38-30.45,6-5.57,6.9-12.42,11.5-21.73,11.31-12.56-.26-23.31-11-23.52-23.56-.1-6.05,0-12.1,0-18.15-12.87-2.49-22.72-9.3-31.07-18.76-4-4.51-7.88-9.47-12.85-12.61-5.24-3.32-11.65-4.86-17.64-6.92-10-3.44-20.21-6.55-30.23-10.05-4.63-1.62-6.72-5-6.7-10.23.14-44.57.06-89.13.08-133.69,0-9.38,5.15-12.76,13.81-9.58,19.24,7.08,38.57,13.9,57.82,20.94Q85.63,272.4,99.37,278c4,1.65,6.88,1.28,10.22-2a137.23,137.23,0,0,1,59-34.05c12.71-3.61,23.17-1.88,32.51,11.49,1.72,2.47,3.64,3.19,6.49,3.62a71.22,71.22,0,0,1,13.61,3.57c2.8,1,4.57.64,6.42-1.52a50.51,50.51,0,0,1,27-16.61c13-3.08,26-2.85,38.54,3.12C306.2,251.77,316,261,321.74,274c5.31,11.87,6.83,24.32,3.51,37.24a58.15,58.15,0,0,1-20.65,31.9c5.23,6.9,8.14,14.41,5,23.09-2.94,8.24-8.54,13.95-16.77,16.67,3,16.48-.09,23.29-13.92,31.92a4.35,4.35,0,0,0-1.61,3.7c4.06,14.16-7.85,31.59-25.46,30.45a19.23,19.23,0,0,0-5.31.07,6,6,0,0,0-3.66,2.19C235.19,464.69,223.06,468.83,208.79,462.35ZM134.66,403c8.46-10.78,17.7-13.56,30-9.64,1.24.39,3.13-.36,4.41-1.11,4-2.33,7.56-5.74,11.82-7.24,8.46-3,16.55-1,23.22,4.11l10.13-5c-.42,0-1.14-.1-1.85-.21-5.29-.81-8.1-4-7.86-8.95s3.46-7.74,8.87-7.9c1.47,0,3,0,4.44,0,21.91,0,43.83.1,65.74-.13,2.82,0,6.45-1,8.2-2.94,1.55-1.7,1.79-5.5,1.18-8-.89-3.74-4.4-4.8-8.09-4.8q-31.09,0-62.19,0c-3.25,0-6.52.11-9.77,0-5.17-.22-8.45-3.57-8.39-8.34.07-5.26,2.74-7.78,8.5-7.85s11.55,0,17.32,0c12.88,0,25.77.05,38.65,0,4.24,0,8.37-3.52,8.82-7.34.48-4.14-2-6.76-5.34-8.38-1.62-.79-3.73-.76-5.62-.76q-46.41-.06-92.84,0c-3.4,0-6.81.12-10.21-.05-7-.34-10.52-5.82-7.5-12.05a57.63,57.63,0,0,1,26-26.9,11.55,11.55,0,0,0,6.77-10c.42-4.85-1.84-8.5-6.14-10.9-3.87-2.15-7.56-1.24-11.52,0-20.67,6.46-38.8,17.1-53.73,32.83-6.88,7.26-13.2,15.06-19.64,22.72-2.72,3.23-6,4.94-10.1,4.15q-23.73-4.53-47.4-9.31c-7.75-1.55-15.46-3.28-23.61-5,0,27,0,53.34.13,79.67,0,1.09,1.6,2.75,2.8,3.16,11,3.78,22.12,7.29,33.15,11,3.19,1.08,6.8,1.94,9.22,4.05,6.41,5.59,12.28,11.8,18.35,17.77,5,4.94,10.12,9.78,18.21,11.09-1.67-10.43.62-19.47,9-25.64C116.05,398.91,125.22,398,134.66,403ZM180,300.69l.66,1.44H185c28,0,55.95.14,83.92-.06,12.64-.09,22.48,7.83,24.85,20.14.42,2.23.43,4.54.75,8.09,3.31-3.52,6.44-5.88,8.32-9,10.6-17.52,11-30.08.13-46.82-9.24-14.26-27.77-21.11-44.93-15.59-10,3.24-18,9-23.26,18.33-2.94,5.24-8.06,6.16-13.16,2.89-4.88-3.13-9.46-7.13-16-6.65-1.86,9.41-7.25,16-15.37,20.57C186.67,296,183.41,298.46,180,300.69ZM17,265.08c0,6.78.15,12.54-.06,18.29-.11,3,1.06,4,3.93,4.54,20.13,3.87,40.23,7.93,60.34,12,6.12,1.23,9.06-.39,11.65-6.94ZM163.41,437.2c0-6.51.06-13,0-19.54-.07-5.83-3.08-9.32-7.87-9.34-4.95,0-8,3.25-8,9.09q-.12,19.32,0,38.63c0,5.53,3.39,9.31,8,9.29,4.43,0,7.83-4,7.88-9.48C163.47,449.63,163.42,443.41,163.41,437.2Zm-32.82,8.11c0-6.79,0-13.59,0-20.38-.05-5.25-3.28-8.78-7.85-8.78-4.16,0-7.88,4.08-8,9-.1,3.69,0,7.38,0,11.08,0,9.44-.09,18.89,0,28.34.07,5.23,3.54,8.62,8.23,8.5,5.11-.14,7.55-2.7,7.62-8.23C130.66,458.3,130.61,451.8,130.59,445.31Zm65.61-16.57c0-6.81.12-13.62,0-20.42-.11-4.57-4-8.35-8.17-8.24-4.38.11-7.63,3.61-7.65,8.47-.05,13.32-.09,26.64.06,39.95a9.67,9.67,0,0,0,1.85,5.59,6.87,6.87,0,0,0,8.34,2.37c3.34-1.39,5.57-3.88,5.6-7.74C196.24,442.06,196.2,435.4,196.2,428.74ZM212.46,424c0,5.33-.1,10.66,0,16s3.49,8.68,8.16,8.71,8.26-3.35,8.33-8.52c.15-10.51.12-21,0-31.53,0-4.65-4.12-8.61-8.39-8.59s-8,4.05-8.1,8.85C212.4,414,212.47,419,212.46,424Zm14.86-40c6.63,2.5,11.78,6.14,14.81,12.61.63,1.36,2.38,3.06,3.66,3.11q12.18.39,24.38,0a8.44,8.44,0,0,0,7.68-7.84,8,8,0,0,0-8-7.85C255.68,383.92,241.5,384,227.32,384Zm18.13,48.51c5.79.21,11.72,1.48,14.7-4.29,1.15-2.23.74-6.38-.65-8.59-3.36-5.32-9-3.26-14.05-3.42Z"/><path class="cls-1" d="M130.91,122.71c18.48,0,32.58,14,32.66,32.38s-14.06,32.41-32.32,32.79c-18.56.38-33-16-33-32.66C98.2,139,112.06,122.28,130.91,122.71Zm0,16.26c-9.06.56-16,7.16-16.07,16.12a16.39,16.39,0,0,0,16.25,16.41c8.25.13,16.28-7.89,16.22-16.16C147.23,146.53,139.86,139.25,130.89,139Z"/><path class="cls-1" d="M243,149.63c-.11-7.34,3.82-13.15,7.26-19.12s7.41-12,10.79-18.24c4.05-7.44,11.14-8.72,15.7-1.74a287.33,287.33,0,0,1,17.49,30.6c4.58,9.33,1.71,18.5-4.8,25.85-7.85,8.86-17.88,11.19-29.33,7.19C248.85,170.23,242.92,158.07,243,149.63Zm26.56-19.1c-1.59,2.76-2.7,4.8-3.93,6.77-1.32,2.13-2.93,4.09-4.1,6.29-2.57,4.82-1.81,10.47,1.61,13.49a9.41,9.41,0,0,0,11.84.83c4.09-2.79,5.88-7.86,3.58-12.45C276.11,140.51,272.89,135.92,269.59,130.53Z"/><path class="cls-1" d="M180.16,204.34c-1.5-12.33,11.39-24.65,24.06-24.71,14.12-.06,25.16,13.06,25,24.72-.2,13.16-11.77,24.48-25.22,24.55C192.37,229,178.88,217.57,180.16,204.34Zm24.22-8a8,8,0,0,0-7.94,7.92,8.14,8.14,0,0,0,8,7.83,7.88,7.88,0,0,0-.07-15.75Z"/><path class="cls-1" d="M436.85,187.65c3.68,0,7.37,0,11.06,0,5.32.07,9.57,3.8,9.55,8.33s-4.21,8.5-9.37,8.55q-11.29.09-22.58,0c-5.3-.05-9.38-3.89-9.34-8.58,0-4.46,4.1-8.19,9.16-8.29C429.17,187.59,433,187.65,436.85,187.65Z"/><path class="cls-1" d="M378.15,201.34c-1.68-1.67-2.46-5.5-1.86-7.93a7.54,7.54,0,0,1,7.55-5.75c2.51,0,5-.08,7.52,0,5.23.17,8.9,3.76,8.78,8.51s-3.7,8.21-9,8.37c-1.18,0-2.36,0-3.54,0C387.45,204.91,380.36,203.55,378.15,201.34Z"/><path class="cls-1" d="M269.86,265.15c14.43.16,25.31,8.34,30.37,21,1.67,4.19-.3,9.37-4,11-4.37,1.9-9-.14-11.1-4.87-4.54-10.35-15.11-13.44-24.91-7.46-2.2,1.34-5.14,3.11-7.22,2.59a13.21,13.21,0,0,1-7.25-5.42c-1.84-3-.4-6.29,2.24-8.72C253.44,268.19,261.74,265.13,269.86,265.15Z"/><path class="cls-1" d="M437.74,257.44A4.93,4.93,0,0,0,434.8,262h0v34.34a1.71,1.71,0,0,1-1.71,1.7,1.61,1.61,0,0,1-.49-.07,18.35,18.35,0,0,1-13.09-17.58v-1c0-.19,0-.38,0-.57v-.15q.07-.74.21-1.47l0-.16c0-.21.08-.42.12-.63l0-.11c.11-.49.25-1,.4-1.47l0-.1.24-.68h0c.19-.49.39-1,.6-1.42l0-.08c.22-.46.46-.91.71-1.34v0l.36-.59.08-.12.37-.54.05-.07.41-.57.13-.16a22.77,22.77,0,0,1,2-2.24c.32-.29.64-.56,1-.82a2,2,0,0,0,.4-2.87l-.18-.21-1.51-1.5a2,2,0,0,0-2.72-.14,23.3,23.3,0,0,0-3.19,3.09h0l0,0a9.74,9.74,0,0,0-.63.78h0a8.47,8.47,0,0,0-.58.76l-.1.13c-.3.52-.66,1.07-1,1.64l-.09.16c-.33.56-.64,1.14-.93,1.73l-.08.17c-.13.27-.26.55-.38.82l0,.07c-.12.29-.25.6-.36.9l-.07.19c-.1.27-.2.55-.29.82l-.05.14c-.09.3-.19.62-.28.93l0,.18c-.08.27-.15.54-.22.81a.71.71,0,0,1,0,.2c-.07.32-.14.65-.2,1V276c-.06.28-.11.59-.15.85a1.5,1.5,0,0,1,0,.24c0,.33-.08.66-.11,1v.11q0,.45-.06.9v1.28h-.05a24.57,24.57,0,0,0,20.07,24.15,1.72,1.72,0,0,1,1.42,1.68v9.27a1.69,1.69,0,0,0,1.69,1.71h2.74a1.71,1.71,0,0,0,1.71-1.71h0v-9.27a1.68,1.68,0,0,1,1.37-1.65,24.57,24.57,0,0,0,8-45.33,24.16,24.16,0,0,0-5-2.23A10.64,10.64,0,0,0,437.74,257.44Zm16.75,30.89a18.4,18.4,0,0,1-11.35,9.61A1.69,1.69,0,0,1,441,296.8a1.41,1.41,0,0,1-.07-.5V266.12a2.94,2.94,0,0,1,2.94-2.94,3,3,0,0,1,1.12.22,18.37,18.37,0,0,1,9.85,24c-.12.29-.25.58-.38.86Z"/></g></g></svg>