<svg xmlns="http://www.w3.org/2000/svg" viewBox="0 0 344.12 447.77"><defs><style>.cls-1,.cls-2{fill:none;stroke:#0065e9;stroke-linejoin:round;stroke-width:14px;}.cls-1{stroke-linecap:round;}</style></defs><g id="Capa_2" data-name="Capa 2"><g id="Capa_1-2" data-name="Capa 1"><circle class="cls-1" cx="171.81" cy="87" r="80"/><line class="cls-2" x1="157.23" y1="73.77" x2="128.97" y2="41.84"/><line class="cls-2" x1="159.07" y1="43.67" x2="127.14" y2="71.93"/><path class="cls-1" d="M7,440.77v-150c0-34.31,32.29-45.18,62.12-62.13,13.31-7.55,37.22-18.77,58.62-28.44A102.63,102.63,0,0,1,214,201c22.61,10.71,48.36,22.65,61.05,27.66,36.32,14.34,62.12,27.82,62.12,62.13v68.37a41.62,41.62,0,0,1-41.62,41.63H148.62a38.5,38.5,0,0,1-38.5-38.5h0a38.5,38.5,0,0,1,38.5-38.5h50.72"/><polyline class="cls-1" points="227.27 207.26 180.88 400.77 288.88 400.77 282.73 231.76"/><line class="cls-1" x1="80.75" y1="440.77" x2="80.75" y2="317.19"/><line class="cls-2" x1="264.19" y1="344.09" x2="221.56" y2="344.09"/><line class="cls-2" x1="242.87" y1="322.77" x2="242.87" y2="365.41"/><line class="cls-1" x1="272.87" y1="440.77" x2="272.87" y2="400.77"/></g></g></svg>