<svg xmlns="http://www.w3.org/2000/svg" width="25.734" height="22.617" viewBox="0 0 25.734 22.617"><defs><style>.a{fill:#0065e9;}</style></defs><g transform="translate(0 -31.006)"><path class="a" d="M246.5,34.572a.5.5,0,0,0,.5-.5v-2.56a.5.5,0,1,0-1.005,0v2.56A.5.5,0,0,0,246.5,34.572Z" transform="translate(-233.631)"/><path class="a" d="M154.044,63.66a.5.5,0,1,0,.85-.536L153.555,61a.5.5,0,1,0-.85.536Z" transform="translate(-144.956 -28.263)"/><path class="a" d="M312.982,63.818a.5.5,0,0,0,.693-.158l1.338-2.125a.5.5,0,1,0-.851-.536l-1.338,2.125A.5.5,0,0,0,312.982,63.818Z" transform="translate(-297.028 -28.264)"/><path class="a" d="M25.572,124.8l-.873-1.543a.5.5,0,1,0-.875.5l.873,1.542a.248.248,0,0,1,.022.19.237.237,0,0,1-.112.144l-1.346.746a.255.255,0,0,1-.341-.091l-.342-.6,0-.008-3.535-6.252a.245.245,0,0,1-.022-.188.235.235,0,0,1,.112-.143l1.348-.746a.25.25,0,0,1,.34.091l.788,1.392a.5.5,0,1,0,.875-.5l-.787-1.391a1.258,1.258,0,0,0-1.7-.476l-1.347.746a1.249,1.249,0,0,0-.508,1.651l-.742.215a2.923,2.923,0,0,1-.615.141h0a1.255,1.255,0,0,1-.382-.115c-.1-.039-.232-.088-.391-.143l-1.315-.46a3.013,3.013,0,0,0-1.531-.2l-2.242.2a3.029,3.029,0,0,0-2.034.721l-1.278-.37a1.248,1.248,0,0,0-.511-1.643l-1.347-.746a1.259,1.259,0,0,0-1.7.476L.163,124.8A1.25,1.25,0,0,0,.64,126.5l1.347.746a1.26,1.26,0,0,0,1.7-.476l.142-.252a2.361,2.361,0,0,1,.937.713,1.687,1.687,0,0,0,1.091,2.772,1.685,1.685,0,0,0,1.484,1.853,1.685,1.685,0,0,0,1.484,1.853,1.69,1.69,0,0,0,2.736,1.5l1.052-.842a1.694,1.694,0,0,0,.228-.22l.6.48a1.689,1.689,0,0,0,2.713-.995,1.68,1.68,0,0,0,.551.092,1.74,1.74,0,0,0,.191-.011,1.686,1.686,0,0,0,1.493-1.855,1.684,1.684,0,0,0,1.484-1.853,1.689,1.689,0,0,0,1.091-2.772,2.351,2.351,0,0,1,.936-.713l.143.252a1.261,1.261,0,0,0,1.7.475l1.346-.746a1.252,1.252,0,0,0,.479-1.708ZM2.814,126.279a.255.255,0,0,1-.341.091l-1.347-.746a.236.236,0,0,1-.112-.144.247.247,0,0,1,.023-.19l3.881-6.863a.245.245,0,0,1,.215-.123.258.258,0,0,1,.125.032l1.346.746h0a.236.236,0,0,1,.112.143.245.245,0,0,1-.023.189Zm3.668,2.587a.684.684,0,0,1-.855-1.068l1.882-1.5a.687.687,0,0,1,.964.108.685.685,0,0,1-.107.959l-.009.008-1.874,1.5ZM7,130.612a.686.686,0,0,1,.107-.961h0l2.71-2.165a.687.687,0,0,1,.964.108.687.687,0,0,1-.108.961l-2.71,2.165A.687.687,0,0,1,7,130.612Zm1.943,2.105a.684.684,0,0,1-.352-1.213h0l1.876-1.5.007,0a.687.687,0,0,1,.963.107.686.686,0,0,1-.108.961l-1.882,1.5A.682.682,0,0,1,8.946,132.717Zm3.293.408a.679.679,0,0,1-.252.459l-1.052.842a.687.687,0,0,1-.964-.107.686.686,0,0,1,.107-.961h0l1.052-.841h0a.687.687,0,0,1,.964.107A.677.677,0,0,1,12.239,133.125Zm7.976-4.366a.689.689,0,0,1-.963.107h0l-1.345-1.075a.5.5,0,1,0-.627.785l1.344,1.074a.684.684,0,1,1-.855,1.068l-1.459-1.164a.5.5,0,0,0-.627.786L17.14,131.5a.685.685,0,0,1-.856,1.07l-.726-.581,0,0-.613-.49-.115-.092a.5.5,0,0,0-.628.785l.73.584a.685.685,0,0,1-.857,1.068l-.828-.662a1.682,1.682,0,0,0-.966-1.661,1.687,1.687,0,0,0-.655-2.516,1.689,1.689,0,0,0-2.034-2.54,1.676,1.676,0,0,0-.33-.692,1.694,1.694,0,0,0-2.376-.265l-1.346,1.076a3.312,3.312,0,0,0-1.207-.94l2.768-4.9,1.474.427a1.644,1.644,0,0,0,.041.25c.357,1.467,1.708,2.151,3.525,1.784,1.531-.308,2.162.151,3.418,1.065.13.095.266.193.407.295.9.648,1.868,1.409,2.515,1.926l1.632,1.3a.686.686,0,0,1,.106.961Zm-.016-2.176-1.095-.875c-.656-.523-1.635-1.3-2.557-1.957-.14-.1-.273-.2-.4-.291-1.3-.948-2.243-1.633-4.208-1.238-.6.121-2.034.263-2.35-1.036-.045-.183,0-.246.02-.273.067-.094.338-.322,1.4-.415l2.245-.2a2.058,2.058,0,0,1,1.108.145l1.315.46c.146.051.263.1.366.134a1.926,1.926,0,0,0,1.633,0l.97-.281,2.765,4.89A3.3,3.3,0,0,0,20.2,126.584Z" transform="translate(0 -81.957)"/><path class="a" d="M451.073,192.59a.5.5,0,1,0-.5-.5h0A.5.5,0,0,0,451.073,192.59Z" transform="translate(-427.924 -152.507)"/></g></svg>