<svg xmlns="http://www.w3.org/2000/svg" viewBox="0 0 578.2 550.32"><defs><style>.cls-1{fill:#0065e9;}.cls-2{fill:none;stroke:#0065e9;stroke-linecap:round;stroke-linejoin:round;stroke-width:14px;}</style></defs><g id="Capa_2" data-name="Capa 2"><g id="Layer_1" data-name="Layer 1"><path class="cls-1" d="M363.35,456.22a66.83,66.83,0,0,1-3.11-6.77c-.45-1.08-.91-2.17-1.38-3.25l-.11-.24-6.29-7.78-.28-.29c-5.78-4.75-12.58-7.28-21.41-8-13.45-1-27.13-2.3-40.36-3.51l-14.67-1.34-.59,0c-1.28-.09-1.76-.17-2.13-.67-3-3.9-7.16-6.18-10.87-8.2q-9.9-5.42-19.84-10.77-10.84-5.86-21.67-11.77-15.51-8.46-31-17l-20.72-11.37c-6.73-3.69-12.38-3.11-18.33,1.86l-.63.52a24.9,24.9,0,0,0-2.34,2.09c-3.28,3.47-7.41,5.88-12.07,8.46a37.54,37.54,0,0,1-7.29,2.77,53.91,53.91,0,0,0-6,2.07,1.78,1.78,0,0,1-2.34-.23,109.06,109.06,0,0,1-10.14-9.18c-1.25-1.23-2.5-2.46-3.77-3.67-7.73-7.34-16-11.16-25.4-11.67-5-.27-10.07-.91-15-1.53l-2.23-.28A25.89,25.89,0,0,0,50.07,358l-.27.11L43,363.6l-.19.37c-.27.53-.55,1-.84,1.58-.62,1.16-1.27,2.35-1.83,3.61l-3.94,8.89c-7.88,17.77-16,36.14-24,54.24q-1.44,3.27-2.93,6.52c-2.73,6-5.55,12.26-7.74,18.68-3.07,9-1.6,17.5,4.35,25.36,7,9.28,16.89,14.3,25.61,18,15.6,6.59,33.34,10.69,54.24,12.53,11.34,1,24.75,1.59,38.25-1.59,4.37-1,8.89-2.34,12-5.95,1.87-2.19,4.07-2.72,7.48-2.92A38.61,38.61,0,0,1,158,504.7l.34.11a3.11,3.11,0,0,1,.77.31c2.82,6.39,8.49,9.66,13.66,12,11.39,5.19,24.16,8.7,40.18,11a191.79,191.79,0,0,0,27.75,1.94,252.06,252.06,0,0,0,31-2c24.06-3,42.93-8.28,59.37-16.61A70.9,70.9,0,0,0,363,479.17C367.15,470.82,367.27,463.31,363.35,456.22ZM163.43,385.55c-3.3,4.31-3.06,8.87.64,11.91,3.53,2.91,8.07,2.31,11.59-1.52.41-.45.82-.9,1.21-1.38,1.82-2.22,3.14-3.82,3.85-4s2.52.86,5,2.24a27.82,27.82,0,0,1,3,1.78,28.62,28.62,0,0,1-2.12,2.88c-1.16,1.47-3.32,4.21-2.51,7.92a7.78,7.78,0,0,0,12.3,4.7,26.42,26.42,0,0,0,5.28-5.52c.47-.6.94-1.2,1.43-1.79a3.34,3.34,0,0,1,.29-.31,2.64,2.64,0,0,1,.33.17c2.29,1.32,4.76,2.68,8,4.39a39.35,39.35,0,0,0-3.57,4.6,7.89,7.89,0,0,0,12,10.08,62,62,0,0,0,5.43-6.24c.29-.37.45-.49.45-.51a1.61,1.61,0,0,1,.39.17c2.7,1.55,5.39,3,8,4.38l-.19.22c-1.19,1.38-2.43,2.82-3.53,4.35-2.74,3.8-2.35,8.52.92,11.21,3.43,2.84,7.82,2.49,11.16-.89a72.82,72.82,0,0,0,5.22-6.14l.11-.14c.68-.87.83-.82,1.59-.37,1.38.82,2.8,1.57,4.18,2.3,1.13.6,2.27,1.2,3.38,1.84.45.26.76.46,1,.61a10.06,10.06,0,0,1-.94.76A112.5,112.5,0,0,1,244,441.68l-1.42.77c-1.14.6-2.31,1.22-3.44,1.95-2.42,1.55-4.54,1.55-7.31,0-16.18-9.12-32.68-18.3-48.64-27.19l-13.87-7.73-14.09-7.84-14.43-8c7.94-3.55,14.39-8.79,19.74-13.57.6-.54.79-.6,1.61-.18l.14.07A27,27,0,0,1,166,382,27.51,27.51,0,0,1,163.43,385.55Zm153.91,83.26a217.79,217.79,0,0,1-37.14,6.26c-10.39.92-21,1.2-31.31,1.46l-.57,0a7.69,7.69,0,0,1-.82,0,6.8,6.8,0,0,1,.05-.76,41,41,0,0,0-1.3-16.39,3.55,3.55,0,0,1-.1-.45,5,5,0,0,1,.88-.59l6.47-3.71,7.16-4.1a39.61,39.61,0,0,0,9.92-7.8c1.42-1.59,2.65-1.76,4.88-1.56q17.15,1.6,34.3,3.12l4.76.43,8.89.77,9.36.83c4.24.38,7.52,2.2,10.61,5.89l.1.16c.25.42.68,1.11,1.12,1.82C334.79,461.88,326.38,466.39,317.34,468.81ZM139.45,416.76c-.62.51-1.24,1-1.87,1.52l-.28.23c-8.21,6.89-16.7,14-23.06,23.19a42.94,42.94,0,0,0-6.57,13.09,4.28,4.28,0,0,1-.28.79,3.1,3.1,0,0,1-1-.14c-20.74-4.62-41.45-9.16-61.55-13.5a133.75,133.75,0,0,0-18.35-2.85c1.21-2.66,2.4-5.34,3.58-8q1.17-2.65,2.35-5.3,11-24.57,22-49.13c1.89-4.21,2.48-4.55,7-4.07,1.81.19,3.61.42,5.42.64,3.95.49,8,1,12.09,1.14,6.07.22,11.25,2.71,16.8,8.06,1.19,1.15,2.35,2.31,3.52,3.48,5.14,5.16,10.47,10.49,17.44,13.76,6.32,3,12,5.67,17.53,8.75,3.65,2,6.52,3.62,9.23,5.08C142.15,414.56,140.78,415.68,139.45,416.76ZM19.88,455.65c.28-.48.79-.63,1.9-.63l1.12,0,.36,0c8.34.37,16.58,2.16,24.54,3.9,16.15,3.5,32.56,7.12,48.44,10.62l12.29,2.71c10.09,2.23,16.29,9.95,16.19,20.15a2.92,2.92,0,0,1-2.32,3.24,29.77,29.77,0,0,1-8.12,1.69C84,499.27,57.71,495,33.8,484.19c-6.61-3-11-6.12-14.22-10.19l-.07-.09C15,468.88,15.14,463.93,19.88,455.65Zm103.19,3.65c1.67-4.8,4.61-9.37,9.23-14.39a125.63,125.63,0,0,1,15.87-14.28l0,0c1.08-.88,2.11-1.7,3.09-2.47,2.26-1.79,4.21-3.33,6.11-5,1-.92,1.52-1,3-.21,17.32,9.74,35,19.57,52,29.08l11,6.12.78.47a9.48,9.48,0,0,0,3.1,1.41c2.37.48,3.27,1.74,3.86,5.4a39.9,39.9,0,0,1,.31,10.33,3.44,3.44,0,0,1-.14.75,4.07,4.07,0,0,1-.89,0q-3.19-.11-6.41-.26a214.37,214.37,0,0,0-21.83-.2c-14.53.85-27.39,5.22-38.21,13a1.62,1.62,0,0,1-1.72.2,53.81,53.81,0,0,0-15.79-2.44,48.28,48.28,0,0,0-5.39.3,3.56,3.56,0,0,1-.52,0,3.36,3.36,0,0,1-.12-.53c-1.81-11.33-7.61-20-17.25-25.75a1.94,1.94,0,0,1-.44-.33A4,4,0,0,1,123.07,459.3Zm54.24,40.07c.45-.2.9-.39,1.29-.6,9-4.64,18.91-6.86,31-6.86,1.51,0,3.06,0,4.64.11,25.39,1.1,46.3.84,65.83-.8,13.33-1.13,30.79-3.16,47.66-8.93A68.72,68.72,0,0,0,349.08,471c-.26.56-.55,1.13-.86,1.73l-.11.21c-6.8,13.22-18.08,22.64-34.48,28.8-16,6-33.44,9.68-53.37,11.23-12.19.95-28.22,1.74-44.15-.6-11.42-1.68-24.8-4.22-37.39-10.29l-1.1-.48c-.59-.26-2.18-.94-2.21-1.2A6.69,6.69,0,0,1,177.31,499.37Z"/><path class="cls-1" d="M57.3,400.88c-3.81-.5-6.72,1.37-8.64,5.56-2.55,5.55-5.19,11.44-8.56,19.08a12.51,12.51,0,0,0-1.08,3.9,7.49,7.49,0,0,0,4.07,7.65,8,8,0,0,0,3.76,1,8.38,8.38,0,0,0,5.21-2l.26-.24.18-.19a5,5,0,0,0,1.13-1.42A224.5,224.5,0,0,0,64,410.74a6.86,6.86,0,0,0-.6-6A8.38,8.38,0,0,0,57.3,400.88Z"/><path class="cls-1" d="M67.09,380.1a7.79,7.79,0,0,0-5.84,1.73,8,8,0,0,0-1.3,11,7.82,7.82,0,0,0,10.93,1.52,7.93,7.93,0,0,0,3.2-5.31,7.79,7.79,0,0,0-1.62-5.86A7.94,7.94,0,0,0,67.09,380.1Z"/><line class="cls-2" x1="132.74" y1="235.09" x2="132.74" y2="110.4"/><line class="cls-2" x1="132.74" y1="255.04" x2="132.74" y2="255.04"/><polyline class="cls-2" points="342.85 110.4 342.85 339.78 132.74 339.78 132.74 275.6"/><path class="cls-2" d="M342.85,159.43l62.26-33.71L372.45,63.36a98.69,98.69,0,0,0-54.18-47.14L292.51,7,237.8,51.43,183.08,7l-25.76,9.22a98.72,98.72,0,0,0-54.18,47.14L70.48,125.72l62.26,33.71"/><path class="cls-1" d="M379.89,396.52v.2a7.5,7.5,0,0,0,7.5,7.5H388a7.5,7.5,0,0,0,7.5-7.52v-.2A7.5,7.5,0,0,0,388,389h-.61A7.5,7.5,0,0,0,379.89,396.52Z"/><path class="cls-1" d="M578.13,226.82c0-6.93-3.67-10.33-10.6-10.33l-163.77,0c-5.41,0-10.82-.09-16.23.1a8.93,8.93,0,0,0-8.69,8.38,29.15,29.15,0,0,0-.08,3.24c0,16.64,0,77.07,0,140.58a9,9,0,0,0,9,9h0a9,9,0,0,0,9-9V276.23c0-3.63,0-3.59,3.52-3.59,32,0,136.74.06,157.05,0,2.12,0,2.75.73,2.75,2.74-.06,16.07-.06,239.41,0,256,0,2.72-1,3.33-5.18,2.74a143.69,143.69,0,0,0-42.13,0c-3.87.59-4.61-.24-4.73-2.61-.77-14.46-11.26-201.18-12.15-216.89-.21-3.86-1.74-6.92-5.46-8.53a9.38,9.38,0,0,0-3.54-.73c-5.59-.1-11.19-.24-16.77,0-5.77.23-8.92,3.65-9.32,9.63-.37,5.56-11.39,203.59-12,216.64-.1,2-.62,2.71-2.72,2.69-15.31-.09-30.63,0-45.94-.08-3.33,0-3.34,0-3.34-3.5,0-27.45,0-77.69,0-106.21a9,9,0,0,0-9.05-9.05h0a9.06,9.06,0,0,0-9,9.05c0,62,0,115,.06,118,.07,5.63,2.28,7.72,7.78,7.72h73.16c3.86,0,5.52-1.1,6-5,.69-5.09,12.65-212.33,12.86-212.36.27,2.38,11.68,206.33,12.06,210.81.39,4.73,2.45,6.56,7.13,6.56h49.68c8.32,0,16.64-.06,25,0,2,0,3.56-.59,4.15-2.43a24.18,24.18,0,0,0,1.47-6.95C578.23,524.46,578.22,245,578.13,226.82ZM425.25,252.37c0,1.59-.6,2.25-2.21,2.22-4.15-.05-20.12,0-23.94,0-1.69,0-2.36-.51-2.33-2.28.09-5.16.08-10.32,0-15.47,0-1.64.39-2.42,2.21-2.4q12,.12,23.94,0c1.75,0,2.34.69,2.32,2.38C425.19,242.06,425.2,247.22,425.25,252.37ZM511,254.61c-10.81-.07-54.06-.07-64.87,0-2,0-2.84-.48-2.79-2.63.12-5,.11-10,0-15,0-2.06.85-2.49,2.69-2.49q32.57.07,65.12,0c1.81,0,2.51.48,2.47,2.39-.11,5.07-.14,10.15,0,15.22C513.69,254.21,512.87,254.62,511,254.61Zm46.79,0c-4-.07-20-.07-23.95,0-1.56,0-2.25-.44-2.22-2.12.08-5.24.07-10.48,0-15.72,0-1.58.45-2.24,2.12-2.23,8.07.06,16.13,0,24.2,0,1.45,0,2.16.46,2.15,2,0,5.32-.05,10.65,0,16C560.12,254.17,559.34,254.63,557.8,254.6Z"/><path class="cls-1" d="M237.54,89.9a9,9,0,0,0-5.38,8.25h0V161a3.13,3.13,0,0,1-3.13,3.13,3.07,3.07,0,0,1-.9-.14,33.6,33.6,0,0,1-23.95-32.16V130c0-.35,0-.69.07-1v-.28c.08-.89.2-1.79.37-2.69l0-.28c.07-.39.15-.78.23-1.16a1.46,1.46,0,0,0,0-.2c.21-.9.45-1.79.74-2.69l.06-.18c.13-.42.27-.83.44-1.25h0c.33-.89.7-1.79,1.09-2.59l.07-.14c.41-.85.84-1.67,1.3-2.47v0c.22-.36.44-.72.67-1.08l.14-.22.66-1,.09-.13c.25-.35.51-.7.77-1l.24-.3a39.09,39.09,0,0,1,3.73-4.1,21.09,21.09,0,0,1,1.79-1.49,3.76,3.76,0,0,0,.72-5.26,3.9,3.9,0,0,0-.33-.38l-2.75-2.74a3.73,3.73,0,0,0-5-.27,44,44,0,0,0-5.84,5.66h0l-.08.08c-.39.47-.78.9-1.15,1.42h0c-.37.45-.72.89-1.06,1.39l-.17.24c-.56,1-1.21,2-1.84,3l-.16.28c-.61,1-1.18,2.08-1.71,3.17l-.15.31c-.23.5-.47,1-.68,1.5l-.09.12c-.23.55-.46,1.1-.66,1.66l-.14.35c-.18.49-.36,1-.53,1.5l-.08.24c-.18.56-.35,1.14-.52,1.71l-.08.32-.39,1.48a1.24,1.24,0,0,1-.09.38c-.12.58-.25,1.18-.35,1.8v.24c-.12.51-.21,1.08-.28,1.57a3.35,3.35,0,0,1-.07.44c-.08.6-.15,1.2-.2,1.79a.67.67,0,0,0,0,.2c-.06.55-.09,1.09-.12,1.65v2.33h-.08A44.94,44.94,0,0,0,229.6,176a3.12,3.12,0,0,1,2.59,3.07v17a3.13,3.13,0,0,0,3.11,3.12h5a3.12,3.12,0,0,0,3.12-3.12h0V179a3.12,3.12,0,0,1,2.52-3,44.79,44.79,0,0,0,23.61-12.43,45.4,45.4,0,0,0,6.94-9A44.93,44.93,0,0,0,251.4,89,19.51,19.51,0,0,0,237.54,89.9Zm30.64,56.51A33.64,33.64,0,0,1,247.43,164a3.12,3.12,0,0,1-3.88-2.1,3.38,3.38,0,0,1-.13-.9V105.77a5.38,5.38,0,0,1,5.4-5.36,5.49,5.49,0,0,1,2,.4,33.6,33.6,0,0,1,18,44c-.22.53-.46,1.06-.71,1.58Z"/></g></g></svg>