<svg xmlns="http://www.w3.org/2000/svg" width="60.034" height="60.035" viewBox="0 0 60.034 60.035"><defs><style>.a{fill:#024cac;}</style></defs><g transform="translate(-1.966 -1.994)"><path class="a" d="M2.916,46.678a21.765,21.765,0,0,0,5.5,8.91,21.942,21.942,0,0,0,8.9,5.507,20.284,20.284,0,0,0,4.886.893c.445.028.872.039,1.282.039a17.92,17.92,0,0,0,5.2-.7,1,1,0,0,0,.633-.634,18.712,18.712,0,0,0,.66-6.482,20.345,20.345,0,0,0-.895-4.891,21.688,21.688,0,0,0-5.5-8.9,21.727,21.727,0,0,0-8.91-5.507,20.389,20.389,0,0,0-4.885-.894,18.548,18.548,0,0,0-6.478.659,1,1,0,0,0-.633.634,18.673,18.673,0,0,0-.66,6.472,20.345,20.345,0,0,0,.9,4.894Zm24.64,12.89a16.84,16.84,0,0,1-2.88.42l3.3-3.3a17.166,17.166,0,0,1-.42,2.88Zm.388-5.675-6.061,6.06a18.007,18.007,0,0,1-2.328-.344L27.6,51.565a18.31,18.31,0,0,1,.344,2.328ZM22.173,41.837a19.848,19.848,0,0,1,4.807,7.519l-9.632,9.632a20.084,20.084,0,0,1-7.52-4.814,19.949,19.949,0,0,1-4.808-7.53l9.624-9.624a19.891,19.891,0,0,1,7.529,4.817Zm-12.065-5.78a18.371,18.371,0,0,1,2.327.344L4.4,44.435a18.31,18.31,0,0,1-.345-2.328Zm-5.664.385a16.75,16.75,0,0,1,2.87-.42l-3.29,3.289a17.132,17.132,0,0,1,.42-2.869Z"/><path class="a" d="M11.9,48.02l1.355-1.356L14.586,48,13.23,49.355l1.415,1.415L16,49.414l1.336,1.336L15.98,52.1,17.4,53.52l1.355-1.356L20.1,53.52,21.52,52.1,20.164,50.75,21.52,49.4,20.1,47.98,18.75,49.336,17.414,48l1.356-1.355L17.355,45.23,16,46.586,14.664,45.25,16.02,43.9,14.605,42.48,13.25,43.836,11.9,42.48,10.48,43.9l1.356,1.355L10.48,46.6Z"/><path class="a" d="M19.125,39.014h2v9.723h-2Z" transform="translate(-25.13 27.081) rotate(-45)"/><path class="a" d="M10.875,47.264h2v9.723h-2Z" transform="translate(-33.38 23.664) rotate(-45)"/><path class="a" d="M54,18a8,8,0,1,0-8,8,8,8,0,0,0,8-8Zm-8-6a5.959,5.959,0,0,1,3.558,1.18A5.139,5.139,0,0,1,46,15a5.139,5.139,0,0,1-3.558-1.82A5.959,5.959,0,0,1,46,12Zm-6,6a5.963,5.963,0,0,1,1.046-3.379A7.056,7.056,0,0,0,46,17a7.056,7.056,0,0,0,4.954-2.379,5.981,5.981,0,0,1,0,6.758A7.056,7.056,0,0,0,46,19a7.056,7.056,0,0,0-4.954,2.379A5.963,5.963,0,0,1,40,18Zm6,3a5.139,5.139,0,0,1,3.558,1.82,5.954,5.954,0,0,1-7.116,0A5.139,5.139,0,0,1,46,21Z"/><path class="a" d="M33.723,26.309,11.707,3.293c-.965-.963-3.616-2.8-7.414,1s-1.965,6.45-.984,7.43l23,22a1.074,1.074,0,0,0,.123.1L36.6,40.841,53.342,57.586l-.706.707a1,1,0,0,0,0,1.415l1.414,1.413a3,3,0,0,0,4.243,0l2.828-2.828a3,3,0,0,0,0-4.243l-1.414-1.414a1,1,0,0,0-1.414,0l-.706.707L40.821,36.577l-7-10.145a.977.977,0,0,0-.1-.123ZM59,54.757l.707.707a1,1,0,0,1,0,1.415l-2.828,2.828a1.022,1.022,0,0,1-1.414,0L54.757,59Zm-2.827,0-1.417,1.415L44.864,46.28l1.416-1.416Zm-16.83-16.83,5.523,5.523L43.45,44.866l-5.5-5.5a1.01,1.01,0,0,0-.138-.116L27.634,32.222,4.707,10.293c-1.189-1.19-.853-2.732,1-4.586s3.4-2.19,4.57-1.016L32.223,27.633l7,10.155a1.018,1.018,0,0,0,.12.139Z"/></g></svg>