<svg xmlns="http://www.w3.org/2000/svg" width="29.022" height="45.003" viewBox="0 0 29.022 45.003"><defs><style>.a{fill:#00e9c5;}</style></defs><g transform="translate(-87.782 0)"><g transform="translate(87.782 0)"><g transform="translate(0)"><path class="a" d="M116.59,36.871V14.3c0-.279-.007-.549-.023-.819h0a14.24,14.24,0,0,0-.539-3.15,13.877,13.877,0,0,0-1.937-4.1,14.223,14.223,0,0,0-5.7-4.864A13.991,13.991,0,0,0,105,.263a14.259,14.259,0,0,0-14.5,5.96v0a13.893,13.893,0,0,0-1.943,4.1,14.244,14.244,0,0,0-.54,3.153c-.017.271-.024.541-.024.82V36.871h1.5V20.654c.048.1.087.2.138.3a14.267,14.267,0,0,0,2.694,3.6,14.112,14.112,0,0,0,1.683,1.391v7.167h1.5V26.877a14.384,14.384,0,0,0,2.72,1.129c.475.136.917.242,1.346.323a13.618,13.618,0,0,0,1.956.226V40.634h1.5V28.558a13.636,13.636,0,0,0,1.946-.226c.436-.083.879-.188,1.361-.327a14.273,14.273,0,0,0,2.709-1.129v6.232h1.5V25.942a14.1,14.1,0,0,0,4.374-4.986c.052-.1.091-.2.141-.3V36.871h1.5ZM111.206,5.124c.268.26.517.535.759.815v0l-2.292.063-.527-2.5A12.647,12.647,0,0,1,111.206,5.124Zm-1.822,2.391,3.676-.1a12.368,12.368,0,0,1,1.522,3.33,12.693,12.693,0,0,1,.441,2.452l-3.166,2.566-4.459-.638-1.249-4.373ZM97.176,2.582a12.695,12.695,0,0,1,10.234,0l.836,3.947-3.255,3.253h-5.4L96.342,6.529Zm8.773,12.955-3.656,3.049-3.656-3.048,1.214-4.252h4.885ZM93.388,5.12a11.68,11.68,0,0,1,.9-.8c.1-.075.2-.15.3-.226.226-.17.451-.334.689-.488.055-.036.111-.07.166-.1L94.92,6l-2.293-.063C92.869,5.659,93.118,5.383,93.388,5.12Zm-3.381,5.619a12.368,12.368,0,0,1,1.519-3.324l3.676.1,3.236,3.236-1.248,4.373-4.459.637-3.165-2.566A12.651,12.651,0,0,1,90.007,10.739Zm0,7.111a12.815,12.815,0,0,1-.476-2.744l2.021,1.638L90.37,18.911C90.237,18.565,90.11,18.213,90.005,17.85Zm8.282,8.59a12.692,12.692,0,0,1-7.119-5.847h0l1.823-3.347,4.562-.652,3.987,3.322v3.811Zm1.813.446,2.193-1.829,2.194,1.829A12.6,12.6,0,0,1,100.1,26.886ZM111.2,23.472h0a12.867,12.867,0,0,1-4.905,2.968l-3.254-2.713V19.916l3.988-3.322,4.562.652,1.824,3.348A12.817,12.817,0,0,1,111.2,23.472Zm3.376-5.621c-.1.363-.231.714-.364,1.06l-1.181-2.167,2.021-1.638A12.786,12.786,0,0,1,114.581,17.85Z" transform="translate(-87.874 0)"/><rect class="a" height="2.721" transform="translate(14.511 42.282)"/><rect class="a" width="1.814" height="2.721" transform="translate(27.208 38.654)"/><rect class="a" width="1.814" height="2.721" transform="translate(0 38.654)"/><rect class="a" width="0.907" height="0.907" transform="translate(21.767 35.026)"/><rect class="a" width="0.907" height="2.721" transform="translate(21.767 37.747)"/><rect class="a" width="0.907" height="0.907" transform="translate(6.349 35.026)"/><rect class="a" width="0.907" height="2.721" transform="translate(6.349 37.747)"/><rect class="a" width="1.814" height="0.907" transform="translate(27.208 43.189)"/><rect class="a" width="1.814" height="0.907" transform="translate(0 43.189)"/></g></g></g></svg>