<svg xmlns="http://www.w3.org/2000/svg" viewBox="0 0 533.75 500.16"><defs><style>.cls-1{fill:#0065e9;}.cls-2,.cls-3{fill:#fff;}.cls-3,.cls-4{stroke:#0065e9;stroke-linecap:round;stroke-linejoin:round;stroke-width:19.67px;}.cls-4{fill:none;}</style></defs><g id="Capa_2" data-name="Capa 2"><g id="Capa_1-2" data-name="Capa 1"><path class="cls-1" d="M256,121.05c-88.23,0-160,71.78-160,160s71.78,160,160,160a158.67,158.67,0,0,0,67.46-14.87,7.5,7.5,0,1,0-6.33-13.6A143.76,143.76,0,0,1,256,426.07c-80,0-145-65.05-145-145s65.05-145,145-145,145,65,145,145a145.51,145.51,0,0,1-60.13,117.59,7.5,7.5,0,0,0,8.79,12.15A160.56,160.56,0,0,0,416,281.06C416,192.83,344.23,121.05,256,121.05Z"/><path class="cls-1" d="M511.89,113.91a90.63,90.63,0,0,0-14.53-44.75L503.5,63a28.11,28.11,0,0,0-39.76-39.76l-7.25,7.26a89.82,89.82,0,0,0-39.3-11.3c-19.92-1-41.3,4.65-61.86,16.34A41.33,41.33,0,0,0,335.6,61.34a42.46,42.46,0,0,0-1.1,15,217.41,217.41,0,0,0-51.9-12.83V53.19h9.46a26.6,26.6,0,0,0,0-53.19H220a26.6,26.6,0,1,0,0,53.19h8.85V63.62a218,218,0,0,0-51.3,12.76,42.47,42.47,0,0,0-1.09-15,41.32,41.32,0,0,0-19.74-25.78,127.67,127.67,0,0,0-36.08-14.15,7.5,7.5,0,1,0-3.17,14.66,113,113,0,0,1,31.84,12.52,26.46,26.46,0,0,1,12.62,16.5,27.33,27.33,0,0,1-2,19,220.93,220.93,0,0,0-98.7,96.49,26.85,26.85,0,0,1-31.72-12.18c-10.28-18.08-15.26-36.64-14.39-53.7,1-19.89,9.75-38.21,26-54.46C55.76,45.53,72.16,37,89.82,34.7a7.5,7.5,0,0,0-1.89-14.88A90.53,90.53,0,0,0,55.52,30.51l-7.26-7.26a28.09,28.09,0,0,0-48,19.88A27.92,27.92,0,0,0,8.5,63l6.15,6.15A90.68,90.68,0,0,0,.11,113.91c-1,19.91,4.65,41.31,16.35,61.86,7.64,13.45,18.15,25.54,37.13,21.11A219.61,219.61,0,0,0,101.07,436a223.15,223.15,0,0,0,20.73,18.3l-25,25c-3.8,3.8-19.25,10.59-28.6,0s-3.8-24.8,0-28.6l6.89-6.88A7.5,7.5,0,1,0,64.5,433.18l-6.88,6.89a35.22,35.22,0,0,0,49.81,49.81l26.68-26.68a219.47,219.47,0,0,0,243.78,0l26.68,26.68a35.22,35.22,0,0,0,49.81-49.81l-25-25a219.74,219.74,0,0,0,29-218.2c.25,0,22.4,5.33,37.15-21.08C507.07,155.12,512.89,133.82,511.89,113.91Zm-492.78-80c7-7.26,16.08-2.46,18.54,0l5,5A116.73,116.73,0,0,0,23.67,57L19.11,52.4C16.65,49.94,12.09,41.12,19.11,33.86Zm455.24,0c2.46-2.46,11.7-7.48,18.54,0s2.47,16.08,0,18.54L488.33,57a118.37,118.37,0,0,0-19-18.07ZM220,38.19A11.6,11.6,0,1,1,220,15h72.11a11.6,11.6,0,0,1,0,23.19Zm47.65,15v9.07c-3.85-.19-7.73-1.22-23.8,0V53.19ZM443.78,450.67c3.8,3.8,10,17.51,0,28.6s-24.8,3.8-28.6,0l-25-25c14.24-10,26.7-24.47,29.54-27.66ZM460.1,281.06c0,112.54-91.56,204.1-204.1,204.1S51.9,393.6,51.9,281.06,143.46,77,256,77,460.1,168.52,460.1,281.06Zm22.41-112.71a26.9,26.9,0,0,1-31.72,12.19A221,221,0,0,0,352.1,84.05a27.39,27.39,0,0,1-2-19,26.44,26.44,0,0,1,12.63-16.5c18.07-10.28,36.63-15.26,53.69-14.4,19.89,1,38.21,9.75,54.46,26s25,34.57,26,54.46C497.77,131.72,492.79,150.28,482.51,168.35Z"/><path class="cls-1" d="M335.1,338.13l-35.42-42.06a46.09,46.09,0,0,0-17.08-52.75v-37a26.6,26.6,0,0,0-53.2,0v37A46.17,46.17,0,0,0,256,327.25h.38l38,45.16c14.55,17.47,32.49,7.4,37.47,3.21A26.63,26.63,0,0,0,335.1,338.13ZM244.4,206.31a11.6,11.6,0,0,1,23.2,0v30a46.2,46.2,0,0,0-23.2,0ZM256,312.25a31.2,31.2,0,1,1,31.2-31.19A31.22,31.22,0,0,1,256,312.25Zm66.23,51.88a11.61,11.61,0,0,1-16.34-1.39L273.2,323.92a46.36,46.36,0,0,0,18.68-13.81l31.75,37.68A11.61,11.61,0,0,1,322.23,364.13Z"/><path class="cls-2" d="M435.91,230.46h.62c44.58.33,79.47,35.79,79.22,80.52-.25,44.11-35.64,78.78-80.28,78.78h-.61c-43.79-.31-79.43-36.43-78.91-80,.53-44.4,35.81-79.33,80-79.33m0-18h0A97.61,97.61,0,0,0,338,309.57a97.59,97.59,0,0,0,96.79,98.19h.73a98.36,98.36,0,0,0,69.39-28,96.19,96.19,0,0,0,28.89-68.67,97.25,97.25,0,0,0-97.09-98.63Z"/><path class="cls-3" d="M436.53,230.46c44.58.33,79.47,35.79,79.22,80.52-.25,44.32-36,79.1-80.89,78.78-43.79-.31-79.43-36.43-78.91-80C356.48,265.18,392.08,230.13,436.53,230.46Z"/><line class="cls-4" x1="397.05" y1="348.9" x2="474.64" y2="271.31"/><line class="cls-4" x1="397.05" y1="271.31" x2="474.64" y2="348.9"/></g></g></svg>