<?xml version="1.0" encoding="utf-8"?>
<!-- Generator: Adobe Illustrator 25.4.1, SVG Export Plug-In . SVG Version: 6.00 Build 0)  -->
<svg version="1.1" id="Capa_1" xmlns="http://www.w3.org/2000/svg" xmlns:xlink="http://www.w3.org/1999/xlink" x="0px" y="0px"
	 viewBox="0 0 233 233" style="enable-background:new 0 0 233 233;" xml:space="preserve">
<style type="text/css">
	.st0{fill:none;stroke:#050C44;stroke-width:8;}
	.st1{fill:none;stroke:#050C44;stroke-width:7;}
	.st2{fill:#050C44;stroke:#050C44;}
	.st3{fill:#050C44;stroke:#050C44;stroke-width:0.5;}
	.st4{stroke:#050C44;stroke-width:0.75;}
</style>
<path class="st0" d="M200.7,86.3c5.3,12.4,8.2,26,8.2,40.3c0,56.6-45.9,102.4-102.4,102.4S4,183.1,4,126.5S49.9,24.1,106.4,24.1
	c8.6,0,18.8,1.6,26.8,3.6"/>
<path class="st1" d="M200.7,86.3"/>
<path class="st1" d="M131.4,27.2"/>
<path class="st2" d="M64.2,148.4c23.7-0.5,45.2,6.1,64.7,19.5c0.7,0.5,1.5,1.2,1.9,1.7c0.8,1,2.1,3.6-0.8,5.1
	c-0.4,0.2-1.1,0.4-1.6,0.4c-0.6,0-1.7-0.3-2.2-0.6c-6.7-3.6-12.1-7.5-19-10.7c-14.2-6.6-29.5-9-45.1-8.6c-3.2,0.1-6.4,0.6-9.5-0.2
	c-1.1-0.3-2.4-0.7-2.7-2.8c-0.1-0.5,0-0.9,0.1-1.4c0.6-1.8,1.6-2.1,2.8-2.2C56.6,148.1,60.4,148.4,64.2,148.4z"/>
<path class="st2" d="M65.5,85c8.7-0.1,15.7,7.3,16,16.9c0.3,9.7-6.7,17.7-15.6,17.9c-8.6,0.2-15.8-7.4-16-17
	C49.6,93.2,56.7,85.1,65.5,85z M56.8,102.4c0,5.7,4.3,10.7,9,10.7c4.5,0,8.7-5,8.8-10.4c0.1-5.7-4-10.8-8.7-11
	C61.2,91.6,56.8,96.8,56.8,102.4z"/>
<path class="st2" d="M136.8,102.5c0.1,9.4-7,17.3-15.5,17.4c-9,0.1-15.9-7.5-15.9-17.4c0-9.7,6.7-17.2,15.5-17.4
	C129.6,84.9,136.7,92.6,136.8,102.5z M129.7,102.4c0-5.8-4.1-10.8-8.9-10.7c-4.6,0.1-8.6,4.9-8.8,10.5c-0.2,5.5,4.1,10.9,8.8,10.9
	C125.7,113.1,129.7,108.4,129.7,102.4z"/>
<path class="st2" d="M107.7,204.5c-3.4-0.3-7.6-0.4-11.6-1.3c-1.6-0.4-4.3-2.4-4.1-3.8c0.4-2.9,2.6-3.4,5-3
	c16.5,2.7,32-0.4,46.9-7.8c1.9-0.6,3.3,1,3.9,2c0.8,2,0.3,3.1-1.1,3.9C134.9,201.4,121.9,204.1,107.7,204.5z"/>
<path class="st2" d="M65.8,71.2c6.2,0.2,12.7,2.1,17.7,7.2c0.3,0.3,0.5,0.8,0.7,1.4c0.6,2.4-1.6,4.8-4,4.1c-0.3-0.1-0.5-0.2-0.7-0.3
	c-11.3-7.5-17.5-7.4-29.1,0.2c-0.5,0.3-1.1,0.4-1.8,0.4c-2.2,0-3.8-2.3-3.1-4.4c0.1-0.4,0.4-0.8,0.6-1.1
	C51.2,73.5,57.7,71.3,65.8,71.2z"/>
<path class="st2" d="M156.4,189.4c-1.6,1-3.8,0.3-4.8-1.2c-0.2-0.3-0.3-0.5-0.4-0.8c-0.3-1.4,0.3-2.8,1.2-3.4c3-2.3,6.2-4.4,9.5-6.2
	c1.1-0.6,2.7-0.5,3.6,0.3c1.9,1.7,1.4,3.4,1.1,3.8C162.5,186.3,160,187.1,156.4,189.4z"/>
<path class="st2" d="M178.4,26.7c-5.9,0.5-10.5,0.2-12.2,7.9c-0.2,0.8-2.6,2.2-3.4,1.9c-0.9-0.5-2.1-0.9-2.3-2.2
	c-0.7-5.2,3.4-12.9,9.4-13.7c5.8-0.8,12-0.7,17.8,0.1c6.1,0.9,9.9,6,10.5,11.8c0.8,8.7-1.6,14.6-7.8,17.4c-4.9,2.2-9.3,3.8-11,10.1
	c-0.5,1.7-2.7,1.9-3.5,1.6c-1.2-0.6-2.4-2.3-2.5-3.6c-0.5-5.2,3.8-10.3,10.7-12.8c4.1-1.5,7-3.6,7.3-8.3c0.4-6.6-2.1-9.6-8.8-9.8
	C181.5,26.8,180.3,26.8,178.4,26.7z"/>
<path class="st3" d="M182.6,72.2c0.1,3.1-2.2,5.4-5.3,5.4c-3.1,0-5.5-2.4-5.4-5.4c0-2.8,2.4-5.2,5.2-5.3
	C180.1,66.8,182.5,69.1,182.6,72.2z"/>
<path class="st4" d="M127.6,52.4l-0.4-6.1C127.2,48.3,127.4,50.4,127.6,52.4z"/>
<path class="st2" d="M205.6,86c4.2-1.7,7.3-4.1,11.1-7.2c8-6.5,12.5-15.1,15-24.8c0.6-2.1,0.8-4.3,0.8-6.5c0-2-0.2-4.1-0.3-6.1
	c0-0.8-0.1-1.5-0.3-2.3c-3.7-14.1-11.7-25.1-25-31.6c-6.4-3.1-13.1-5.7-20.5-6.9c0,0,0,0-0.1,0c-3.5-0.3-6.6-0.2-9.6-0.1
	c-2.7,0.1-5.4,0.5-8.1,1.1c-8.8,2-47.5,14.1-41,50.8l0-0.1c-0.2-2-0.4-4-0.4-6.1l0.4,6.1c0.3,2.6,0.8,5.2,1.1,7.7
	c0,0.3-0.2,0.5-0.4,0.5c-5,0.4-10.5,0.2-15.7,1.5c-3.8,1-7.3,3.8-10.6,6.2c-0.8,0.6-2,2-0.8,4.2c0.1,0.2,0.3,0.3,0.4,0.5
	c1.2,1.9,3.3,0.7,4.7,0.2c4.8-1.7,9.2-4.7,14-5.5c8-1.4,13.7,3.9,19.3,8.7c2.2,1.8,5.9,2.5,8.4,3.8c4.2,2.1,2.9,6.6,1.3,10.6
	c-1,2.6-2.1,5.2-2.8,8c-0.4,1.6-0.3,3.7,0.1,4.9c0.7,2.5,3.7,1.5,4.9,0.8c5.6-3.1,10.3-5.3,16.3-10.1c1.3-1.1,2.9-2.3,4.4-2.4
	C180.5,91.3,190.4,91.8,205.6,86 M141.2,26.4c2.7-4.2,6.2-7.8,10.2-10.4c17.4-11.2,40.9-11,57.4,0.7c22.5,16.1,22,45.3-1.2,60.4
	c-10.1,6.6-21.3,9.4-33.3,7.8c-5-0.7-9-0.7-11.7,4.7c-1.1,2.2-4.3,4.2-5.9,5.4c-0.1,0-0.2,0.1-0.3,0.1c-1.1,0-1.7-1.1-1.3-2
	c3.6-8.7,1.1-15.7-7.2-19c-15-5.9-17-25.6-10.1-41.3 M137.8,32.7c1-2.2,2.1-4.3,3.4-6.3"/>
</svg>
