<svg xmlns="http://www.w3.org/2000/svg" width="21.464" height="16.856" viewBox="0 0 21.464 16.856"><defs><style>.a{opacity:0.59;}.b{fill:#050c44;stroke:#050c44;stroke-width:0.5px;}</style></defs><g class="a" transform="translate(0.25 0.25)"><path class="b" d="M24.36,293.841h3.6a.331.331,0,0,0,.36-.292v-5.257a.331.331,0,0,0-.36-.292h-3.6a.331.331,0,0,0-.36.292v5.257A.331.331,0,0,0,24.36,293.841Zm.36-5.257H27.6v4.673H24.72Z" transform="translate(-24 -277.486)"/><path class="b" d="M248.36,201.346h3.6a.332.332,0,0,0,.36-.292v-8.762a.332.332,0,0,0-.36-.292h-3.6a.332.332,0,0,0-.36.292v8.762A.332.332,0,0,0,248.36,201.346Zm.36-8.762H251.6v8.178H248.72Z" transform="translate(-236.905 -184.99)"/><path class="b" d="M136.36,108.851h3.6a.332.332,0,0,0,.36-.292V96.292a.332.332,0,0,0-.36-.292h-3.6a.331.331,0,0,0-.36.292v12.267A.332.332,0,0,0,136.36,108.851Zm.36-12.267H139.6v11.683H136.72Z" transform="translate(-130.452 -92.495)"/><path class="b" d="M360.36,16.356h3.6a.331.331,0,0,0,.36-.292V.292a.331.331,0,0,0-.36-.292h-3.6a.331.331,0,0,0-.36.292V16.064A.331.331,0,0,0,360.36,16.356ZM360.72.584H363.6V15.772H360.72Z" transform="translate(-343.357)"/></g></svg>