<svg xmlns="http://www.w3.org/2000/svg" width="43.934" height="38.469" viewBox="0 0 43.934 38.469"><defs><style>.a{fill:none;stroke:#fff;stroke-width:2px;}</style></defs><path class="a" d="M41.869,24.839a.961.961,0,0,0-.5-.549L33.377,20.6A38.652,38.652,0,0,0,28.2,19.237a.953.953,0,0,0-.183-.018.939.939,0,0,0-.917.737,6.286,6.286,0,0,1-12.27,0,.94.94,0,0,0-.917-.737.953.953,0,0,0-.183.018A38.8,38.8,0,0,0,8.541,20.6L.551,24.29a.94.94,0,0,0-.5.549.932.932,0,0,0,.05.74l3.47,6.848a.942.942,0,0,0,1.114.48l3.854-1.142V54.74a.95.95,0,0,0,.949.947H32.431a.948.948,0,0,0,.946-.947V31.765l3.856,1.142a.942.942,0,0,0,1.114-.48l3.471-6.848A.951.951,0,0,0,41.869,24.839Z" transform="translate(1.007 -18.219)"/></svg>