<svg xmlns="http://www.w3.org/2000/svg" width="20.35" height="20.35" viewBox="0 0 20.35 20.35"><defs><style>.a{fill:#2fdb57;}</style></defs><path class="a" d="M10.175,0A10.175,10.175,0,1,0,20.35,10.175,10.186,10.186,0,0,0,10.175,0Zm0,19.465a9.29,9.29,0,1,1,9.29-9.29A9.3,9.3,0,0,1,10.175,19.465Z"/><path class="a" d="M98.654,129.327a1.327,1.327,0,1,0-1.327,1.327A1.329,1.329,0,0,0,98.654,129.327Zm-1.77,0a.442.442,0,1,1,.442.442A.443.443,0,0,1,96.885,129.327Z" transform="translate(-90.691 -120.922)"/><path class="a" d="M225.327,128a1.327,1.327,0,1,0,1.327,1.327A1.329,1.329,0,0,0,225.327,128Zm0,1.77a.442.442,0,1,1,.442-.442A.443.443,0,0,1,225.327,129.77Z" transform="translate(-211.613 -120.922)"/><path class="a" d="M112.7,224.112a.442.442,0,0,0-.625.035,4.922,4.922,0,0,1-7.3,0,.442.442,0,1,0-.659.59,5.806,5.806,0,0,0,8.622,0A.443.443,0,0,0,112.7,224.112Z" transform="translate(-98.249 -211.613)"/></svg>