<?xml version="1.0" encoding="utf-8"?>
<!-- Generator: Adobe Illustrator 25.4.1, SVG Export Plug-In . SVG Version: 6.00 Build 0)  -->
<svg version="1.1" id="Capa_1" xmlns="http://www.w3.org/2000/svg" xmlns:xlink="http://www.w3.org/1999/xlink" x="0px" y="0px"
	 viewBox="0 0 247.8 324.8" style="enable-background:new 0 0 247.8 324.8;" xml:space="preserve">
<style type="text/css">
	.st0{fill:#DDB198;}
</style>
<g>
	<g id="singlet" transform="translate(-61 0)">
		<path id="Trazado_2634" class="st0" d="M61,143.9v170.9c0,5.7,4.3,10,10,10l0,0h227.8c5.7,0,10-4.3,10-10l0,0V143.9
			c0-1.4,0-4.3-1.4-5.7c-22.8-34.2-29.9-76.9-19.9-116.8l2.8-10c1.4-5.7-1.4-10-7.1-11.4c-1.4,0-1.4,0-2.8,0H242
			c-2.8,0-5.7,1.4-8.5,4.3c-5.7,10-27.1,34.2-48.4,34.2c-25.6,0-48.4-32.8-48.4-34.2c-1.7-2.8-4.5-4.2-7.4-4.2H90.9
			c-5.7,0-10,4.3-10,10c0,1.4,0,1.4,0,2.8c12.8,42.7,7.1,88.3-17.1,125.3C62.4,139.7,61,141.1,61,143.9z M280.3,131.1
			c2.8,5.7,5.7,10,8.5,15.7v159.5h-18.5V161C270.3,149.6,273.1,139.7,280.3,131.1z M184.9,57.1c14.2,0,28.5-5.7,39.9-15.7
			c-7.1,17.1-18.5,34.2-39.9,34.2S152.1,58.5,145,41.4C156.4,51.4,170.6,57.1,184.9,57.1z M102.3,20h17c7.1,37,25.6,75.5,65.5,75.5
			s58.4-38.4,65.5-75.5h17.1c-7.1,29.9-5.7,61.2,4.3,89.7c-12.8,14.2-19.9,32.8-19.9,51.3v145.3H119.3V166.7
			c0-19.9-8.5-37-22.8-49.8C106.5,85.5,109.4,51.4,102.3,20z M79.5,146.8c2.8-4.3,4.3-7.1,7.1-11.4c8.5,8.5,12.8,19.9,12.8,31.3
			v138.1H80.9L79.5,146.8z"/>
	</g>
</g>
<path class="st0" d="M145.4,125.1c-2.8-1.7-5.9-3-9.1-4c-4.7-1.4-9.8-1.1-14.3,0.9c-3.7,1.7-6,5.2-6.1,9.3V191
	c0,0.8-0.7,1.3-1.3,1.3l-0.3-0.1c-12.9-3.9-21.6-15.6-21.6-29.1v-1.8c0-0.2,0-0.3,0-0.6v-0.6c0.1-0.8,0.2-1.7,0.3-2.7l0.2-1.2
	c0.2-0.8,0.4-1.7,0.8-2.7c0.1-0.3,0.2-0.8,0.3-1.1c0.2-0.8,0.7-1.7,1.1-2.5c0.3-0.8,0.8-1.6,1.2-2.2l0.2-0.3
	c0.2-0.2,0.2-0.6,0.6-0.8l1.6-2.2c1-1.2,2.2-2.6,3.3-3.7c0.6-0.4,1-0.9,1.7-1.3c1.1-0.8,1.8-2,2-3.3s-0.2-2.7-1-3.8
	c-0.1-0.2-0.2-0.3-0.4-0.6l-2.7-2.7c-1.8-1.8-4.8-2-6.8-0.3c-2.1,1.7-4,3.6-5.7,5.6l-0.2,0.3c-0.3,0.3-0.7,0.8-0.9,1.2
	c-0.3,0.4-0.8,0.9-1.1,1.3l-0.2,0.3c-0.2,0.4-0.7,1-0.9,1.4l-1,1.7c-0.7,1-1.2,2.1-1.8,3.5c-0.2,0.4-0.4,1-0.6,1.2l-0.2,0.3
	c-0.2,0.6-0.4,1.1-0.7,1.7l-0.2,0.7l-1.4,4.8l-0.1,0.3c-0.1,0.6-0.2,1.2-0.3,1.9c-0.1,0.6-0.2,1.1-0.2,1.7l-0.1,0.4
	c-0.1,0.7-0.2,1.2-0.2,2c-0.1,0.6-0.1,1.1-0.1,1.8l-0.1,2.2c0,21.4,15.2,39.7,36.4,43.6c0.7,0.1,1.2,0.8,1.2,1.3v16.2
	c0,1.2,0.4,2.3,1.3,3.2c0.8,0.8,2,1.3,3.2,1.3h4.7c2.6,0,4.6-2.1,4.6-4.6v-16.1c0-0.7,0.4-1.2,1.1-1.3c8.9-1.7,17-5.9,23.3-12.3
	c2.7-2.7,5-5.7,6.8-8.8C173.5,164.8,166.5,137.5,145.4,125.1z M151.1,175.1c-0.2,0.4-0.3,0.9-0.7,1.3l-0.2,0.3
	c-3.7,7.6-10.6,13.2-18.6,15.6c-0.8,0.2-1.6-0.2-1.8-0.9l-0.1-53c0-0.9,0.3-1.8,1-2.6c0.7-0.7,1.6-1,2.5-1l0,0
	c0.4,0,0.9,0.1,1.3,0.2c7.5,3.2,13.3,9,16.4,16.6C154.2,159.4,154.1,167.5,151.1,175.1z M82.8,148.7L82.8,148.7L82.8,148.7
	L82.8,148.7z M81.6,151.9L81.6,151.9L81.6,151.9L81.6,151.9z"/>
</svg>
