<svg xmlns="http://www.w3.org/2000/svg" width="51.316" height="51.318" viewBox="0 0 51.316 51.318">
  <defs>
    <style>.a{fill:#666;}</style>
  </defs>
  <g transform="translate(-0.008 -0.003)">
    <path class="a" d="M18.043,38.4a18.343,18.343,0,0,1-9.678-4.068A23.272,23.272,0,0,1,19.344,6.889a23.31,23.31,0,0,1,2.432,1.777,12.829,12.829,0,0,0-4.437,5.583c-2.567,5.835-2.086,13.843,1.245,20.4a.8.8,0,1,0,1.431-.725c-3.118-6.149-3.592-13.617-1.2-19.029a11.034,11.034,0,0,1,4.207-5.116,23.212,23.212,0,0,1,6.464,11.381.8.8,0,0,0,1.563-.367A24.8,24.8,0,0,0,24.535,9.042a9.826,9.826,0,0,1,7.791.762c3.09,1.538,4.894,4.6,5.878,6.962.044.246.1.486.137.736a.8.8,0,0,0,1.589-.221A20.058,20.058,0,1,0,17.87,40a.8.8,0,0,0,.173-1.6ZM35.571,10.1a11.473,11.473,0,0,0-2.533-1.732,11.375,11.375,0,0,0-9.073-.828c-.241.087-.473.2-.705.3A24.773,24.773,0,0,0,21,6.065a23.23,23.23,0,0,1,8.233-1.987A18.654,18.654,0,0,1,35.571,10.1Zm-9.1-7.329A24.712,24.712,0,0,0,19.4,5.047a24.712,24.712,0,0,0-2.311-1.2,4.642,4.642,0,0,0,.985-2.137,18.554,18.554,0,0,1,1.983-.109,18.273,18.273,0,0,1,6.408,1.164Zm-14.961.945a23.249,23.249,0,0,1,2.425.642,19.088,19.088,0,0,1-5.97,1.785,18.534,18.534,0,0,1,3.545-2.427Zm2.4-1.049a18.168,18.168,0,0,1,2.424-.68A3.639,3.639,0,0,1,15.505,3.2Q14.717,2.9,13.9,2.666ZM6.124,7.982c3.129-.300,7.141-1.06,9.684-2.945.662.277,1.309.580,1.938.915A24.777,24.777,0,0,0,6.18,32.227,18.441,18.441,0,0,1,6.124,7.982Z" transform="translate(0 0)"/>
    <path class="a" d="M55.02,25.327a.8.8,0,0,0-.469-.468A23.25,23.25,0,0,0,30.99,30.986a23.251,23.251,0,0,0-6.129,23.563.8.8,0,0,0,.469.468,21.441,21.441,0,0,0,6.779,1.015,23.242,23.242,0,0,0,16.782-7.141A23.251,23.251,0,0,0,55.02,25.327ZM47.754,47.753c-9.167,9.166-19.448,6.536-21.507,5.882a21.4,21.4,0,0,1-.6-8.929,39.528,39.528,0,0,0,4.367,5.153,40.877,40.877,0,0,0,3.636,3.235.8.8,0,1,0,.992-1.261,39.588,39.588,0,0,1-3.493-3.111A35.9,35.9,0,0,1,26.1,42.464a22.238,22.238,0,0,1,6.03-10.342c9.166-9.164,19.449-6.535,21.507-5.881a21.377,21.377,0,0,1,.6,8.906,39.419,39.419,0,0,0-4.357-5.14,40.918,40.918,0,0,0-3.771-3.341.8.8,0,1,0-.986,1.266,39.475,39.475,0,0,1,3.619,3.209,35.994,35.994,0,0,1,5.055,6.248,22.234,22.234,0,0,1-6.041,10.365Z" transform="translate(-4.712 -4.712)"/>
    <path class="a" d="M48.337,34.466l-1.488,1.488L45.706,34.81a.8.8,0,1,0-1.135,1.135l1.144,1.143-2.194,2.194-1.144-1.145a.8.8,0,1,0-1.135,1.135l1.143,1.143-2.194,2.194-1.143-1.142A.8.8,0,1,0,37.914,42.6l1.142,1.143-2.194,2.194L35.721,44.8a.8.8,0,1,0-1.135,1.135l1.143,1.143-1.487,1.487A.8.8,0,1,0,35.377,49.7l1.487-1.488,1.055,1.055a.8.8,0,1,0,1.137-1.134L38,47.074l2.191-2.2,1.055,1.055A.8.8,0,1,0,42.382,44.8l-1.055-1.052,2.194-2.194,1.054,1.054a.8.8,0,1,0,1.135-1.135l-1.054-1.054,2.194-2.194L47.9,39.278a.8.8,0,1,0,1.135-1.135l-1.055-1.055L49.472,35.6a.8.8,0,1,0-1.135-1.135Z" transform="translate(-6.72 -6.766)"/>
  </g>
</svg>
