<?xml version="1.0" encoding="utf-8"?>
<!-- Generator: Adobe Illustrator 25.4.1, SVG Export Plug-In . SVG Version: 6.00 Build 0)  -->
<svg version="1.1" id="Capa_1" xmlns="http://www.w3.org/2000/svg" xmlns:xlink="http://www.w3.org/1999/xlink" x="0px" y="0px"
	 viewBox="0 0 29.2 21" style="enable-background:new 0 0 29.2 21;" xml:space="preserve">
<style type="text/css">
	.st0{fill:#DDB198;}
</style>
<g id="graduation-hat">
	<path id="Path_2601" class="st0" d="M28.6,6L14.9,0.1c-0.2-0.1-0.5-0.1-0.7,0L0.5,6C0.1,6.2-0.1,6.7,0.1,7.2
		c0.1,0.2,0.3,0.4,0.5,0.5l4.9,2.1v5.7c0,3.1,4,5.5,9.1,5.5s9.1-2.4,9.1-5.5V9.8l0.9-0.4v9.7c0,0.5,0.4,0.9,0.9,0.9s0.9-0.4,0.9-0.9
		V8.6l2.2-0.9c0.5-0.2,0.7-0.7,0.5-1.2C29,6.3,28.8,6.1,28.6,6z M14.6,1.9L26,6.8l-0.9,0.4L14.7,5.9c-0.5-0.1-1,0.3-1,0.8
		c-0.1,0.5,0.3,1,0.8,1l7.3,0.9l-7.2,3.1L3.2,6.8L14.6,1.9z M21.9,15.5c0,0.9-0.7,1.7-1.9,2.4c-3.4,1.6-7.3,1.6-10.7,0
		c-1.2-0.7-1.9-1.6-1.9-2.4v-4.9l6.9,3c0.2,0.1,0.5,0.1,0.7,0l6.9-3V15.5z"/>
</g>
</svg>
