<?xml version="1.0" encoding="utf-8"?>
<!-- Generator: Adobe Illustrator 25.4.1, SVG Export Plug-In . SVG Version: 6.00 Build 0)  -->
<svg version="1.1" id="Capa_1" xmlns="http://www.w3.org/2000/svg" xmlns:xlink="http://www.w3.org/1999/xlink" x="0px" y="0px"
     viewBox="0 0 32 32" style="enable-background:new 0 0 32 32;" xml:space="preserve">
<style type="text/css">
    .st0{fill:#FFFFFF;}
</style>
<g id="user_account_people_man">
    <path class="st0" d="M25.5,16.2c-0.5-0.5-1.3-0.5-1.7,0c-0.5,0.5-0.5,1.3,0,1.7l0,0c2.1,2.1,3.3,4.9,3.3,7.9
        c0,1.5-4.3,3.7-11.1,3.7S4.9,27.4,4.9,25.8c0-2.9,1.2-5.8,3.2-7.8c0.5-0.5,0.5-1.3,0-1.7c-0.5-0.5-1.3-0.5-1.7,0l0,0
        c-2.5,2.5-4,6-4,9.6c0,4,7,6.2,13.5,6.2s13.5-2.2,13.5-6.2C29.5,22.2,28.1,18.8,25.5,16.2z"/>
    <path class="st0" d="M16,17.2c4.8,0,8.6-3.9,8.6-8.6S20.8,0,16,0S7.4,3.9,7.4,8.6C7.4,13.4,11.2,17.2,16,17.2z M16,2.5
        c3.4,0,6.2,2.8,6.2,6.2s-2.8,6.2-6.2,6.2S9.8,12,9.8,8.6C9.9,5.2,12.6,2.5,16,2.5z"/>
</g>
</svg>
