<svg xmlns="http://www.w3.org/2000/svg" width="25.103" height="16" viewBox="0 0 25.103 16"><defs><style>.a{opacity:0.62;}.b{fill:#050c44;}</style></defs><g class="a" transform="translate(0 -92.835)"><g transform="translate(0 92.835)"><g transform="translate(0 0)"><path class="b" d="M24.944,100.347c-.224-.307-5.568-7.512-12.392-7.512S.383,100.04.159,100.346a.828.828,0,0,0,0,.977c.224.307,5.568,7.512,12.392,7.512s12.168-7.2,12.392-7.511A.827.827,0,0,0,24.944,100.347ZM12.552,107.18c-5.027,0-9.381-4.782-10.67-6.345,1.287-1.565,5.632-6.344,10.67-6.344s9.38,4.781,10.67,6.345C21.934,102.4,17.589,107.18,12.552,107.18Z" transform="translate(0 -92.835)"/></g></g><g transform="translate(7.586 95.869)"><g transform="translate(0 0)"><path class="b" d="M159.688,154.725a4.966,4.966,0,1,0,4.966,4.966A4.971,4.971,0,0,0,159.688,154.725Zm0,8.276a3.31,3.31,0,1,1,3.31-3.31A3.314,3.314,0,0,1,159.688,163Z" transform="translate(-154.722 -154.725)"/></g></g></g></svg>